999
dxflib 3.17.0.0
  0
SECTION
  2
HEADER
  9
$ACADVER
  1
AC1015
  9
$HANDSEED
  5
FFFF
  9
$DIMADEC
 70
1
  9
$DIMASZ
 40
5.0
  9
$DIMATFIT
 70
0
  9
$DIMAUNIT
 70
0
  9
$DIMAZIN
 70
2
  9
$DIMBLK
  1
0
  9
$DIMBLK1
  1
0
  9
$DIMBLK2
  1
0
  9
$DIMDEC
 70
2
  9
$DIMDLI
 40
10.0
  9
$DIMDSEP
 70
46
  9
$DIMEXE
 40
2.5
  9
$DIMEXO
 40
1.25
  9
$DIMGAP
 40
1.25
  9
$DIMLFAC
 40
0.0
  9
$DIMLUNIT
 70
2
  9
$DIMSCALE
 40
20.0
  9
$DIMTAD
 70
1
  9
$DIMTIH
 70
0
  9
$DIMTSZ
 40
0.0
  9
$DIMTXT
 40
5.0
  9
$DIMZIN
 70
8
  9
$DWGCODEPAGE
  3
ANSI_1252
  9
$INSUNITS
 70
4
  9
$LTSCALE
 40
1.0
  9
$MAXACTVP
 70
64
  9
$MEASUREMENT
 70
1
  9
$MIRRTEXT
 70
0
  9
$PDMODE
 70
0
  9
$PDSIZE
 40
0.0
  0
ENDSEC
  0
SECTION
  2
TABLES
  0
TABLE
  2
VPORT
  5
8
100
AcDbSymbolTable
 70
1
  0
VPORT
  5
30
100
AcDbSymbolTableRecord
100
AcDbViewportTableRecord
  2
*Active
 70
0
 10
0.0
 20
0.0
 11
1.0
 21
1.0
 12
286.3055555555554861
 22
148.5
 13
0.0
 23
0.0
 14
10.0
 24
10.0
 15
10.0
 25
10.0
 16
0.0
 26
0.0
 36
1.0
 17
0.0
 27
0.0
 37
0.0
 40
297.0
 41
1.92798353909465
 42
50.0
 43
0.0
 44
0.0
 50
0.0
 51
0.0
 71
0
 72
100
 73
1
 74
3
 75
1
 76
1
 77
0
 78
0
281
0
 65
1
110
0.0
120
0.0
130
0.0
111
1.0
121
0.0
131
0.0
112
0.0
122
1.0
132
0.0
 79
0
146
0.0
  0
ENDTAB
  0
TABLE
  2
LTYPE
  5
5
100
AcDbSymbolTable
 70
41
  0
LTYPE
  5
16
100
AcDbSymbolTableRecord
100
AcDbLinetypeTableRecord
  2
Continuous
 70
0
  3
Solid line
 72
65
 73
0
 40
0.0
  0
LTYPE
  5
31
100
AcDbSymbolTableRecord
100
AcDbLinetypeTableRecord
  2
ACAD_ISO11W100
 70
0
  3
ISO double-dash dot __ __ . __ __ . __ __ . __ _
 72
65
 73
6
 40
33.0
 49
12.0
 74
0
 49
-3.0
 74
0
 49
12.0
 74
0
 49
-2.9500000000000002
 74
0
 49
0.1
 74
0
 49
-2.9500000000000002
 74
0
  0
LTYPE
  5
32
100
AcDbSymbolTableRecord
100
AcDbLinetypeTableRecord
  2
ACAD_ISO15W100
 70
0
  3
ISO double-dash triple-dot __ __ . . . __ __ . .
 72
65
 73
10
 40
39.0000000000000071
 49
12.0
 74
0
 49
-3.0
 74
0
 49
12.0
 74
0
 49
-2.9500000000000002
 74
0
 49
0.1
 74
0
 49
-2.9000000000000004
 74
0
 49
0.1
 74
0
 49
-2.9000000000000004
 74
0
 49
0.1
 74
0
 49
-2.9500000000000002
 74
0
  0
LTYPE
  5
33
100
AcDbSymbolTableRecord
100
AcDbLinetypeTableRecord
  2
HIDDEN
 70
0
  3
Hidden __ __ __ __ __ __ __ __ __ __ __ __ __ __
 72
65
 73
2
 40
9.5249999999999986
 49
6.3499999999999996
 74
0
 49
-3.1749999999999998
 74
0
  0
LTYPE
  5
34
100
AcDbSymbolTableRecord
100
AcDbLinetypeTableRecord
  2
ACAD_ISO10W100
 70
0
  3
ISO dash dot __ . __ . __ . __ . __ . __ . __ . 
 72
65
 73
4
 40
18.0
 49
12.0
 74
0
 49
-2.9500000000000002
 74
0
 49
0.1
 74
0
 49
-2.9500000000000002
 74
0
  0
LTYPE
  5
35
100
AcDbSymbolTableRecord
100
AcDbLinetypeTableRecord
  2
ACAD_ISO07W100
 70
0
  3
ISO dot . . . . . . . . . . . . . . . . . . . . 
 72
65
 73
2
 40
3.0
 49
0.1
 74
0
 49
-2.8999999999999999
 74
0
  0
LTYPE
  5
14
100
AcDbSymbolTableRecord
100
AcDbLinetypeTableRecord
  2
BYBLOCK
 70
0
  3

 72
65
 73
0
 40
0.0
  0
LTYPE
  5
36
100
AcDbSymbolTableRecord
100
AcDbLinetypeTableRecord
  2
BORDER
 70
0
  3
Border __ __ . __ __ . __ __ . __ __ . __ __ .
 72
65
 73
6
 40
44.4499999999999957
 49
12.6999999999999993
 74
0
 49
-6.3499999999999996
 74
0
 49
12.6999999999999993
 74
0
 49
-6.2999999999999998
 74
0
 49
0.1
 74
0
 49
-6.2999999999999998
 74
0
  0
LTYPE
  5
37
100
AcDbSymbolTableRecord
100
AcDbLinetypeTableRecord
  2
HIDDEN2
 70
0
  3
Hidden (.5x) _ _ _ _ _ _ _ _ _ _ _ _ _ _ _ _ _ 
 72
65
 73
2
 40
4.7624999999999993
 49
3.1749999999999998
 74
0
 49
-1.5874999999999999
 74
0
  0
LTYPE
  5
38
100
AcDbSymbolTableRecord
100
AcDbLinetypeTableRecord
  2
BORDER2
 70
0
  3
Border (.5x) __.__.__.__.__.__.__.__.__.__.__.
 72
65
 73
6
 40
22.2250000000000014
 49
6.3499999999999996
 74
0
 49
-3.1749999999999998
 74
0
 49
6.3499999999999996
 74
0
 49
-3.125
 74
0
 49
0.1
 74
0
 49
-3.125
 74
0
  0
LTYPE
  5
39
100
AcDbSymbolTableRecord
100
AcDbLinetypeTableRecord
  2
DIVIDEX2
 70
0
  3
Divide (2x) ________  .  .  ________  .  .  _
 72
65
 73
6
 40
63.5
 49
25.3999999999999986
 74
0
 49
-12.6499999999999986
 74
0
 49
0.1
 74
0
 49
-12.5999999999999979
 74
0
 49
0.1
 74
0
 49
-12.6499999999999986
 74
0
  0
LTYPE
  5
3A
100
AcDbSymbolTableRecord
100
AcDbLinetypeTableRecord
  2
ACAD_ISO06W100
 70
0
  3
ISO long-dash triple-dot ____ ... ____ ... ____
 72
65
 73
8
 40
36.0000000000000071
 49
24.0
 74
0
 49
-2.9500000000000002
 74
0
 49
0.1
 74
0
 49
-2.9000000000000004
 74
0
 49
0.1
 74
0
 49
-2.9000000000000004
 74
0
 49
0.1
 74
0
 49
-2.9500000000000002
 74
0
  0
LTYPE
  5
3B
100
AcDbSymbolTableRecord
100
AcDbLinetypeTableRecord
  2
PHANTOMX2
 70
0
  3
Phantom (2x) ____________    ____    ____   _
 72
65
 73
6
 40
127.0000000000000142
 49
63.5
 74
0
 49
-12.6999999999999993
 74
0
 49
12.6999999999999993
 74
0
 49
-12.6999999999999993
 74
0
 49
12.6999999999999993
 74
0
 49
-12.6999999999999993
 74
0
  0
LTYPE
  5
3C
100
AcDbSymbolTableRecord
100
AcDbLinetypeTableRecord
  2
ACAD_ISO05W100
 70
0
  3
ISO long-dash double-dot ____ .. ____ .. ____ . 
 72
65
 73
6
 40
33.0000000000000071
 49
24.0
 74
0
 49
-2.9500000000000002
 74
0
 49
0.1
 74
0
 49
-2.9000000000000004
 74
0
 49
0.1
 74
0
 49
-2.9500000000000002
 74
0
  0
LTYPE
  5
3D
100
AcDbSymbolTableRecord
100
AcDbLinetypeTableRecord
  2
DASHEDX2
 70
0
  3
Dashed (2x) ____  ____  ____  ____  ____  ___
 72
65
 73
2
 40
38.0999999999999943
 49
25.3999999999999986
 74
0
 49
-12.6999999999999993
 74
0
  0
LTYPE
  5
15
100
AcDbSymbolTableRecord
100
AcDbLinetypeTableRecord
  2
BYLAYER
 70
0
  3

 72
65
 73
0
 40
0.0
  0
LTYPE
  5
3E
100
AcDbSymbolTableRecord
100
AcDbLinetypeTableRecord
  2
DASHDOTX2
 70
0
  3
Dash dot (2x) ____  .  ____  .  ____  .  ___
 72
65
 73
4
 40
50.7999999999999972
 49
25.3999999999999986
 74
0
 49
-12.6499999999999986
 74
0
 49
0.1
 74
0
 49
-12.6499999999999986
 74
0
  0
LTYPE
  5
3F
100
AcDbSymbolTableRecord
100
AcDbLinetypeTableRecord
  2
DASHDOT2
 70
0
  3
Dash dot (.5x) _._._._._._._._._._._._._._._.
 72
65
 73
4
 40
12.6999999999999993
 49
6.3499999999999996
 74
0
 49
-3.125
 74
0
 49
0.1
 74
0
 49
-3.125
 74
0
  0
LTYPE
  5
40
100
AcDbSymbolTableRecord
100
AcDbLinetypeTableRecord
  2
ACAD_ISO08W100
 70
0
  3
ISO long-dash short-dash ____ __ ____ __ ____ _
 72
65
 73
4
 40
36.0
 49
24.0
 74
0
 49
-3.0
 74
0
 49
6.0
 74
0
 49
-3.0
 74
0
  0
LTYPE
  5
41
100
AcDbSymbolTableRecord
100
AcDbLinetypeTableRecord
  2
DOTX2
 70
0
  3
Dot (2x) .  .  .  .  .  .  .  .  .  .  .  .  .  .
 72
65
 73
2
 40
12.6999999999999993
 49
0.1
 74
0
 49
-12.5999999999999996
 74
0
  0
LTYPE
  5
42
100
AcDbSymbolTableRecord
100
AcDbLinetypeTableRecord
  2
PHANTOM2
 70
0
  3
Phantom (.5x) ___ _ _ ___ _ _ ___ _ _ ___ _ _
 72
65
 73
6
 40
31.7500000000000036
 49
15.875
 74
0
 49
-3.1749999999999998
 74
0
 49
3.1749999999999998
 74
0
 49
-3.1749999999999998
 74
0
 49
3.1749999999999998
 74
0
 49
-3.1749999999999998
 74
0
  0
LTYPE
  5
43
100
AcDbSymbolTableRecord
100
AcDbLinetypeTableRecord
  2
CENTER2
 70
0
  3
Center (.5x) ___ _ ___ _ ___ _ ___ _ ___ _ ___
 72
65
 73
4
 40
28.5750000000000028
 49
19.0500000000000007
 74
0
 49
-3.1749999999999998
 74
0
 49
3.1749999999999998
 74
0
 49
-3.1749999999999998
 74
0
  0
LTYPE
  5
44
100
AcDbSymbolTableRecord
100
AcDbLinetypeTableRecord
  2
DASHED2
 70
0
  3
Dashed (.5x) _ _ _ _ _ _ _ _ _ _ _ _ _ _ _ _ _ 
 72
65
 73
2
 40
9.5249999999999986
 49
6.3499999999999996
 74
0
 49
-3.1749999999999998
 74
0
  0
LTYPE
  5
45
100
AcDbSymbolTableRecord
100
AcDbLinetypeTableRecord
  2
DIVIDE2
 70
0
  3
Divide (.5x) __..__..__..__..__..__..__..__.._
 72
65
 73
6
 40
15.8749999999999982
 49
6.3499999999999996
 74
0
 49
-3.125
 74
0
 49
0.1
 74
0
 49
-3.0750000000000002
 74
0
 49
0.1
 74
0
 49
-3.125
 74
0
  0
LTYPE
  5
46
100
AcDbSymbolTableRecord
100
AcDbLinetypeTableRecord
  2
ACAD_ISO03W100
 70
0
  3
ISO dash space __    __    __    __    __    __
 72
65
 73
2
 40
30.0
 49
12.0
 74
0
 49
-18.0
 74
0
  0
LTYPE
  5
47
100
AcDbSymbolTableRecord
100
AcDbLinetypeTableRecord
  2
DASHDOT
 70
0
  3
Dash dot __ . __ . __ . __ . __ . __ . __ . __
 72
65
 73
4
 40
25.4000000000000021
 49
12.6999999999999993
 74
0
 49
-6.2999999999999998
 74
0
 49
0.1
 74
0
 49
-6.2999999999999998
 74
0
  0
LTYPE
  5
48
100
AcDbSymbolTableRecord
100
AcDbLinetypeTableRecord
  2
ACAD_ISO09W100
 70
0
  3
ISO long-dash double-short-dash ____ __ __ ____
 72
65
 73
6
 40
45.0
 49
24.0
 74
0
 49
-3.0
 74
0
 49
6.0
 74
0
 49
-3.0
 74
0
 49
6.0
 74
0
 49
-3.0
 74
0
  0
LTYPE
  5
49
100
AcDbSymbolTableRecord
100
AcDbLinetypeTableRecord
  2
CENTER
 70
0
  3
Center ____ _ ____ _ ____ _ ____ _ ____ _ ____
 72
65
 73
4
 40
50.8000000000000043
 49
31.75
 74
0
 49
-6.3499999999999996
 74
0
 49
6.3499999999999996
 74
0
 49
-6.3499999999999996
 74
0
  0
LTYPE
  5
4A
100
AcDbSymbolTableRecord
100
AcDbLinetypeTableRecord
  2
DOT
 70
0
  3
Dot . . . . . . . . . . . . . . . . . . . . . . . .
 72
65
 73
2
 40
6.3499999999999996
 49
0.1
 74
0
 49
-6.25
 74
0
  0
LTYPE
  5
4B
100
AcDbSymbolTableRecord
100
AcDbLinetypeTableRecord
  2
BORDERX2
 70
0
  3
Border (2x) ____  ____  .  ____  ____  .  ___
 72
65
 73
6
 40
88.8999999999999773
 49
25.3999999999999986
 74
0
 49
-12.6999999999999993
 74
0
 49
25.3999999999999986
 74
0
 49
-12.6499999999999986
 74
0
 49
0.1
 74
0
 49
-12.6499999999999986
 74
0
  0
LTYPE
  5
4C
100
AcDbSymbolTableRecord
100
AcDbLinetypeTableRecord
  2
ACAD_ISO12W100
 70
0
  3
ISO dash double-dot __ . . __ . . __ . . __ . . 
 72
65
 73
6
 40
21.0
 49
12.0
 74
0
 49
-2.9500000000000002
 74
0
 49
0.1
 74
0
 49
-2.9000000000000004
 74
0
 49
0.1
 74
0
 49
-2.9500000000000002
 74
0
  0
LTYPE
  5
4D
100
AcDbSymbolTableRecord
100
AcDbLinetypeTableRecord
  2
DOT2
 70
0
  3
Dot (.5x) ........................................
 72
65
 73
2
 40
3.1749999999999998
 49
0.1
 74
0
 49
-3.0749999999999997
 74
0
  0
LTYPE
  5
4E
100
AcDbSymbolTableRecord
100
AcDbLinetypeTableRecord
  2
PHANTOM
 70
0
  3
Phantom ______  __  __  ______  __  __  ______ 
 72
65
 73
6
 40
63.5000000000000071
 49
31.75
 74
0
 49
-6.3499999999999996
 74
0
 49
6.3499999999999996
 74
0
 49
-6.3499999999999996
 74
0
 49
6.3499999999999996
 74
0
 49
-6.3499999999999996
 74
0
  0
LTYPE
  5
4F
100
AcDbSymbolTableRecord
100
AcDbLinetypeTableRecord
  2
ACAD_ISO02W100
 70
0
  3
ISO dash __ __ __ __ __ __ __ __ __ __ __ __ __
 72
65
 73
2
 40
15.0
 49
12.0
 74
0
 49
-3.0
 74
0
  0
LTYPE
  5
50
100
AcDbSymbolTableRecord
100
AcDbLinetypeTableRecord
  2
ACAD_ISO14W100
 70
0
  3
ISO dash triple-dot __ . . . __ . . . __ . . . _
 72
65
 73
8
 40
24.0000000000000036
 49
12.0
 74
0
 49
-2.9500000000000002
 74
0
 49
0.1
 74
0
 49
-2.9000000000000004
 74
0
 49
0.1
 74
0
 49
-2.9000000000000004
 74
0
 49
0.1
 74
0
 49
-2.9500000000000002
 74
0
  0
LTYPE
  5
51
100
AcDbSymbolTableRecord
100
AcDbLinetypeTableRecord
  2
DIVIDE
 70
0
  3
Divide ____ . . ____ . . ____ . . ____ . . ____
 72
65
 73
6
 40
31.7500000000000036
 49
12.6999999999999993
 74
0
 49
-6.2999999999999998
 74
0
 49
0.1
 74
0
 49
-6.25
 74
0
 49
0.1
 74
0
 49
-6.2999999999999998
 74
0
  0
LTYPE
  5
52
100
AcDbSymbolTableRecord
100
AcDbLinetypeTableRecord
  2
ACAD_ISO13W100
 70
0
  3
ISO double-dash double-dot __ __ . . __ __ . . _
 72
65
 73
8
 40
36.0000000000000071
 49
12.0
 74
0
 49
-3.0
 74
0
 49
12.0
 74
0
 49
-2.9500000000000002
 74
0
 49
0.1
 74
0
 49
-2.9000000000000004
 74
0
 49
0.1
 74
0
 49
-2.9500000000000002
 74
0
  0
LTYPE
  5
53
100
AcDbSymbolTableRecord
100
AcDbLinetypeTableRecord
  2
ACAD_ISO04W100
 70
0
  3
ISO long-dash dot ____ . ____ . ____ . ____ . _
 72
65
 73
4
 40
30.0
 49
24.0
 74
0
 49
-2.9500000000000002
 74
0
 49
0.1
 74
0
 49
-2.9500000000000002
 74
0
  0
LTYPE
  5
54
100
AcDbSymbolTableRecord
100
AcDbLinetypeTableRecord
  2
CENTERX2
 70
0
  3
Center (2x) ________  __  ________  __  _____
 72
65
 73
4
 40
101.6000000000000085
 49
63.5
 74
0
 49
-12.6999999999999993
 74
0
 49
12.6999999999999993
 74
0
 49
-12.6999999999999993
 74
0
  0
LTYPE
  5
55
100
AcDbSymbolTableRecord
100
AcDbLinetypeTableRecord
  2
HIDDENX2
 70
0
  3
Hidden (2x) ____ ____ ____ ____ ____ ____ ____ 
 72
65
 73
2
 40
19.0499999999999972
 49
12.6999999999999993
 74
0
 49
-6.3499999999999996
 74
0
  0
LTYPE
  5
56
100
AcDbSymbolTableRecord
100
AcDbLinetypeTableRecord
  2
DASHED
 70
0
  3
Dashed __ __ __ __ __ __ __ __ __ __ __ __ __ _
 72
65
 73
2
 40
19.0499999999999972
 49
12.6999999999999993
 74
0
 49
-6.3499999999999996
 74
0
  0
ENDTAB
  0
TABLE
  2
LAYER
  5
2
100
AcDbSymbolTable
 70
11
  0
LAYER
  5
57
100
AcDbSymbolTableRecord
100
AcDbLayerTableRecord
  2
hatch
 70
0
 62
7
420
0
  6
Continuous
370
25
390
F
  0
LAYER
  5
58
100
AcDbSymbolTableRecord
100
AcDbLayerTableRecord
  2
window1
 70
4
 62
7
420
0
  6
Continuous
370
25
390
F
  0
LAYER
  5
59
100
AcDbSymbolTableRecord
100
AcDbLayerTableRecord
  2
electro_okiten
 70
0
 62
12
420
10747904
  6
Continuous
370
200
390
F
  0
LAYER
  5
5A
100
AcDbSymbolTableRecord
100
AcDbLayerTableRecord
  2
dimensions
 70
1
 62
4
420
65535
  6
Continuous
370
25
390
F
  0
LAYER
  5
5B
100
AcDbSymbolTableRecord
100
AcDbLayerTableRecord
  2
electro
 70
0
 62
1
420
16711680
  6
Continuous
370
25
390
F
  0
LAYER
  5
5C
100
AcDbSymbolTableRecord
100
AcDbLayerTableRecord
  2
obj-v
 70
0
 62
8
420
8355711
  6
Continuous
370
18
390
F
  0
LAYER
  5
5D
100
AcDbSymbolTableRecord
100
AcDbLayerTableRecord
  2
devices
 70
0
 62
4
420
65535
  6
Continuous
370
25
390
F
  0
LAYER
  5
5E
100
AcDbSymbolTableRecord
100
AcDbLayerTableRecord
  2
voda
 70
0
 62
5
420
255
  6
Continuous
370
0
390
F
  0
LAYER
  5
5F
100
AcDbSymbolTableRecord
100
AcDbLayerTableRecord
  2
SYMBOLS
 70
0
 62
7
420
16777215
  6
Continuous
370
-3
390
F
  0
LAYER
  5
10
100
AcDbSymbolTableRecord
100
AcDbLayerTableRecord
  2
0
 70
0
 62
7
420
16777215
  6
Continuous
370
50
390
F
  0
LAYER
  5
60
100
AcDbSymbolTableRecord
100
AcDbLayerTableRecord
  2
NULL
 70
0
 62
4
420
65535
  6
Continuous
370
5
390
F
  0
ENDTAB
  0
TABLE
  2
STYLE
  5
3
100
AcDbSymbolTable
 70
2
  0
STYLE
  5
61
100
AcDbSymbolTableRecord
100
AcDbTextStyleTableRecord
  2
Standard
 70
0
 40
0.0
 41
1.0
 50
0.0
 71
0
 42
2.5
  3

  4

1001
ACAD
1000
txt
1071
0
  0
STYLE
  5
62
100
AcDbSymbolTableRecord
100
AcDbTextStyleTableRecord
  2
textstyle0
 70
0
 40
0.0
 41
1.0
 50
0.0
 71
0
 42
32.0
  3

  4

1001
ACAD
1000
Liberation Sans
1071
0
  0
ENDTAB
  0
TABLE
  2
VIEW
  5
6
100
AcDbSymbolTable
 70
0
  0
ENDTAB
  0
TABLE
  2
UCS
  5
7
100
AcDbSymbolTable
 70
0
  0
ENDTAB
  0
TABLE
  2
APPID
  5
9
100
AcDbSymbolTable
 70
1
  0
APPID
  5
12
100
AcDbSymbolTableRecord
100
AcDbRegAppTableRecord
  2
ACAD
 70
0
  0
APPID
  5
63
100
AcDbSymbolTableRecord
100
AcDbRegAppTableRecord
  2
QCAD
 70
0
  0
ENDTAB
  0
TABLE
  2
DIMSTYLE
  5
A
100
AcDbSymbolTable
 70
1
100
AcDbDimStyleTable
 71
0
  0
DIMSTYLE
105
27
100
AcDbSymbolTableRecord
100
AcDbDimStyleTableRecord
  2
Standard
 41
5.0
 42
1.25
 43
3.75
 44
2.5
 70
0
 73
0
 74
0
 77
1
 78
8
140
5.0
141
2.5
143
0.03937007874016
147
1.25
171
3
172
1
271
2
272
2
274
3
278
44
283
0
284
8
340
61
  0
ENDTAB
  0
TABLE
  2
BLOCK_RECORD
  5
1
100
AcDbSymbolTable
 70
1
  0
BLOCK_RECORD
  5
1F
100
AcDbSymbolTableRecord
100
AcDbBlockTableRecord
  2
*Model_Space
340
22
  0
BLOCK_RECORD
  5
1B
100
AcDbSymbolTableRecord
100
AcDbBlockTableRecord
  2
*Paper_Space
340
1E
  0
BLOCK_RECORD
  5
23
100
AcDbSymbolTableRecord
100
AcDbBlockTableRecord
  2
*Paper_Space0
340
26
  0
BLOCK_RECORD
  5
64
100
AcDbSymbolTableRecord
100
AcDbBlockTableRecord
  2
ARCHIT190
340
0
  0
BLOCK_RECORD
  5
65
100
AcDbSymbolTableRecord
100
AcDbBlockTableRecord
  2
Elt34
340
0
  0
BLOCK_RECORD
  5
66
100
AcDbSymbolTableRecord
100
AcDbBlockTableRecord
  2
Window 900
340
0
  0
BLOCK_RECORD
  5
67
100
AcDbSymbolTableRecord
100
AcDbBlockTableRecord
  2
lamp
340
0
  0
BLOCK_RECORD
  5
68
100
AcDbSymbolTableRecord
100
AcDbBlockTableRecord
  2
M1.4x16_DIN84_f
340
0
  0
BLOCK_RECORD
  5
69
100
AcDbSymbolTableRecord
100
AcDbBlockTableRecord
  2
SBSDgen
340
0
  0
BLOCK_RECORD
  5
6A
100
AcDbSymbolTableRecord
100
AcDbBlockTableRecord
  2
sink
340
0
  0
BLOCK_RECORD
  5
6B
100
AcDbSymbolTableRecord
100
AcDbBlockTableRecord
  2
Elt33
340
0
  0
BLOCK_RECORD
  5
6C
100
AcDbSymbolTableRecord
100
AcDbBlockTableRecord
  2
switch-03
340
0
  0
BLOCK_RECORD
  5
6D
100
AcDbSymbolTableRecord
100
AcDbBlockTableRecord
  2
toilet
340
0
  0
BLOCK_RECORD
  5
6E
100
AcDbSymbolTableRecord
100
AcDbBlockTableRecord
  2
sh80_cw
340
0
  0
BLOCK_RECORD
  5
6F
100
AcDbSymbolTableRecord
100
AcDbBlockTableRecord
  2
washing-machine
340
0
  0
BLOCK_RECORD
  5
70
100
AcDbSymbolTableRecord
100
AcDbBlockTableRecord
  2
Bath plan
340
0
  0
BLOCK_RECORD
  5
71
100
AcDbSymbolTableRecord
100
AcDbBlockTableRecord
  2
Elt(29)
340
0
  0
BLOCK_RECORD
  5
72
100
AcDbSymbolTableRecord
100
AcDbBlockTableRecord
  2
ARCHIT178
340
0
  0
BLOCK_RECORD
  5
73
100
AcDbSymbolTableRecord
100
AcDbBlockTableRecord
  2
EL860
340
0
  0
ENDTAB
  0
ENDSEC
  0
SECTION
  2
BLOCKS
  0
BLOCK
  5
20
100
AcDbEntity
  8
0
100
AcDbBlockBegin
  2
*Model_Space
 70
0
 10
0.0
 20
0.0
 30
0.0
  3
*Model_Space
  1

  0
ENDBLK
  5
21
100
AcDbEntity
  8
0
100
AcDbBlockEnd
  0
BLOCK
  5
1C
100
AcDbEntity
 67
1
  8
0
100
AcDbBlockBegin
  2
*Paper_Space
 70
0
 10
0.0
 20
0.0
 30
0.0
  3
*Paper_Space
  1

  0
ENDBLK
  5
1D
100
AcDbEntity
 67
1
  8
0
100
AcDbBlockEnd
  0
BLOCK
  5
24
100
AcDbEntity
  8
0
100
AcDbBlockBegin
  2
*Paper_Space0
 70
0
 10
0.0
 20
0.0
 30
0.0
  3
*Paper_Space0
  1

  0
ENDBLK
  5
25
100
AcDbEntity
  8
0
100
AcDbBlockEnd
  0
BLOCK
  5
74
100
AcDbEntity
  8
0
100
AcDbBlockBegin
  2
ARCHIT190
 70
0
 10
0.0
 20
0.0
 30
0.0
  3
ARCHIT190
  1

  0
LINE
  5
75
100
AcDbEntity
  8
voda
 62
256
370
-1
 48
1.0
  6
Continuous
100
AcDbLine
 10
0.0
 20
0.0
 30
0.0
 11
8.0
 21
0.0
 31
0.0
  0
LINE
  5
76
100
AcDbEntity
  8
voda
 62
256
370
-1
 48
1.0
  6
Continuous
100
AcDbLine
 10
8.0
 20
0.0
 30
0.0
 11
8.0
 21
8.0
 31
0.0
  0
LINE
  5
77
100
AcDbEntity
  8
voda
 62
256
370
-1
 48
1.0
  6
Continuous
100
AcDbLine
 10
8.0
 20
8.0
 30
0.0
 11
0.0
 21
8.0
 31
0.0
  0
LINE
  5
78
100
AcDbEntity
  8
voda
 62
256
370
-1
 48
1.0
  6
Continuous
100
AcDbLine
 10
0.0
 20
8.0
 30
0.0
 11
0.0
 21
0.0
 31
0.0
  0
CIRCLE
  5
79
100
AcDbEntity
  8
voda
 62
256
370
-1
 48
1.0
  6
Continuous
100
AcDbCircle
 10
4.0
 20
4.0
 30
0.0
 40
1.6000000000000001
  0
ENDBLK
  5
7A
100
AcDbEntity
  8
0
100
AcDbBlockEnd
  0
BLOCK
  5
7B
100
AcDbEntity
  8
0
100
AcDbBlockBegin
  2
Elt34
 70
0
 10
0.0
 20
0.0
 30
0.0
  3
Elt34
  1

  0
LINE
  5
7C
100
AcDbEntity
  8
electro
 62
256
370
-1
 48
1.0
  6
Continuous
100
AcDbLine
 10
250.0
 20
125.0
 30
0.0
 11
0.0
 21
125.0
 31
0.0
  0
LINE
  5
7D
100
AcDbEntity
  8
electro
 62
256
370
-1
 48
1.0
  6
Continuous
100
AcDbLine
 10
250.0
 20
125.0
 30
0.0
 11
500.0
 21
125.0
 31
0.0
  0
LINE
  5
7E
100
AcDbEntity
  8
electro
 62
256
370
-1
 48
1.0
  6
Continuous
100
AcDbLine
 10
250.0
 20
125.0
 30
0.0
 11
250.0
 21
275.0
 31
0.0
  0
ARC
  5
7F
100
AcDbEntity
  8
electro
 62
256
370
-1
 48
1.0
  6
Continuous
100
AcDbCircle
 10
125.0
 20
0.0
 30
0.0
 40
125.0
100
AcDbArc
 50
0.0
 51
180.0
  0
ARC
  5
80
100
AcDbEntity
  8
electro
 62
256
370
-1
 48
1.0
  6
Continuous
100
AcDbCircle
 10
375.0
 20
0.0
 30
0.0
 40
125.0
100
AcDbArc
 50
0.0
 51
180.0
  0
ENDBLK
  5
81
100
AcDbEntity
  8
0
100
AcDbBlockEnd
  0
BLOCK
  5
82
100
AcDbEntity
  8
0
100
AcDbBlockBegin
  2
Window 900
 70
0
 10
0.0
 20
0.0
 30
0.0
  3
Window 900
  1

  0
LINE
  5
83
100
AcDbEntity
  8
window1
 62
256
370
-1
 48
1.0
  6
BYLAYER
100
AcDbLine
 10
-1310.0
 20
-50.00000000000081
 30
0.0
 11
-1265.0
 21
-50.0000000000020108
 31
0.0
  0
LINE
  5
84
100
AcDbEntity
  8
window1
 62
256
370
-1
 48
1.0
  6
BYLAYER
100
AcDbLine
 10
-45.0
 20
-50.0000000000000071
 30
0.0
 11
-1265.0
 21
-50.0000000000020179
 31
0.0
  0
LINE
  5
85
100
AcDbEntity
  8
window1
 62
256
370
-1
 48
1.0
  6
BYLAYER
100
AcDbLine
 10
-45.0
 20
0.0000000000000055
 30
0.0
 11
-1265.0
 21
0.0000000000001503
 31
0.0
  0
LINE
  5
86
100
AcDbEntity
  8
window1
 62
256
370
-1
 48
1.0
  6
BYLAYER
100
AcDbLine
 10
-1265.0
 20
20.0000000000024336
 30
0.0
 11
-45.0000000000000142
 21
19.9999999999999787
 31
0.0
  0
LINE
  5
87
100
AcDbEntity
  8
window1
 62
256
370
-1
 48
1.0
  6
BYLAYER
100
AcDbLine
 10
-45.0
 20
-50.0000000000000071
 30
0.0
 11
-44.9999999999999787
 21
70.0000000000000142
 31
0.0
  0
LINE
  5
88
100
AcDbEntity
  8
window1
 62
256
370
-1
 48
1.0
  6
BYLAYER
100
AcDbLine
 10
-1265.0
 20
-50.0000000000020108
 30
0.0
 11
-1265.0
 21
70.0000000000022453
 31
0.0
  0
LINE
  5
89
100
AcDbEntity
  8
window1
 62
256
370
-1
 48
1.0
  6
BYLAYER
100
AcDbLine
 10
-1310.0
 20
70.0000000000013927
 30
0.0
 11
-1310.0
 21
-50.00000000000081
 31
0.0
  0
LINE
  5
8A
100
AcDbEntity
  8
window1
 62
256
370
-1
 48
1.0
  6
BYLAYER
100
AcDbLine
 10
0.0000000000000214
 20
70.0
 30
0.0
 11
-1310.0
 21
70.0000000000013927
 31
0.0
  0
LINE
  5
8B
100
AcDbEntity
  8
window1
 62
256
370
-1
 48
1.0
  6
BYLAYER
100
AcDbLine
 10
0.0000000000000214
 20
70.0
 30
0.0
 11
-0.0000000000000092
 21
-50.0
 31
0.0
  0
LINE
  5
8C
100
AcDbEntity
  8
window1
 62
256
370
-1
 48
1.0
  6
BYLAYER
100
AcDbLine
 10
0.0000000000000214
 20
70.0
 30
0.0
 11
0.0000000000000306
 21
100.0
 31
0.0
  0
LINE
  5
8D
100
AcDbEntity
  8
window1
 62
256
370
-1
 48
1.0
  6
BYLAYER
100
AcDbLine
 10
0.0000000000000306
 20
100.0
 30
0.0
 11
-1310.0
 21
99.9999999999995168
 31
0.0
  0
LINE
  5
8E
100
AcDbEntity
  8
window1
 62
256
370
-1
 48
1.0
  6
BYLAYER
100
AcDbLine
 10
-1310.0
 20
70.0000000000013927
 30
0.0
 11
-1310.0
 21
99.9999999999995168
 31
0.0
  0
LINE
  5
8F
100
AcDbEntity
  8
window1
 62
256
370
-1
 48
1.0
  6
BYLAYER
100
AcDbLine
 10
-0.0000000000000092
 20
-50.0
 30
0.0
 11
-0.0000000000000073
 21
-40.0
 31
0.0
  0
LINE
  5
90
100
AcDbEntity
  8
window1
 62
256
370
-1
 48
1.0
  6
BYLAYER
100
AcDbLine
 10
-0.0000000000000092
 20
-50.0
 30
0.0
 11
-0.0000000000000276
 21
-150.0
 31
0.0
  0
LINE
  5
91
100
AcDbEntity
  8
window1
 62
256
370
-1
 48
1.0
  6
BYLAYER
100
AcDbLine
 10
-1310.0
 20
-50.00000000000081
 30
0.0
 11
-1310.0
 21
-150.0000000000005116
 31
0.0
  0
LINE
  5
92
100
AcDbEntity
  8
window1
 62
256
370
-1
 48
1.0
  6
BYLAYER
100
AcDbLine
 10
-0.0000000000000276
 20
-150.0
 30
0.0
 11
-1310.0
 21
-150.0000000000005116
 31
0.0
  0
LINE
  5
93
100
AcDbEntity
  8
window1
 62
256
370
-1
 48
1.0
  6
BYLAYER
100
AcDbLine
 10
-0.0000000000000092
 20
-50.0
 30
0.0
 11
-45.0
 21
-50.0000000000000071
 31
0.0
  0
ENDBLK
  5
94
100
AcDbEntity
  8
0
100
AcDbBlockEnd
  0
BLOCK
  5
95
100
AcDbEntity
  8
0
100
AcDbBlockBegin
  2
lamp
 70
0
 10
0.0
 20
0.0
 30
0.0
  3
lamp
  1

  0
LINE
  5
96
100
AcDbEntity
  8
electro
 62
256
370
-1
 48
1.0
  6
BYLAYER
100
AcDbLine
 10
1.875
 20
-1.875
 30
0.0
 11
-1.875
 21
1.875
 31
0.0
  0
LINE
  5
97
100
AcDbEntity
  8
electro
 62
256
370
-1
 48
1.0
  6
BYLAYER
100
AcDbLine
 10
-1.875
 20
-1.875
 30
0.0
 11
1.875
 21
1.875
 31
0.0
  0
ENDBLK
  5
98
100
AcDbEntity
  8
0
100
AcDbBlockEnd
  0
BLOCK
  5
99
100
AcDbEntity
  8
0
100
AcDbBlockBegin
  2
M1.4x16_DIN84_f
 70
0
 10
0.0
 20
0.0
 30
0.0
  3
M1.4x16_DIN84_f
  1

  0
LINE
  5
9A
100
AcDbEntity
  8
NULL
 62
4
420
65535
370
-1
 48
1.0
  6
Continuous
100
AcDbLine
 10
-1.3
 20
0.9
 30
0.0
 11
-1.3
 21
0.0
 31
0.0
  0
LINE
  5
9B
100
AcDbEntity
  8
NULL
 62
4
420
65535
370
-1
 48
1.0
  6
Continuous
100
AcDbLine
 10
-1.3
 20
0.0
 30
0.0
 11
1.3
 21
0.0
 31
0.0
  0
LINE
  5
9C
100
AcDbEntity
  8
NULL
 62
4
420
65535
370
-1
 48
1.0
  6
Continuous
100
AcDbLine
 10
1.3
 20
0.0
 30
0.0
 11
1.3
 21
0.9
 31
0.0
  0
LINE
  5
9D
100
AcDbEntity
  8
NULL
 62
4
420
65535
370
-1
 48
1.0
  6
Continuous
100
AcDbLine
 10
1.3
 20
0.9
 30
0.0
 11
0.225
 21
0.9
 31
0.0
  0
LINE
  5
9E
100
AcDbEntity
  8
NULL
 62
4
420
65535
370
-1
 48
1.0
  6
Continuous
100
AcDbLine
 10
0.225
 20
0.9
 30
0.0
 11
0.225
 21
0.45
 31
0.0
  0
LINE
  5
9F
100
AcDbEntity
  8
NULL
 62
4
420
65535
370
-1
 48
1.0
  6
Continuous
100
AcDbLine
 10
0.225
 20
0.45
 30
0.0
 11
-0.225
 21
0.45
 31
0.0
  0
LINE
  5
A0
100
AcDbEntity
  8
NULL
 62
4
420
65535
370
-1
 48
1.0
  6
Continuous
100
AcDbLine
 10
-0.225
 20
0.45
 30
0.0
 11
-0.225
 21
0.9
 31
0.0
  0
LINE
  5
A1
100
AcDbEntity
  8
NULL
 62
4
420
65535
370
-1
 48
1.0
  6
Continuous
100
AcDbLine
 10
-0.225
 20
0.9
 30
0.0
 11
-1.3
 21
0.9
 31
0.0
  0
LINE
  5
A2
100
AcDbEntity
  8
NULL
 62
4
420
65535
370
-1
 48
1.0
  6
Continuous
100
AcDbLine
 10
0.7
 20
0.0
 30
0.0
 11
0.7
 21
-15.8160000000000007
 31
0.0
  0
LINE
  5
A3
100
AcDbEntity
  8
NULL
 62
4
420
65535
370
-1
 48
1.0
  6
Continuous
100
AcDbLine
 10
0.7
 20
-15.8160000000000007
 30
0.0
 11
0.516
 21
-16.0
 31
0.0
  0
LINE
  5
A4
100
AcDbEntity
  8
NULL
 62
4
420
65535
370
-1
 48
1.0
  6
Continuous
100
AcDbLine
 10
0.516
 20
-16.0
 30
0.0
 11
-0.516
 21
-16.0
 31
0.0
  0
LINE
  5
A5
100
AcDbEntity
  8
NULL
 62
4
420
65535
370
-1
 48
1.0
  6
Continuous
100
AcDbLine
 10
-0.516
 20
-16.0
 30
0.0
 11
-0.7
 21
-15.8160000000000007
 31
0.0
  0
LINE
  5
A6
100
AcDbEntity
  8
NULL
 62
4
420
65535
370
-1
 48
1.0
  6
Continuous
100
AcDbLine
 10
-0.7
 20
-15.8160000000000007
 30
0.0
 11
-0.7
 21
0.0
 31
0.0
  0
LINE
  5
A7
100
AcDbEntity
  8
NULL
 62
4
420
65535
370
-1
 48
1.0
  6
Continuous
100
AcDbLine
 10
0.7
 20
-15.8160000000000007
 30
0.0
 11
-0.7
 21
-15.8160000000000007
 31
0.0
  0
LINE
  5
A8
100
AcDbEntity
  8
NULL
 62
4
420
65535
370
-1
 48
1.0
  6
Continuous
100
AcDbLine
 10
-0.7
 20
-0.318697
 30
0.0
 11
0.7
 21
-0.318697
 31
0.0
  0
LINE
  5
A9
100
AcDbEntity
  8
NULL
 62
2
420
16776960
370
-1
 48
1.0
  6
Continuous
100
AcDbLine
 10
0.7
 20
0.0
 30
0.0
 11
0.516
 21
-0.318697
 31
0.0
  0
LINE
  5
AA
100
AcDbEntity
  8
NULL
 62
2
420
16776960
370
-1
 48
1.0
  6
Continuous
100
AcDbLine
 10
0.516
 20
-0.318697
 30
0.0
 11
0.516
 21
-16.0
 31
0.0
  0
LINE
  5
AB
100
AcDbEntity
  8
NULL
 62
2
420
16776960
370
-1
 48
1.0
  6
Continuous
100
AcDbLine
 10
-0.516
 20
-16.0
 30
0.0
 11
-0.516
 21
-0.318697
 31
0.0
  0
LINE
  5
AC
100
AcDbEntity
  8
NULL
 62
2
420
16776960
370
-1
 48
1.0
  6
Continuous
100
AcDbLine
 10
-0.516
 20
-0.318697
 30
0.0
 11
-0.7
 21
0.0
 31
0.0
  0
ENDBLK
  5
AD
100
AcDbEntity
  8
0
100
AcDbBlockEnd
  0
BLOCK
  5
AE
100
AcDbEntity
  8
0
100
AcDbBlockBegin
  2
SBSDgen
 70
0
 10
0.0
 20
0.0
 30
0.0
  3
SBSDgen
  1

  0
LINE
  5
AF
100
AcDbEntity
  8
devices
 62
256
370
0
 48
1.0
  6
Continuous
100
AcDbLine
 10
482.5
 20
255.0
 30
0.0
 11
-482.5
 21
255.0
 31
0.0
  0
LINE
  5
B0
100
AcDbEntity
  8
devices
 62
256
370
0
 48
1.0
  6
Continuous
100
AcDbLine
 10
-482.5
 20
255.0
 30
0.0
 11
-482.5
 21
-255.0
 31
0.0
  0
LINE
  5
B1
100
AcDbEntity
  8
devices
 62
256
370
0
 48
1.0
  6
Continuous
100
AcDbLine
 10
-482.5
 20
-255.0
 30
0.0
 11
482.5
 21
-255.0
 31
0.0
  0
LINE
  5
B2
100
AcDbEntity
  8
devices
 62
256
370
0
 48
1.0
  6
Continuous
100
AcDbLine
 10
482.5
 20
-255.0
 30
0.0
 11
482.5
 21
255.0
 31
0.0
  0
CIRCLE
  5
B3
100
AcDbEntity
  8
devices
 62
256
370
0
 48
1.0
  6
Continuous
100
AcDbCircle
 10
-225.0
 20
55.0
 30
0.0
 40
42.0
  0
ARC
  5
B4
100
AcDbEntity
  8
devices
 62
256
370
0
 48
1.0
  6
Continuous
100
AcDbCircle
 10
-783.6606999999999061
 20
-30.0
 30
0.0
 40
768.6606999999999061
100
AcDbArc
 50
352.2616310000000226
 51
7.7383690000000005
  0
ARC
  5
B5
100
AcDbEntity
  8
devices
 62
256
370
0
 48
1.0
  6
Continuous
100
AcDbCircle
 10
-225.0
 20
938.0556000000000267
 30
0.0
 40
1140.5555999999999131
100
AcDbArc
 50
262.7974439999999277
 51
277.2025560000000723
  0
ARC
  5
B6
100
AcDbEntity
  8
devices
 62
256
370
0
 48
1.0
  6
Continuous
100
AcDbCircle
 10
-225.0
 20
-998.0554999999999382
 30
0.0
 40
1140.5555999999999131
100
AcDbArc
 50
82.7974439999999987
 51
97.2025560000000013
  0
ARC
  5
B7
100
AcDbEntity
  8
devices
 62
256
370
0
 48
1.0
  6
Continuous
100
AcDbCircle
 10
-90.6694999999999993
 20
64.8991999999999933
 30
0.0
 40
69.1465000000000032
100
AcDbArc
 50
7.1391550000000006
 51
82.7974439999999987
  0
ARC
  5
B8
100
AcDbEntity
  8
devices
 62
256
370
0
 48
1.0
  6
Continuous
100
AcDbCircle
 10
-90.6694999999999993
 20
-124.8991000000000042
 30
0.0
 40
69.1465000000000032
100
AcDbArc
 50
277.2025560000000723
 51
352.8608449999999834
  0
ARC
  5
B9
100
AcDbEntity
  8
devices
 62
256
370
0
 48
1.0
  6
Continuous
100
AcDbCircle
 10
333.6607000000000198
 20
-30.0
 30
0.0
 40
768.6606999999999061
100
AcDbArc
 50
172.2616309999999942
 51
187.7383690000000058
  0
ARC
  5
BA
100
AcDbEntity
  8
devices
 62
256
370
0
 48
1.0
  6
Continuous
100
AcDbCircle
 10
-359.330600000000004
 20
64.8991999999999933
 30
0.0
 40
69.1465000000000032
100
AcDbArc
 50
97.2025560000000013
 51
172.8608450000000119
  0
ARC
  5
BB
100
AcDbEntity
  8
devices
 62
256
370
0
 48
1.0
  6
Continuous
100
AcDbCircle
 10
-359.330600000000004
 20
-124.8991000000000042
 30
0.0
 40
69.1465000000000032
100
AcDbArc
 50
187.1391549999999881
 51
262.7974439999999277
  0
CIRCLE
  5
BC
100
AcDbEntity
  8
devices
 62
256
370
0
 48
1.0
  6
Continuous
100
AcDbCircle
 10
-315.0
 20
180.0
 30
0.0
 40
15.0
  0
CIRCLE
  5
BD
100
AcDbEntity
  8
devices
 62
256
370
0
 48
1.0
  6
Continuous
100
AcDbCircle
 10
-135.0
 20
180.0
 30
0.0
 40
15.0
  0
LINE
  5
BE
100
AcDbEntity
  8
devices
 62
256
370
0
 48
1.0
  6
Continuous
100
AcDbLine
 10
8.0
 20
123.5
 30
0.0
 11
427.9993999999999801
 21
122.8238999999999947
 31
0.0
  0
LINE
  5
BF
100
AcDbEntity
  8
devices
 62
256
370
0
 48
1.0
  6
Continuous
100
AcDbLine
 10
7.9410000000000007
 20
-183.4926000000000101
 30
0.0
 11
428.0409999999999968
 21
-183.4926000000000101
 31
0.0
  0
LINE
  5
C0
100
AcDbEntity
  8
devices
 62
256
370
0
 48
1.0
  6
Continuous
100
AcDbLine
 10
7.9410000000000007
 20
-122.0926000000000045
 30
0.0
 11
428.0409999999999968
 21
-122.0926000000000045
 31
0.0
  0
LINE
  5
C1
100
AcDbEntity
  8
devices
 62
256
370
0
 48
1.0
  6
Continuous
100
AcDbLine
 10
7.9410000000000007
 20
-60.6925999999999988
 30
0.0
 11
428.0409999999999968
 21
-60.6925999999999988
 31
0.0
  0
LINE
  5
C2
100
AcDbEntity
  8
devices
 62
256
370
0
 48
1.0
  6
Continuous
100
AcDbLine
 10
7.9410000000000007
 20
0.7074
 30
0.0
 11
428.0409999999999968
 21
0.7074
 31
0.0
  0
LINE
  5
C3
100
AcDbEntity
  8
devices
 62
256
370
0
 48
1.0
  6
Continuous
100
AcDbLine
 10
7.9410000000000007
 20
62.1074000000000055
 30
0.0
 11
428.0409999999999968
 21
62.1074000000000055
 31
0.0
  0
ENDBLK
  5
C4
100
AcDbEntity
  8
0
100
AcDbBlockEnd
  0
BLOCK
  5
C5
100
AcDbEntity
  8
0
100
AcDbBlockBegin
  2
sink
 70
0
 10
0.0
 20
0.0
 30
0.0
  3
sink
  1

  0
ELLIPSE
  5
C6
100
AcDbEntity
  8
voda
 62
256
370
-1
 48
1.0
  6
BYLAYER
100
AcDbEllipse
 10
0.0
 20
140.0000000000005969
 30
0.0
 11
-160.0
 21
0.0
 31
0.0
 40
0.8750000000000001
 41
3.1415899999999999
 42
6.2831853071795862
  0
ARC
  5
C7
100
AcDbEntity
  8
voda
 62
256
370
-1
 48
1.0
  6
BYLAYER
100
AcDbCircle
 10
0.0
 20
100.0000000000005969
 30
0.0
 40
199.9999999999992895
100
AcDbArc
 50
329.9999999999997726
 51
210.0000000000002842
  0
ARC
  5
C8
100
AcDbEntity
  8
voda
 62
256
370
-1
 48
1.0
  6
BYLAYER
100
AcDbCircle
 10
-126.491106406734886
 20
70.0000000000003979
 30
0.0
 40
50.0
100
AcDbArc
 50
193.3423637970882396
 51
270.0
  0
ARC
  5
C9
100
AcDbEntity
  8
voda
 62
256
370
-1
 48
1.0
  6
BYLAYER
100
AcDbCircle
 10
126.4911064067346871
 20
70.0000000000002984
 30
0.0
 40
50.0
100
AcDbArc
 50
270.0
 51
346.6576362029117604
  0
ARC
  5
CA
100
AcDbEntity
  8
voda
 62
256
370
-1
 48
1.0
  6
BYLAYER
100
AcDbCircle
 10
0.0
 20
100.0000000000005969
 30
0.0
 40
179.9999999999996874
100
AcDbArc
 50
346.6576362029116467
 51
193.3423637970883249
  0
LINE
  5
CB
100
AcDbEntity
  8
voda
 62
256
370
-1
 48
1.0
  6
BYLAYER
100
AcDbLine
 10
126.4911064067346871
 20
20.0000000000006004
 30
0.0
 11
-126.491106406734886
 21
20.0000000000003979
 31
0.0
  0
LINE
  5
CC
100
AcDbEntity
  8
voda
 62
256
370
-1
 48
1.0
  6
BYLAYER
100
AcDbLine
 10
173.2050807568867867
 20
0.0
 30
0.0
 11
-173.2050807568867867
 21
0.0
 31
0.0
  0
LINE
  5
CD
100
AcDbEntity
  8
voda
 62
256
370
-1
 48
1.0
  6
BYLAYER
100
AcDbLine
 10
15.0000000000000995
 20
120.0000000000009948
 30
0.0
 11
15.0000000000000995
 21
50.0000000000006963
 31
0.0
  0
LINE
  5
CE
100
AcDbEntity
  8
voda
 62
256
370
-1
 48
1.0
  6
BYLAYER
100
AcDbLine
 10
-14.9999999999999005
 20
50.0000000000006963
 30
0.0
 11
-14.9999999999999005
 21
120.0000000000009948
 31
0.0
  0
ARC
  5
CF
100
AcDbEntity
  8
voda
 62
256
370
-1
 48
1.0
  6
BYLAYER
100
AcDbCircle
 10
0.0
 20
120.0000000000001137
 30
0.0
 40
15.0000000000000995
100
AcDbArc
 50
0.0
 51
180.0
  0
ARC
  5
D0
100
AcDbEntity
  8
voda
 62
256
370
-1
 48
1.0
  6
BYLAYER
100
AcDbCircle
 10
0.0
 20
49.9999999999999005
 30
0.0
 40
14.9999999999999005
100
AcDbArc
 50
180.0
 51
0.0
  0
ELLIPSE
  5
D1
100
AcDbEntity
  8
voda
 62
256
370
-1
 48
1.0
  6
BYLAYER
100
AcDbEllipse
 10
0.0
 20
139.9999999999997158
 30
0.0
 11
-160.0000000000000853
 21
0.0
 31
0.0
 40
0.3749999999999972
 41
0.0
 42
1.4769084516873812
  0
ELLIPSE
  5
D2
100
AcDbEntity
  8
voda
 62
256
370
-1
 48
1.0
  6
BYLAYER
100
AcDbEllipse
 10
0.0
 20
139.9999999999997158
 30
0.0
 11
160.0000000000000853
 21
0.0
 31
0.0
 40
0.3749999999999972
 41
4.8062768554922055
 42
6.2831853071795862
  0
CIRCLE
  5
D3
100
AcDbEntity
  8
voda
 62
256
370
-1
 48
1.0
  6
BYLAYER
100
AcDbCircle
 10
0.0
 20
170.0
 30
0.0
 40
10.000000000000199
  0
CIRCLE
  5
D4
100
AcDbEntity
  8
voda
 62
256
370
-1
 48
1.0
  6
BYLAYER
100
AcDbCircle
 10
0.0
 20
170.0
 30
0.0
 40
12.0
  0
LINE
  5
D5
100
AcDbEntity
  8
voda
 62
256
370
-1
 48
1.0
  6
BYLAYER
100
AcDbLine
 10
-49.999999999999801
 20
60.0000000000004974
 30
0.0
 11
-59.9999999999997939
 21
49.9999999999999005
 31
0.0
  0
LINE
  5
D6
100
AcDbEntity
  8
voda
 62
256
370
-1
 48
1.0
  6
BYLAYER
100
AcDbLine
 10
-59.9999999999997939
 20
49.9999999999999005
 30
0.0
 11
-49.999999999999801
 21
40.0000000000000995
 31
0.0
  0
LINE
  5
D7
100
AcDbEntity
  8
voda
 62
256
370
-1
 48
1.0
  6
BYLAYER
100
AcDbLine
 10
-49.999999999999801
 20
40.0000000000000995
 30
0.0
 11
-39.999999999999801
 21
49.9999999999999005
 31
0.0
  0
LINE
  5
D8
100
AcDbEntity
  8
voda
 62
256
370
-1
 48
1.0
  6
BYLAYER
100
AcDbLine
 10
-39.999999999999801
 20
49.9999999999999005
 30
0.0
 11
-49.999999999999801
 21
60.0000000000004974
 31
0.0
  0
LINE
  5
D9
100
AcDbEntity
  8
voda
 62
256
370
-1
 48
1.0
  6
BYLAYER
100
AcDbLine
 10
50.0000000000002984
 20
60.0000000000004974
 30
0.0
 11
40.0
 21
50.0000000000006963
 31
0.0
  0
LINE
  5
DA
100
AcDbEntity
  8
voda
 62
256
370
-1
 48
1.0
  6
BYLAYER
100
AcDbLine
 10
40.0
 20
50.0000000000006963
 30
0.0
 11
50.0000000000002984
 21
40.0000000000000995
 31
0.0
  0
LINE
  5
DB
100
AcDbEntity
  8
voda
 62
256
370
-1
 48
1.0
  6
BYLAYER
100
AcDbLine
 10
50.0000000000002984
 20
40.0000000000000995
 30
0.0
 11
60.0000000000004974
 21
50.0000000000006963
 31
0.0
  0
LINE
  5
DC
100
AcDbEntity
  8
voda
 62
256
370
-1
 48
1.0
  6
BYLAYER
100
AcDbLine
 10
60.0000000000004974
 20
50.0000000000006963
 30
0.0
 11
50.0000000000002984
 21
60.0000000000004974
 31
0.0
  0
ENDBLK
  5
DD
100
AcDbEntity
  8
0
100
AcDbBlockEnd
  0
BLOCK
  5
DE
100
AcDbEntity
  8
0
100
AcDbBlockBegin
  2
Elt33
 70
0
 10
0.0
 20
0.0
 30
0.0
  3
Elt33
  1

  0
LINE
  5
DF
100
AcDbEntity
  8
electro
 62
256
370
-1
 48
1.0
  6
Continuous
100
AcDbLine
 10
125.0
 20
125.0
 30
0.0
 11
125.0
 21
275.0
 31
0.0
  0
LINE
  5
E0
100
AcDbEntity
  8
electro
 62
256
370
-1
 48
1.0
  6
Continuous
100
AcDbLine
 10
125.0
 20
125.0
 30
0.0
 11
250.0
 21
125.0
 31
0.0
  0
LINE
  5
E1
100
AcDbEntity
  8
electro
 62
256
370
-1
 48
1.0
  6
Continuous
100
AcDbLine
 10
125.0
 20
125.0
 30
0.0
 11
0.0
 21
125.0
 31
0.0
  0
ARC
  5
E2
100
AcDbEntity
  8
electro
 62
256
370
-1
 48
1.0
  6
Continuous
100
AcDbCircle
 10
125.0
 20
0.0
 30
0.0
 40
125.0
100
AcDbArc
 50
0.0
 51
180.0
  0
ENDBLK
  5
E3
100
AcDbEntity
  8
0
100
AcDbBlockEnd
  0
BLOCK
  5
E4
100
AcDbEntity
  8
0
100
AcDbBlockBegin
  2
switch-03
 70
0
 10
0.0
 20
0.0
 30
0.0
  3
switch-03
  1

  0
LINE
  5
E5
100
AcDbEntity
  8
SYMBOLS
 62
256
370
-1
 48
1.0
  6
BYLAYER
100
AcDbLine
 10
-5.0
 20
-5.0
 30
0.0
 11
-5.0
 21
0.0
 31
0.0
  0
LINE
  5
E6
100
AcDbEntity
  8
SYMBOLS
 62
256
370
-1
 48
1.0
  6
BYLAYER
100
AcDbLine
 10
-2.5
 20
-5.0
 30
0.0
 11
-5.0
 21
-5.0
 31
0.0
  0
LINE
  5
E7
100
AcDbEntity
  8
SYMBOLS
 62
256
370
-1
 48
1.0
  6
BYLAYER
100
AcDbLine
 10
0.0
 20
-10.0
 30
0.0
 11
-3.75
 21
-3.75
 31
0.0
  0
LINE
  5
E8
100
AcDbEntity
  8
SYMBOLS
 62
256
370
-1
 48
1.0
  6
BYLAYER
100
AcDbLine
 10
0.0
 20
-10.0
 30
0.0
 11
0.0
 21
-15.0
 31
0.0
  0
LINE
  5
E9
100
AcDbEntity
  8
SYMBOLS
 62
256
370
-1
 48
1.0
  6
BYLAYER
100
AcDbLine
 10
0.0
 20
0.0
 30
0.0
 11
0.0
 21
-5.0
 31
0.0
  0
ENDBLK
  5
EA
100
AcDbEntity
  8
0
100
AcDbBlockEnd
  0
BLOCK
  5
EB
100
AcDbEntity
  8
0
100
AcDbBlockBegin
  2
toilet
 70
0
 10
0.0
 20
0.0
 30
0.0
  3
toilet
  1

  0
LINE
  5
EC
100
AcDbEntity
  8
voda
 62
256
370
-1
 48
1.0
  6
BYLAYER
100
AcDbLine
 10
0.0
 20
0.0
 30
0.0
 11
280.0000000000001705
 21
0.0
 31
0.0
  0
ELLIPSE
  5
ED
100
AcDbEntity
  8
voda
 62
256
370
-1
 48
1.0
  6
BYLAYER
100
AcDbEllipse
 10
140.0000000000000853
 20
299.9999999999998295
 30
0.0
 11
0.0
 21
200.000000000000199
 31
0.0
 40
0.7499999999999994
 41
4.0688878715914054
 42
2.2142974355881808
  0
LINE
  5
EE
100
AcDbEntity
  8
voda
 62
256
370
-1
 48
1.0
  6
BYLAYER
100
AcDbLine
 10
0.0
 20
99.9999999999996021
 30
0.0
 11
280.0000000000001705
 21
99.9999999999996021
 31
0.0
  0
LINE
  5
EF
100
AcDbEntity
  8
voda
 62
256
370
-1
 48
1.0
  6
BYLAYER
100
AcDbLine
 10
20.0
 20
99.9999999999996021
 30
0.0
 11
20.0
 21
179.9999999999996874
 31
0.0
  0
LINE
  5
F0
100
AcDbEntity
  8
voda
 62
256
370
-1
 48
1.0
  6
BYLAYER
100
AcDbLine
 10
260.0000000000001705
 20
99.9999999999996021
 30
0.0
 11
260.0000000000001705
 21
179.9999999999996874
 31
0.0
  0
LINE
  5
F1
100
AcDbEntity
  8
voda
 62
256
370
-1
 48
1.0
  6
BYLAYER
100
AcDbLine
 10
280.0000000000000568
 20
0.0
 30
0.0
 11
280.0000000000001705
 21
99.9999999999996021
 31
0.0
  0
LINE
  5
F2
100
AcDbEntity
  8
voda
 62
256
370
-1
 48
1.0
  6
BYLAYER
100
AcDbLine
 10
0.0000000000002
 20
0.0
 30
0.0
 11
0.0
 21
99.9999999999996021
 31
0.0
  0
ELLIPSE
  5
F3
100
AcDbEntity
  8
voda
 62
256
370
-1
 48
1.0
  6
BYLAYER
100
AcDbEllipse
 10
140.0000000000000853
 20
299.9999999999998295
 30
0.0
 11
0.0000000000001
 21
149.9999999999994884
 31
0.0
 40
0.6666666666666704
 41
0.0
 42
6.2831853071795862
  0
ENDBLK
  5
F4
100
AcDbEntity
  8
0
100
AcDbBlockEnd
  0
BLOCK
  5
F5
100
AcDbEntity
  8
0
100
AcDbBlockBegin
  2
sh80_cw
 70
0
 10
0.0
 20
0.0
 30
0.0
  3
sh80_cw
  1

  0
LINE
  5
F6
100
AcDbEntity
  8
voda
 62
256
370
0
 48
1.0
  6
Continuous
100
AcDbLine
 10
81.000031000000007
 20
0.9999999999999805
 30
0.0
 11
1.0
 21
1.0
 31
0.0
  0
LINE
  5
F7
100
AcDbEntity
  8
voda
 62
256
370
0
 48
1.0
  6
Continuous
100
AcDbLine
 10
1.0
 20
1.0
 30
0.0
 11
1.0000000000000244
 21
80.9999389999999977
 31
0.0
  0
LINE
  5
F8
100
AcDbEntity
  8
voda
 62
256
370
0
 48
1.0
  6
Continuous
100
AcDbLine
 10
1.0000000000000244
 20
80.9999389999999977
 30
0.0
 11
81.0000310000000354
 21
80.9999389999999693
 31
0.0
  0
LINE
  5
F9
100
AcDbEntity
  8
voda
 62
256
370
0
 48
1.0
  6
Continuous
100
AcDbLine
 10
81.0000310000000354
 20
80.9999389999999693
 30
0.0
 11
81.000031000000007
 21
0.9999999999999805
 31
0.0
  0
LINE
  5
FA
100
AcDbEntity
  8
voda
 62
256
370
0
 48
1.0
  6
Continuous
100
AcDbLine
 10
9.5355840000000089
 20
75.9999390000000119
 30
0.0
 11
72.4644780000000424
 21
75.9999389999999551
 31
0.0
  0
LINE
  5
FB
100
AcDbEntity
  8
voda
 62
256
370
0
 48
1.0
  6
Continuous
100
AcDbLine
 10
76.000031000000007
 20
72.4644169999999974
 30
0.0
 11
76.000031000000007
 21
9.5355229999999374
 31
0.0
  0
LINE
  5
FC
100
AcDbEntity
  8
voda
 62
256
370
0
 48
1.0
  6
Continuous
100
AcDbLine
 10
72.4644779999999997
 20
6.0000000000000382
 30
0.0
 11
9.5355840000000036
 21
5.9999999999999947
 31
0.0
  0
LINE
  5
FD
100
AcDbEntity
  8
voda
 62
256
370
0
 48
1.0
  6
Continuous
100
AcDbLine
 10
6.0000000000000053
 20
9.535522999999996
 30
0.0
 11
5.9999999999999902
 21
72.4644169999999974
 31
0.0
  0
CIRCLE
  5
FE
100
AcDbEntity
  8
voda
 62
256
370
0
 48
1.0
  6
Continuous
100
AcDbCircle
 10
15.9999389999999959
 20
15.9998780000000043
 30
0.0
 40
3.5
  0
LINE
  5
FF
100
AcDbEntity
  8
voda
 62
256
370
0
 48
1.0
  6
Continuous
100
AcDbLine
 10
76.000031000000007
 20
72.4644169999999974
 30
0.0
 11
72.4644780000000424
 21
75.9999389999999551
 31
0.0
  0
LINE
  5
100
100
AcDbEntity
  8
voda
 62
256
370
0
 48
1.0
  6
Continuous
100
AcDbLine
 10
72.4644779999999997
 20
6.0000000000000382
 30
0.0
 11
76.000031000000007
 21
9.5355229999999374
 31
0.0
  0
LINE
  5
101
100
AcDbEntity
  8
voda
 62
256
370
0
 48
1.0
  6
Continuous
100
AcDbLine
 10
5.9999999999999902
 20
72.4644169999999974
 30
0.0
 11
9.5355840000000089
 21
75.9999390000000119
 31
0.0
  0
LINE
  5
102
100
AcDbEntity
  8
voda
 62
256
370
0
 48
1.0
  6
Continuous
100
AcDbLine
 10
9.5355840000000036
 20
5.9999999999999947
 30
0.0
 11
6.0000000000000053
 21
9.535522999999996
 31
0.0
  0
ENDBLK
  5
103
100
AcDbEntity
  8
0
100
AcDbBlockEnd
  0
BLOCK
  5
104
100
AcDbEntity
  8
0
100
AcDbBlockBegin
  2
washing-machine
 70
0
 10
0.0
 20
0.0
 30
0.0
  3
washing-machine
  1

  0
ARC
  5
105
100
AcDbEntity
  8
devices
 62
256
370
-1
 48
1.0
  6
BYLAYER
100
AcDbCircle
 10
4.0118351183523577
 20
-2.6959408110618237
 30
0.0
 40
1.3306737392594861
100
AcDbArc
 50
270.2106672424916383
 51
0.456260226781366
  0
ARC
  5
106
100
AcDbEntity
  8
devices
 62
256
370
-1
 48
1.0
  6
BYLAYER
100
AcDbCircle
 10
4.0173459018194695
 20
-2.6801502451799357
 30
0.0
 40
1.3251309449013766
100
AcDbArc
 50
359.7754135475787507
 51
90.0267263399328073
  0
ARC
  5
107
100
AcDbEntity
  8
devices
 62
256
370
-1
 48
1.0
  6
BYLAYER
100
AcDbCircle
 10
4.0185591562486076
 20
-2.6875291331161142
 30
0.0
 40
1.3325109471786603
100
AcDbArc
 50
90.0787462874703948
 51
179.9060619375879355
  0
ARC
  5
108
100
AcDbEntity
  8
devices
 62
256
370
-1
 48
1.0
  6
BYLAYER
100
AcDbCircle
 10
4.0238506781481851
 20
-2.6888193269105547
 30
0.0
 40
1.3378051910730129
100
AcDbArc
 50
179.8511768942034621
 51
269.6949376037087518
  0
ARC
  5
109
100
AcDbEntity
  8
devices
 62
256
370
-1
 48
1.0
  6
BYLAYER
100
AcDbCircle
 10
7.9183616305941893
 20
-2.6884447160781519
 30
0.0
 40
1.3381780718540168
100
AcDbArc
 50
270.2907727679092318
 51
0.1327421533821261
  0
ARC
  5
10A
100
AcDbEntity
  8
devices
 62
256
370
-1
 48
1.0
  6
BYLAYER
100
AcDbCircle
 10
7.9236499821867135
 20
-2.6879071898861531
 30
0.0
 40
1.3328885926225305
100
AcDbArc
 50
0.1101626865538674
 51
89.9354005551867886
  0
ARC
  5
10B
100
AcDbEntity
  8
devices
 62
256
370
-1
 48
1.0
  6
BYLAYER
100
AcDbCircle
 10
7.9313933106707513
 20
-2.6866320881201617
 30
0.0
 40
1.3316272665606617
100
AcDbArc
 50
90.2685117032859381
 51
179.9445966889604733
  0
ARC
  5
10C
100
AcDbEntity
  8
devices
 62
256
370
-1
 48
1.0
  6
BYLAYER
100
AcDbCircle
 10
7.936945464034312
 20
-2.6894723876938378
 30
0.0
 40
1.3371851689444723
100
AcDbArc
 50
179.8231253924980706
 51
269.4946998171566861
  0
ARC
  5
10D
100
AcDbEntity
  8
devices
 62
256
370
-1
 48
1.0
  6
BYLAYER
100
AcDbCircle
 10
25.5769136477391612
 20
-1.2137378298754669
 30
0.0
 40
1.2137471561705295
100
AcDbArc
 50
0.2417487918956129
 51
90.2246096293843891
  0
LWPOLYLINE
  5
10E
100
AcDbEntity
  8
devices
 62
256
370
-1
 48
1.0
  6
BYLAYER
100
AcDbPolyline
 90
4
 70
128
 10
26.7906499999999959
 20
-1.2086166666666667
 10
26.7906499999999959
 20
-5.3523444444444443
 10
0.0631472222222222
 20
-5.3523444444444443
 10
0.0631472222222222
 20
-1.2184944444444443
  0
ARC
  5
10F
100
AcDbEntity
  8
devices
 62
256
370
-1
 48
1.0
  6
BYLAYER
100
AcDbCircle
 10
1.2790838477965409
 20
-1.2208578506165606
 30
0.0
 40
1.2159389224388679
100
AcDbArc
 50
90.3282995969988178
 51
179.8886347976021511
  0
LWPOLYLINE
  5
110
100
AcDbEntity
  8
devices
 62
256
370
-1
 48
1.0
  6
BYLAYER
100
AcDbPolyline
 90
2
 70
128
 10
1.2721166666666666
 20
-0.004938888888889
 10
25.572155555555554
 20
0.0
  0
ARC
  5
111
100
AcDbEntity
  8
devices
 62
256
370
-1
 48
1.0
  6
BYLAYER
100
AcDbCircle
 10
13.2239963315596682
 20
-20.560363355151452
 30
0.0
 40
8.6041295992699975
100
AcDbArc
 50
269.9686526559509048
 51
0.0266513535951564
  0
ARC
  5
112
100
AcDbEntity
  8
devices
 62
256
370
-1
 48
1.0
  6
BYLAYER
100
AcDbCircle
 10
13.2212136052987574
 20
-20.5547891008321244
 30
0.0
 40
8.6069115382612331
100
AcDbArc
 50
359.9895352061644189
 51
90.0128127409552121
  0
ARC
  5
113
100
AcDbEntity
  8
devices
 62
256
370
-1
 48
1.0
  6
BYLAYER
100
AcDbCircle
 10
13.221526882384568
 20
-20.5536603485067459
 30
0.0
 40
8.6057828617318322
100
AcDbArc
 50
90.0149001648526053
 51
180.0179811998310697
  0
ARC
  5
114
100
AcDbEntity
  8
devices
 62
256
370
-1
 48
1.0
  6
BYLAYER
100
AcDbCircle
 10
13.2189678887736939
 20
-20.5612668296599317
 30
0.0
 40
8.6032248429952496
100
AcDbArc
 50
179.9673288808815528
 51
270.0021377974148322
  0
LWPOLYLINE
  5
115
100
AcDbEntity
  8
devices
 62
256
370
-1
 48
1.0
  6
BYLAYER
100
AcDbPolyline
 90
2
 70
128
 10
0.0
 20
-35.2678999999999974
 10
0.0
 20
-8.4377388888888873
  0
ARC
  5
116
100
AcDbEntity
  8
devices
 62
256
370
-1
 48
1.0
  6
BYLAYER
100
AcDbCircle
 10
1.2087498059838175
 20
-8.4371664726504836
 30
0.0
 40
1.2087499415206888
100
AcDbArc
 50
89.9728669804360663
 51
180.0271330195636494
  0
LWPOLYLINE
  5
117
100
AcDbEntity
  8
devices
 62
256
370
-1
 48
1.0
  6
BYLAYER
100
AcDbPolyline
 90
2
 70
128
 10
1.2093222222222222
 20
-7.2284166666666652
 10
25.5135944444444434
 20
-7.2284166666666652
  0
ARC
  5
118
100
AcDbEntity
  8
devices
 62
256
370
-1
 48
1.0
  6
BYLAYER
100
AcDbCircle
 10
25.51348959027289
 20
-8.4378437430604389
 30
0.0
 40
1.2094270809390646
100
AcDbArc
 50
0.0049673946298188
 51
89.9950326054405849
  0
LWPOLYLINE
  5
119
100
AcDbEntity
  8
devices
 62
256
370
-1
 48
1.0
  6
BYLAYER
100
AcDbPolyline
 90
3
 70
128
 10
26.7229166666666629
 20
-8.4377388888888873
 10
26.7229166666666629
 20
-35.2777777777777715
 10
0.0
 20
-35.2678999999999974
  0
ARC
  5
11A
100
AcDbEntity
  8
devices
 62
256
370
-1
 48
1.0
  6
BYLAYER
100
AcDbCircle
 10
13.1356132275194781
 20
-20.3373434398318942
 30
0.0
 40
7.3325535861843365
100
AcDbArc
 50
0.0114742298484774
 51
15.6647273892987506
  0
ARC
  5
11B
100
AcDbEntity
  8
devices
 62
256
370
-1
 48
1.0
  6
BYLAYER
100
AcDbCircle
 10
13.2310206671662272
 20
-20.3236078292413254
 30
0.0
 40
7.2371563960967276
100
AcDbArc
 50
269.9825291762880397
 51
359.9028820977256373
  0
ARC
  5
11C
100
AcDbEntity
  8
devices
 62
256
370
-1
 48
1.0
  6
BYLAYER
100
AcDbCircle
 10
13.2249469277040781
 20
-20.3309218541902723
 30
0.0
 40
7.2298430688420803
100
AcDbArc
 50
180.039253185670816
 51
270.0306452801097521
  0
ARC
  5
11D
100
AcDbEntity
  8
devices
 62
256
370
-1
 48
1.0
  6
BYLAYER
100
AcDbCircle
 10
13.4636656409555755
 20
-20.3421603479022721
 30
0.0
 40
7.4685627301930522
100
AcDbArc
 50
163.38422487361035
 51
179.9517813583258601
  0
LWPOLYLINE
  5
11E
100
AcDbEntity
  8
devices
 62
256
370
-1
 48
1.0
  6
BYLAYER
100
AcDbPolyline
 90
2
 70
128
 10
6.306961111111109
 20
-18.2065083333333284
 10
6.306961111111109
 20
-18.220972222222219
  0
ARC
  5
11F
100
AcDbEntity
  8
devices
 62
256
370
-1
 48
1.0
  6
BYLAYER
100
AcDbCircle
 10
8.1611277698836009
 20
-16.5169130109069933
 30
0.0
 40
2.5182835015485865
100
AcDbArc
 50
222.5843504711773448
 51
270.1853654342025379
  0
ARC
  5
120
100
AcDbEntity
  8
devices
 62
256
370
-1
 48
1.0
  6
BYLAYER
100
AcDbCircle
 10
8.189536557162274
 20
-16.5609012254581778
 30
0.0
 40
2.4743650660421435
100
AcDbArc
 50
269.5308231991558046
 51
311.7511621691017467
  0
LWPOLYLINE
  5
121
100
AcDbEntity
  8
devices
 62
256
370
-1
 48
1.0
  6
BYLAYER
100
AcDbPolyline
 90
2
 70
128
 10
9.8372083333333311
 20
-18.4068861111111062
 10
9.8273305555555552
 20
-18.4068861111111062
  0
ARC
  5
122
100
AcDbEntity
  8
devices
 62
256
370
-1
 48
1.0
  6
BYLAYER
100
AcDbCircle
 10
11.4900091514789882
 20
-16.5211906526949051
 30
0.0
 40
2.5140301261586746
100
AcDbArc
 50
228.5963344130526309
 51
270.3127179892159688
  0
ARC
  5
123
100
AcDbEntity
  8
devices
 62
256
370
-1
 48
1.0
  6
BYLAYER
100
AcDbCircle
 10
11.5234210957249026
 20
-16.5756066498484707
 30
0.0
 40
2.4596555001289375
100
AcDbArc
 50
269.5413191406011606
 51
313.5771181076526091
  0
LWPOLYLINE
  5
124
100
AcDbEntity
  8
devices
 62
256
370
-1
 48
1.0
  6
BYLAYER
100
AcDbPolyline
 90
2
 70
128
 10
13.2189361111111108
 20
-18.3574972222222179
 10
13.2189361111111108
 20
-18.3673749999999956
  0
ARC
  5
125
100
AcDbEntity
  8
devices
 62
256
370
-1
 48
1.0
  6
BYLAYER
100
AcDbCircle
 10
14.9179844313416297
 20
-16.5402741069647057
 30
0.0
 40
2.4950075887276366
100
AcDbArc
 50
227.0797898279753326
 51
270.5087654249073239
  0
ARC
  5
126
100
AcDbEntity
  8
devices
 62
256
370
-1
 48
1.0
  6
BYLAYER
100
AcDbCircle
 10
14.9562174258919285
 20
-16.5554576598897221
 30
0.0
 40
2.4797777994988786
100
AcDbArc
 50
269.6284994703289044
 51
314.5174597605884514
  0
LWPOLYLINE
  5
127
100
AcDbEntity
  8
devices
 62
256
370
-1
 48
1.0
  6
BYLAYER
100
AcDbPolyline
 90
2
 70
128
 10
16.6948555555555522
 20
-18.3236305555555496
 10
16.6948555555555522
 20
-18.332802777777772
  0
ARC
  5
128
100
AcDbEntity
  8
devices
 62
256
370
-1
 48
1.0
  6
BYLAYER
100
AcDbCircle
 10
18.4271730466191848
 20
-16.5468712663431816
 30
0.0
 40
2.4880665693224588
100
AcDbArc
 50
225.8730534241693704
 51
270.5320688060958219
  0
ARC
  5
129
100
AcDbEntity
  8
devices
 62
256
370
-1
 48
1.0
  6
BYLAYER
100
AcDbCircle
 10
18.4525265473849061
 20
-16.5059360821228118
 30
0.0
 40
2.5288954732695834
100
AcDbArc
 50
269.9490508698646636
 51
313.2596110533829687
  0
LWPOLYLINE
  5
12A
100
AcDbEntity
  8
devices
 62
256
370
-1
 48
1.0
  6
BYLAYER
100
AcDbPolyline
 90
2
 70
128
 10
20.1855916666666637
 20
-18.3476194444444403
 10
20.195822222222219
 20
-18.3574972222222215
  0
ENDBLK
  5
12B
100
AcDbEntity
  8
0
100
AcDbBlockEnd
  0
BLOCK
  5
12C
100
AcDbEntity
  8
0
100
AcDbBlockBegin
  2
Bath plan
 70
0
 10
0.0
 20
0.0
 30
0.0
  3
Bath plan
  1

  0
LINE
  5
12D
100
AcDbEntity
  8
0
 62
256
370
-1
 48
1.0
  6
BYLAYER
100
AcDbLine
 10
1203.2687664032000612
 20
-392.5
 30
0.0
 11
1203.2687664032000612
 21
-332.5
 31
0.0
  0
LINE
  5
12E
100
AcDbEntity
  8
0
 62
256
370
-1
 48
1.0
  6
BYLAYER
100
AcDbLine
 10
1173.2687664032000612
 20
-362.5
 30
0.0
 11
1233.2687664032000612
 21
-362.5
 31
0.0
  0
LINE
  5
12F
100
AcDbEntity
  8
0
 62
256
370
-1
 48
1.0
  6
BYLAYER
100
AcDbLine
 10
1125.0
 20
-75.0
 30
0.0
 11
2337.5
 21
-75.0
 31
0.0
  0
ARC
  5
130
100
AcDbEntity
  8
0
 62
256
370
-1
 48
1.0
  6
BYLAYER
100
AcDbCircle
 10
1125.0
 20
-125.0
 30
0.0
 40
50.0
100
AcDbArc
 50
90.0
 51
180.0
  0
LINE
  5
131
100
AcDbEntity
  8
0
 62
256
370
-1
 48
1.0
  6
BYLAYER
100
AcDbLine
 10
1075.0
 20
-600.0
 30
0.0
 11
1075.0
 21
-125.0
 31
0.0
  0
LINE
  5
132
100
AcDbEntity
  8
0
 62
256
370
-1
 48
1.0
  6
BYLAYER
100
AcDbLine
 10
2337.5
 20
-650.0
 30
0.0
 11
1125.0
 21
-650.0
 31
0.0
  0
ARC
  5
133
100
AcDbEntity
  8
0
 62
256
370
-1
 48
1.0
  6
BYLAYER
100
AcDbCircle
 10
1125.0
 20
-600.0
 30
0.0
 40
50.0
100
AcDbArc
 50
180.0
 51
270.0
  0
LINE
  5
134
100
AcDbEntity
  8
0
 62
256
370
-1
 48
1.0
  6
BYLAYER
100
AcDbLine
 10
1000.0
 20
0.0
 30
0.0
 11
2700.0
 21
0.0
 31
0.0
  0
LINE
  5
135
100
AcDbEntity
  8
0
 62
256
370
-1
 48
1.0
  6
BYLAYER
100
AcDbLine
 10
2700.0
 20
0.0
 30
0.0
 11
2700.0
 21
-725.0
 31
0.0
  0
LINE
  5
136
100
AcDbEntity
  8
0
 62
256
370
-1
 48
1.0
  6
BYLAYER
100
AcDbLine
 10
2700.0
 20
-725.0
 30
0.0
 11
1000.0
 21
-725.0
 31
0.0
  0
LINE
  5
137
100
AcDbEntity
  8
0
 62
256
370
-1
 48
1.0
  6
BYLAYER
100
AcDbLine
 10
1000.0
 20
-725.0
 30
0.0
 11
1000.0
 21
0.0
 31
0.0
  0
ARC
  5
138
100
AcDbEntity
  8
0
 62
256
370
-1
 48
1.0
  6
BYLAYER
100
AcDbCircle
 10
2337.5
 20
-362.5
 30
0.0
 40
287.5
100
AcDbArc
 50
0.0
 51
90.0
  0
LINE
  5
139
100
AcDbEntity
  8
0
 62
256
370
-1
 48
1.0
  6
BYLAYER
100
AcDbLine
 10
2625.0
 20
-362.5
 30
0.0
 11
2625.0
 21
-362.5
 31
0.0
  0
ARC
  5
13A
100
AcDbEntity
  8
0
 62
256
370
-1
 48
1.0
  6
BYLAYER
100
AcDbCircle
 10
2337.5
 20
-362.5
 30
0.0
 40
287.5
100
AcDbArc
 50
270.0
 51
0.0
  0
CIRCLE
  5
13B
100
AcDbEntity
  8
0
 62
256
370
-1
 48
1.0
  6
BYLAYER
100
AcDbCircle
 10
1203.2687664032000612
 20
-362.5
 30
0.0
 40
15.0
  0
ENDBLK
  5
13C
100
AcDbEntity
  8
0
100
AcDbBlockEnd
  0
BLOCK
  5
13D
100
AcDbEntity
  8
0
100
AcDbBlockBegin
  2
Elt(29)
 70
0
 10
0.0
 20
0.0
 30
0.0
  3
Elt(29)
  1

  0
LINE
  5
13E
100
AcDbEntity
  8
electro
 62
256
370
-1
 48
1.0
  6
Continuous
100
AcDbLine
 10
100.0
 20
100.0
 30
0.0
 11
101.1999969000000021
 21
100.0
 31
0.0
  0
LINE
  5
13F
100
AcDbEntity
  8
electro
 62
256
370
-1
 48
1.0
  6
Continuous
100
AcDbLine
 10
100.0
 20
100.0
 30
0.0
 11
98.8000030999999979
 21
100.0
 31
0.0
  0
LINE
  5
140
100
AcDbEntity
  8
electro
 62
256
370
-1
 48
1.0
  6
Continuous
100
AcDbLine
 10
100.0
 20
100.0
 30
0.0
 11
100.0
 21
101.1999969000000021
 31
0.0
  0
LINE
  5
141
100
AcDbEntity
  8
electro
 62
256
370
-1
 48
1.0
  6
Continuous
100
AcDbLine
 10
100.0
 20
100.0
 30
0.0
 11
100.0
 21
98.8000030999999979
 31
0.0
  0
LINE
  5
142
100
AcDbEntity
  8
electro
 62
256
370
-1
 48
1.0
  6
Continuous
100
AcDbLine
 10
125.0
 20
143.3000030999999979
 30
0.0
 11
250.0
 21
359.7999877999999967
 31
0.0
  0
LINE
  5
143
100
AcDbEntity
  8
electro
 62
256
370
-1
 48
1.0
  6
Continuous
100
AcDbLine
 10
250.0
 20
359.7999877999999967
 30
0.0
 11
315.0
 21
322.2999877999999967
 31
0.0
  0
CIRCLE
  5
144
100
AcDbEntity
  8
electro
 62
256
370
-1
 48
1.0
  6
Continuous
100
AcDbCircle
 10
100.0
 20
100.0
 30
0.0
 40
49.998902600000001
  0
ENDBLK
  5
145
100
AcDbEntity
  8
0
100
AcDbBlockEnd
  0
BLOCK
  5
146
100
AcDbEntity
  8
0
100
AcDbBlockBegin
  2
ARCHIT178
 70
0
 10
0.0
 20
0.0
 30
0.0
  3
ARCHIT178
  1

  0
LINE
  5
147
100
AcDbEntity
  8
electro
 62
256
370
-1
 48
1.0
  6
Continuous
100
AcDbLine
 10
0.0
 20
0.0
 30
0.0
 11
7.7000000000000002
 21
0.0
 31
0.0
  0
LINE
  5
148
100
AcDbEntity
  8
electro
 62
256
370
-1
 48
1.0
  6
Continuous
100
AcDbLine
 10
7.7000000000000002
 20
0.0
 30
0.0
 11
7.7000000000000002
 21
3.2000000000000002
 31
0.0
  0
LINE
  5
149
100
AcDbEntity
  8
electro
 62
256
370
-1
 48
1.0
  6
Continuous
100
AcDbLine
 10
7.7000000000000002
 20
4.7999999999999998
 30
0.0
 11
0.0
 21
4.7999999999999998
 31
0.0
  0
LINE
  5
14A
100
AcDbEntity
  8
electro
 62
256
370
-1
 48
1.0
  6
Continuous
100
AcDbLine
 10
0.0
 20
3.2000000000000002
 30
0.0
 11
0.0
 21
0.0
 31
0.0
  0
LINE
  5
14B
100
AcDbEntity
  8
electro
 62
256
370
-1
 48
1.0
  6
Continuous
100
AcDbLine
 10
7.7000000000000002
 20
3.2000000000000002
 30
0.0
 11
0.0
 21
3.2000000000000002
 31
0.0
  0
LINE
  5
14C
100
AcDbEntity
  8
electro
 62
256
370
-1
 48
1.0
  6
Continuous
100
AcDbLine
 10
1.2
 20
4.7999999999999998
 30
0.0
 11
1.2
 21
3.2000000000000002
 31
0.0
  0
LINE
  5
14D
100
AcDbEntity
  8
electro
 62
256
370
-1
 48
1.0
  6
Continuous
100
AcDbLine
 10
6.5
 20
3.2000000000000002
 30
0.0
 11
6.5
 21
4.7999999999999998
 31
0.0
  0
ENDBLK
  5
14E
100
AcDbEntity
  8
0
100
AcDbBlockEnd
  0
BLOCK
  5
14F
100
AcDbEntity
  8
0
100
AcDbBlockBegin
  2
EL860
 70
0
 10
0.0
 20
0.0
 30
0.0
  3
EL860
  1

  0
POINT
  5
150
100
AcDbEntity
  8
voda
 62
5
420
255
370
0
 48
1.0
  6
Continuous
100
AcDbPoint
 10
0.0
 20
0.0
 30
0.0
  0
ARC
  5
151
100
AcDbEntity
  8
voda
 62
5
420
255
370
0
 48
1.0
  6
Continuous
100
AcDbCircle
 10
-405.0
 20
192.5
 30
0.0
 40
25.0
100
AcDbArc
 50
90.0
 51
180.0
  0
LINE
  5
152
100
AcDbEntity
  8
voda
 62
5
420
255
370
0
 48
1.0
  6
Continuous
100
AcDbLine
 10
-430.0
 20
192.5
 30
0.0
 11
-430.0
 21
-192.5
 31
0.0
  0
ARC
  5
153
100
AcDbEntity
  8
voda
 62
5
420
255
370
0
 48
1.0
  6
Continuous
100
AcDbCircle
 10
-405.0
 20
-192.5
 30
0.0
 40
25.0
100
AcDbArc
 50
180.0
 51
270.0
  0
LINE
  5
154
100
AcDbEntity
  8
voda
 62
5
420
255
370
0
 48
1.0
  6
Continuous
100
AcDbLine
 10
-405.0
 20
-217.5
 30
0.0
 11
405.0
 21
-217.5
 31
0.0
  0
ARC
  5
155
100
AcDbEntity
  8
voda
 62
5
420
255
370
0
 48
1.0
  6
Continuous
100
AcDbCircle
 10
405.0
 20
-192.5
 30
0.0
 40
25.0
100
AcDbArc
 50
270.0
 51
0.0
  0
LINE
  5
156
100
AcDbEntity
  8
voda
 62
5
420
255
370
0
 48
1.0
  6
Continuous
100
AcDbLine
 10
405.0
 20
217.5
 30
0.0
 11
-405.0
 21
217.5
 31
0.0
  0
LINE
  5
157
100
AcDbEntity
  8
voda
 62
5
420
255
370
0
 48
1.0
  6
Continuous
100
AcDbLine
 10
430.0
 20
-192.5
 30
0.0
 11
430.0
 21
192.5
 31
0.0
  0
ARC
  5
158
100
AcDbEntity
  8
voda
 62
5
420
255
370
0
 48
1.0
  6
Continuous
100
AcDbCircle
 10
405.0
 20
192.5
 30
0.0
 40
25.0
100
AcDbArc
 50
0.0
 51
90.0
  0
ARC
  5
159
100
AcDbEntity
  8
voda
 62
5
420
255
370
0
 48
1.0
  6
Continuous
100
AcDbCircle
 10
318.0
 20
105.5
 30
0.0
 40
70.0
100
AcDbArc
 50
0.0
 51
90.0
  0
LINE
  5
15A
100
AcDbEntity
  8
voda
 62
5
420
255
370
0
 48
1.0
  6
Continuous
100
AcDbLine
 10
388.0
 20
105.5
 30
0.0
 11
388.0
 21
-105.5
 31
0.0
  0
ARC
  5
15B
100
AcDbEntity
  8
voda
 62
5
420
255
370
0
 48
1.0
  6
Continuous
100
AcDbCircle
 10
318.0
 20
-105.5
 30
0.0
 40
70.0
100
AcDbArc
 50
270.0
 51
0.0
  0
LINE
  5
15C
100
AcDbEntity
  8
voda
 62
5
420
255
370
0
 48
1.0
  6
Continuous
100
AcDbLine
 10
318.0
 20
-175.5
 30
0.0
 11
82.0
 21
-175.5
 31
0.0
  0
ARC
  5
15D
100
AcDbEntity
  8
voda
 62
5
420
255
370
0
 48
1.0
  6
Continuous
100
AcDbCircle
 10
82.0
 20
-105.5
 30
0.0
 40
70.0
100
AcDbArc
 50
180.0
 51
270.0
  0
LINE
  5
15E
100
AcDbEntity
  8
voda
 62
5
420
255
370
0
 48
1.0
  6
Continuous
100
AcDbLine
 10
12.0
 20
-105.5
 30
0.0
 11
12.0
 21
105.5
 31
0.0
  0
LINE
  5
15F
100
AcDbEntity
  8
voda
 62
5
420
255
370
0
 48
1.0
  6
Continuous
100
AcDbLine
 10
82.0
 20
175.5
 30
0.0
 11
318.0
 21
175.5
 31
0.0
  0
ARC
  5
160
100
AcDbEntity
  8
voda
 62
5
420
255
370
0
 48
1.0
  6
Continuous
100
AcDbCircle
 10
82.0
 20
105.5
 30
0.0
 40
70.0
100
AcDbArc
 50
90.0
 51
180.0
  0
LINE
  5
161
100
AcDbEntity
  8
voda
 62
5
420
255
370
0
 48
1.0
  6
DOT
100
AcDbLine
 10
-388.0
 20
105.5
 30
0.0
 11
-388.0
 21
-105.5
 31
0.0
  0
LINE
  5
162
100
AcDbEntity
  8
voda
 62
5
420
255
370
0
 48
1.0
  6
DOT
100
AcDbLine
 10
-318.0
 20
-175.5
 30
0.0
 11
-82.0
 21
-175.5
 31
0.0
  0
LINE
  5
163
100
AcDbEntity
  8
voda
 62
5
420
255
370
0
 48
1.0
  6
DOT
100
AcDbLine
 10
-12.0
 20
-105.5
 30
0.0
 11
-12.0
 21
105.5
 31
0.0
  0
LINE
  5
164
100
AcDbEntity
  8
voda
 62
5
420
255
370
0
 48
1.0
  6
DOT
100
AcDbLine
 10
-82.0
 20
175.5
 30
0.0
 11
-318.0
 21
175.5
 31
0.0
  0
LINE
  5
165
100
AcDbEntity
  8
voda
 62
5
420
255
370
0
 48
1.0
  6
DOT
100
AcDbLine
 10
-60.0
 20
0.0
 30
0.0
 11
-360.0
 21
0.0
 31
0.0
  0
LINE
  5
166
100
AcDbEntity
  8
voda
 62
5
420
255
370
0
 48
1.0
  6
DOT
100
AcDbLine
 10
-60.0
 20
35.0
 30
0.0
 11
-360.0
 21
35.0
 31
0.0
  0
LINE
  5
167
100
AcDbEntity
  8
voda
 62
5
420
255
370
0
 48
1.0
  6
DOT
100
AcDbLine
 10
-60.0
 20
70.0
 30
0.0
 11
-360.0
 21
70.0
 31
0.0
  0
LINE
  5
168
100
AcDbEntity
  8
voda
 62
5
420
255
370
0
 48
1.0
  6
DOT
100
AcDbLine
 10
-95.2666999999999859
 20
140.0
 30
0.0
 11
-345.4598699999999667
 21
140.0
 31
0.0
  0
LINE
  5
169
100
AcDbEntity
  8
voda
 62
5
420
255
370
0
 48
1.0
  6
DOT
100
AcDbLine
 10
-67.3411899999999974
 20
105.0
 30
0.0
 11
-360.0
 21
105.0
 31
0.0
  0
LINE
  5
16A
100
AcDbEntity
  8
voda
 62
5
420
255
370
0
 48
1.0
  6
DOT
100
AcDbLine
 10
-60.0
 20
-35.0
 30
0.0
 11
-360.0
 21
-35.0
 31
0.0
  0
LINE
  5
16B
100
AcDbEntity
  8
voda
 62
5
420
255
370
0
 48
1.0
  6
DOT
100
AcDbLine
 10
-60.0
 20
-70.0
 30
0.0
 11
-360.0
 21
-70.0
 31
0.0
  0
LINE
  5
16C
100
AcDbEntity
  8
voda
 62
5
420
255
370
0
 48
1.0
  6
DOT
100
AcDbLine
 10
-95.2666999999999859
 20
-140.0
 30
0.0
 11
-345.4598699999999667
 21
-140.0
 31
0.0
  0
LINE
  5
16D
100
AcDbEntity
  8
voda
 62
5
420
255
370
0
 48
1.0
  6
DOT
100
AcDbLine
 10
-67.3411899999999974
 20
-105.0
 30
0.0
 11
-360.0
 21
-105.0
 31
0.0
  0
CIRCLE
  5
16E
100
AcDbEntity
  8
voda
 62
5
420
255
370
0
 48
1.0
  6
Continuous
100
AcDbCircle
 10
0.0
 20
180.0
 30
0.0
 40
12.5
  0
CIRCLE
  5
16F
100
AcDbEntity
  8
voda
 62
5
420
255
370
0
 48
1.0
  6
Continuous
100
AcDbCircle
 10
102.0129900000000021
 20
0.0
 30
0.0
 40
37.5
  0
CIRCLE
  5
170
100
AcDbEntity
  8
voda
 62
5
420
255
370
0
 48
1.0
  6
Continuous
100
AcDbCircle
 10
102.0129900000000021
 20
0.0
 30
0.0
 40
20.0
  0
ARC
  5
171
100
AcDbEntity
  8
voda
 62
5
420
255
370
0
 48
1.0
  6
BYLAYER
100
AcDbCircle
 10
-318.0
 20
105.5
 30
0.0
 40
70.0
100
AcDbArc
 50
90.0
 51
180.0
  0
ARC
  5
172
100
AcDbEntity
  8
voda
 62
5
420
255
370
0
 48
1.0
  6
BYLAYER
100
AcDbCircle
 10
-318.0
 20
-105.5
 30
0.0
 40
70.0
100
AcDbArc
 50
180.0
 51
270.0
  0
ARC
  5
173
100
AcDbEntity
  8
voda
 62
5
420
255
370
0
 48
1.0
  6
BYLAYER
100
AcDbCircle
 10
-82.0
 20
-105.5
 30
0.0
 40
70.0
100
AcDbArc
 50
270.0
 51
0.0
  0
ARC
  5
174
100
AcDbEntity
  8
voda
 62
5
420
255
370
0
 48
1.0
  6
BYLAYER
100
AcDbCircle
 10
-82.0
 20
105.5
 30
0.0
 40
70.0
100
AcDbArc
 50
0.0
 51
90.0
  0
ENDBLK
  5
175
100
AcDbEntity
  8
0
100
AcDbBlockEnd
  0
ENDSEC
  0
SECTION
  2
ENTITIES
  0
INSERT
  5
176
100
AcDbEntity
  8
window1
 62
256
370
-1
 48
1.0
  6
BYLAYER
100
AcDbBlockReference
  2
Window 900
 10
-1158.0
 20
3191.0
 30
0.0
  0
INSERT
  5
177
100
AcDbEntity
  8
window1
 62
256
370
-1
 48
1.0
  6
BYLAYER
100
AcDbBlockReference
  2
Window 900
 10
-6930.0
 20
1500.0
 30
0.0
 50
90.0
  0
INSERT
  5
178
100
AcDbEntity
  8
window1
 62
256
370
-1
 48
1.0
  6
BYLAYER
100
AcDbBlockReference
  2
Window 900
 10
2360.0
 20
3190.0
 30
0.0
  0
INSERT
  5
179
100
AcDbEntity
  8
window1
 62
256
370
-1
 48
1.0
  6
BYLAYER
100
AcDbBlockReference
  2
Window 900
 10
-6930.0
 20
-2200.0
 30
0.0
 50
90.0
  0
LINE
  5
17A
100
AcDbEntity
  8
0
 62
256
370
-1
 48
1.0
  6
BYLAYER
100
AcDbLine
 10
0.0
 20
-180.0
 30
0.0
 11
-0.0
 21
3040.0
 31
0.0
  0
LINE
  5
17B
100
AcDbEntity
  8
0
 62
256
370
-1
 48
1.0
  6
BYLAYER
100
AcDbLine
 10
0.0
 20
3040.0
 30
0.0
 11
0.0
 21
3040.0
 31
0.0
  0
LINE
  5
17C
100
AcDbEntity
  8
0
 62
256
370
-1
 48
1.0
  6
BYLAYER
100
AcDbLine
 10
0.0
 20
3040.0
 30
0.0
 11
0.0
 21
3040.0
 31
0.0
  0
LINE
  5
17D
100
AcDbEntity
  8
0
 62
256
370
-1
 48
1.0
  6
BYLAYER
100
AcDbLine
 10
0.0
 20
3040.0
 30
0.0
 11
0.0
 21
3040.0
 31
0.0
  0
LINE
  5
17E
100
AcDbEntity
  8
0
 62
256
370
-1
 48
1.0
  6
BYLAYER
100
AcDbLine
 10
0.0
 20
3040.0
 30
0.0
 11
0.0
 21
3040.0
 31
0.0
  0
LINE
  5
17F
100
AcDbEntity
  8
0
 62
256
370
-1
 48
1.0
  6
BYLAYER
100
AcDbLine
 10
0.0
 20
3040.0
 30
0.0
 11
1050.0
 21
3040.0
 31
0.0
  0
LINE
  5
180
100
AcDbEntity
  8
0
 62
256
370
-1
 48
1.0
  6
BYLAYER
100
AcDbLine
 10
-1158.0
 20
3040.0
 30
0.0
 11
-200.0
 21
3039.9999999999986358
 31
0.0
  0
LINE
  5
181
100
AcDbEntity
  8
0
 62
256
370
-1
 48
1.0
  6
BYLAYER
100
AcDbLine
 10
-1158.0000000020957032
 20
3290.0
 30
0.0
 11
-200.0
 21
3289.9999999999995453
 31
0.0
  0
LINE
  5
182
100
AcDbEntity
  8
0
 62
256
370
-1
 48
1.0
  6
BYLAYER
100
AcDbLine
 10
1050.0
 20
3290.0
 30
0.0
 11
2360.0
 21
3290.0
 31
0.0
  0
LINE
  5
183
100
AcDbEntity
  8
0
 62
256
370
-1
 48
1.0
  6
BYLAYER
100
AcDbLine
 10
1050.0
 20
3040.0
 30
0.0
 11
2360.0
 21
3040.0
 31
0.0
  0
LINE
  5
184
100
AcDbEntity
  8
0
 62
256
370
-1
 48
1.0
  6
BYLAYER
100
AcDbLine
 10
2360.0
 20
3290.0
 30
0.0
 11
3900.0
 21
3290.0
 31
0.0
  0
LINE
  5
185
100
AcDbEntity
  8
0
 62
256
370
-1
 48
1.0
  6
BYLAYER
100
AcDbLine
 10
2360.0
 20
3040.0
 30
0.0
 11
3650.0
 21
3040.0
 31
0.0
  0
LINE
  5
186
100
AcDbEntity
  8
0
 62
256
370
-1
 48
1.0
  6
BYLAYER
100
AcDbLine
 10
3650.0
 20
3040.0
 30
0.0
 11
3650.0
 21
0.0
 31
0.0
  0
LINE
  5
187
100
AcDbEntity
  8
0
 62
256
370
-1
 48
1.0
  6
BYLAYER
100
AcDbLine
 10
3900.0
 20
3290.0
 30
0.0
 11
3900.0
 21
-199.9999999999995453
 31
0.0
  0
LINE
  5
188
100
AcDbEntity
  8
0
 62
256
370
-1
 48
1.0
  6
BYLAYER
100
AcDbLine
 10
3650.0
 20
0.0
 30
0.0
 11
1130.0
 21
0.0
 31
0.0
  0
LINE
  5
189
100
AcDbEntity
  8
0
 62
256
370
-1
 48
1.0
  6
BYLAYER
100
AcDbLine
 10
3680.0
 20
-200.0
 30
0.0
 11
1130.0
 21
-199.9999999999996589
 31
0.0
  0
LINE
  5
18A
100
AcDbEntity
  8
0
 62
256
370
-1
 48
1.0
  6
BYLAYER
100
AcDbLine
 10
-200.0
 20
-180.0000000000013642
 30
0.0
 11
-199.999999999999801
 21
3039.9999999999986358
 31
0.0
  0
LINE
  5
18B
100
AcDbEntity
  8
0
 62
256
370
-1
 48
1.0
  6
BYLAYER
100
AcDbLine
 10
1130.0
 20
0.0
 30
0.0
 11
1130.0
 21
-200.0
 31
0.0
  0
LINE
  5
18C
100
AcDbEntity
  8
0
 62
256
370
-1
 48
1.0
  6
BYLAYER
100
AcDbLine
 10
1050.0
 20
3290.0
 30
0.0
 11
-200.0
 21
3289.9999999999995453
 31
0.0
  0
LINE
  5
18D
100
AcDbEntity
  8
0
 62
256
370
-1
 48
1.0
  6
BYLAYER
100
AcDbLine
 10
1050.0
 20
3040.0
 30
0.0
 11
1050.0
 21
3290.0
 31
0.0
  0
LINE
  5
18E
100
AcDbEntity
  8
0
 62
256
370
-1
 48
1.0
  6
BYLAYER
100
AcDbLine
 10
2360.0
 20
3040.0
 30
0.0
 11
2360.0
 21
3290.0
 31
0.0
  0
LINE
  5
18F
100
AcDbEntity
  8
0
 62
256
370
-1
 48
1.0
  6
BYLAYER
100
AcDbLine
 10
2360.0
 20
3290.0
 30
0.0
 11
2360.0
 21
3290.0
 31
0.0
  0
DIMENSION
  5
190
100
AcDbEntity
  8
dimensions
 62
256
370
-1
 48
1.0
  6
BYLAYER
100
AcDbDimension
 10
0.0
 20
0.0
 30
0.0
 11
nan
 21
nan
 31
0.0
 70
1
 71
8
 72
2
 74
0
 75
0
 41
1.0
 42
0.0
  1

  3
Standard
100
AcDbAlignedDimension
 13
300.0
 23
3040.0
 33
0.0
 14
300.0
 24
3040.0
 34
0.0
1001
ACAD
1000
DSTYLE
1002
{
1070
144
1040
1.0
1070
40
1040
20.0
1002
}
  0
DIMENSION
  5
191
100
AcDbEntity
  8
dimensions
 62
256
370
-1
 48
1.0
  6
BYLAYER
100
AcDbDimension
 10
0.0000000000000343
 20
3600.0
 30
0.0
 11
525.0
 21
3675.0
 31
0.0
 70
1
 71
8
 72
2
 74
0
 75
0
 41
1.0
 42
0.0
  1

  3
Standard
100
AcDbAlignedDimension
 13
-0.0
 23
3040.0
 33
0.0
 14
1050.0
 24
3040.0
 34
0.0
1001
ACAD
1000
DSTYLE
1002
{
1070
144
1040
1.0
1070
40
1040
20.0
1002
}
  0
DIMENSION
  5
192
100
AcDbEntity
  8
dimensions
 62
256
370
-1
 48
1.0
  6
BYLAYER
100
AcDbDimension
 10
1050.0
 20
3600.0
 30
0.0
 11
1705.0
 21
3675.0
 31
0.0
 70
1
 71
8
 72
2
 74
0
 75
0
 41
1.0
 42
0.0
  1

  3
Standard
100
AcDbAlignedDimension
 13
1050.0
 23
3290.0
 33
0.0
 14
2360.0
 24
3290.0
 34
0.0
1001
ACAD
1000
DSTYLE
1002
{
1070
144
1040
1.0
1070
40
1040
20.0
1002
}
  0
DIMENSION
  5
193
100
AcDbEntity
  8
dimensions
 62
256
370
-1
 48
1.0
  6
BYLAYER
100
AcDbDimension
 10
2360.0
 20
3600.0
 30
0.0
 11
3130.0
 21
3675.0
 31
0.0
 70
1
 71
8
 72
2
 74
0
 75
0
 41
1.0
 42
0.0
  1

  3
Standard
100
AcDbAlignedDimension
 13
2360.0
 23
3290.0
 33
0.0
 14
3900.0
 24
3290.0
 34
0.0
1001
ACAD
1000
DSTYLE
1002
{
1070
144
1040
1.0
1070
40
1040
20.0
1002
}
  0
LINE
  5
194
100
AcDbEntity
  8
0
 62
256
370
-1
 48
1.0
  6
BYLAYER
100
AcDbLine
 10
-200.0
 20
-180.0000000000013642
 30
0.0
 11
0.0
 21
-180.0
 31
0.0
  0
LINE
  5
195
100
AcDbEntity
  8
0
 62
256
370
-1
 48
1.0
  6
BYLAYER
100
AcDbLine
 10
-1160.0
 20
3290.0
 30
0.0
 11
-2468.0
 21
3289.9999999999995453
 31
0.0
  0
LINE
  5
196
100
AcDbEntity
  8
0
 62
256
370
-1
 48
1.0
  6
BYLAYER
100
AcDbLine
 10
-2468.0000000000004547
 20
3290.0
 30
0.0
 11
-2467.9742051383564103
 21
3040.0
 31
0.0
  0
LINE
  5
197
100
AcDbEntity
  8
0
 62
256
370
-1
 48
1.0
  6
BYLAYER
100
AcDbLine
 10
-2467.9742051383564103
 20
3040.0
 30
0.0
 11
-1158.0
 21
3040.0
 31
0.0
  0
LINE
  5
198
100
AcDbEntity
  8
0
 62
256
370
-1
 48
1.0
  6
BYLAYER
100
AcDbLine
 10
-2467.9742051383559556
 20
3040.0
 30
0.0
 11
-3750.0
 21
3040.0
 31
0.0
  0
LINE
  5
199
100
AcDbEntity
  8
0
 62
256
370
-1
 48
1.0
  6
BYLAYER
100
AcDbLine
 10
-3750.0
 20
3040.0
 30
0.0
 11
-3750.0
 21
2740.0
 31
0.0
  0
LINE
  5
19A
100
AcDbEntity
  8
0
 62
256
370
-1
 48
1.0
  6
BYLAYER
100
AcDbLine
 10
-3750.0
 20
2740.0
 30
0.0
 11
-4000.0
 21
2740.0
 31
0.0
  0
LINE
  5
19B
100
AcDbEntity
  8
0
 62
256
370
-1
 48
1.0
  6
BYLAYER
100
AcDbLine
 10
-4000.0
 20
2740.0
 30
0.0
 11
-4000.0
 21
3040.0
 31
0.0
  0
LINE
  5
19C
100
AcDbEntity
  8
0
 62
256
370
-1
 48
1.0
  6
BYLAYER
100
AcDbLine
 10
-4000.0
 20
3040.0
 30
0.0
 11
-6780.0
 21
3040.0
 31
0.0
  0
LINE
  5
19D
100
AcDbEntity
  8
0
 62
256
370
-1
 48
1.0
  6
BYLAYER
100
AcDbLine
 10
-6780.0
 20
3040.0
 30
0.0
 11
-6780.0
 21
1500.0
 31
0.0
  0
LINE
  5
19E
100
AcDbEntity
  8
0
 62
256
370
-1
 48
1.0
  6
BYLAYER
100
AcDbLine
 10
-6780.0
 20
1500.0
 30
0.0
 11
-6780.0
 21
199.9999999999999716
 31
0.0
  0
LINE
  5
19F
100
AcDbEntity
  8
0
 62
256
370
-1
 48
1.0
  6
BYLAYER
100
AcDbLine
 10
-6780.0
 20
200.0
 30
0.0
 11
-6780.0
 21
-1330.0
 31
0.0
  0
LINE
  5
1A0
100
AcDbEntity
  8
0
 62
256
370
-1
 48
1.0
  6
BYLAYER
100
AcDbLine
 10
-6780.0
 20
-1330.0
 30
0.0
 11
-5680.0
 21
-1330.0
 31
0.0
  0
LINE
  5
1A1
100
AcDbEntity
  8
0
 62
256
370
-1
 48
1.0
  6
BYLAYER
100
AcDbLine
 10
-2468.0000000000004547
 20
3290.0
 30
0.0
 11
-3750.0
 21
3290.0
 31
0.0
  0
LINE
  5
1A2
100
AcDbEntity
  8
0
 62
256
370
-1
 48
1.0
  6
BYLAYER
100
AcDbLine
 10
-3750.0
 20
3290.0
 30
0.0
 11
-4000.0
 21
3290.0
 31
0.0
  0
LINE
  5
1A3
100
AcDbEntity
  8
0
 62
256
370
-1
 48
1.0
  6
BYLAYER
100
AcDbLine
 10
-4000.0
 20
3290.0
 30
0.0
 11
-6780.0
 21
3290.0
 31
0.0
  0
LINE
  5
1A4
100
AcDbEntity
  8
0
 62
256
370
-1
 48
1.0
  6
BYLAYER
100
AcDbLine
 10
-6780.0
 20
3290.0
 30
0.0
 11
-7030.0
 21
3290.0
 31
0.0
  0
LINE
  5
1A5
100
AcDbEntity
  8
0
 62
256
370
-1
 48
1.0
  6
BYLAYER
100
AcDbLine
 10
-7030.0
 20
3290.0
 30
0.0
 11
-7030.0
 21
3040.0
 31
0.0
  0
LINE
  5
1A6
100
AcDbEntity
  8
0
 62
256
370
-1
 48
1.0
  6
BYLAYER
100
AcDbLine
 10
-7030.0
 20
3040.0
 30
0.0
 11
-7030.0
 21
1500.0
 31
0.0
  0
LINE
  5
1A7
100
AcDbEntity
  8
0
 62
256
370
-1
 48
1.0
  6
BYLAYER
100
AcDbLine
 10
-7030.0
 20
1500.0
 30
0.0
 11
-7030.0
 21
199.9999999999999716
 31
0.0
  0
LINE
  5
1A8
100
AcDbEntity
  8
0
 62
256
370
-1
 48
1.0
  6
BYLAYER
100
AcDbLine
 10
-7030.0
 20
200.0
 30
0.0
 11
-7030.0
 21
-1330.0
 31
0.0
  0
LINE
  5
1A9
100
AcDbEntity
  8
0
 62
256
370
-1
 48
1.0
  6
BYLAYER
100
AcDbLine
 10
-7030.0
 20
-1330.0
 30
0.0
 11
-7030.0
 21
-1530.0
 31
0.0
  0
LINE
  5
1AA
100
AcDbEntity
  8
0
 62
256
370
-1
 48
1.0
  6
BYLAYER
100
AcDbLine
 10
-5680.0
 20
-1530.0
 30
0.0
 11
-5680.0
 21
-1330.0
 31
0.0
  0
LINE
  5
1AB
100
AcDbEntity
  8
0
 62
256
370
-1
 48
1.0
  6
BYLAYER
100
AcDbLine
 10
-7030.0
 20
1500.0
 30
0.0
 11
-6780.0
 21
1500.0
 31
0.0
  0
LINE
  5
1AC
100
AcDbEntity
  8
0
 62
256
370
-1
 48
1.0
  6
BYLAYER
100
AcDbLine
 10
-7030.0
 20
199.9999999999999716
 30
0.0
 11
-6780.0
 21
199.9999999999999716
 31
0.0
  0
LINE
  5
1AD
100
AcDbEntity
  8
0
 62
256
370
-1
 48
1.0
  6
BYLAYER
100
AcDbLine
 10
-4040.0
 20
-1330.0
 30
0.0
 11
-4040.0
 21
-1030.0
 31
0.0
  0
LINE
  5
1AE
100
AcDbEntity
  8
0
 62
256
370
-1
 48
1.0
  6
BYLAYER
100
AcDbLine
 10
-4040.0
 20
-1030.0
 30
0.0
 11
-3780.0
 21
-1030.0
 31
0.0
  0
LINE
  5
1AF
100
AcDbEntity
  8
0
 62
256
370
-1
 48
1.0
  6
BYLAYER
100
AcDbLine
 10
-3780.0
 20
-1030.0
 30
0.0
 11
-3780.0
 21
-1330.0
 31
0.0
  0
LINE
  5
1B0
100
AcDbEntity
  8
0
 62
256
370
-1
 48
1.0
  6
BYLAYER
100
AcDbLine
 10
-3780.0
 20
-1330.0
 30
0.0
 11
-170.0
 21
-1330.0
 31
0.0
  0
LINE
  5
1B1
100
AcDbEntity
  8
0
 62
256
370
-1
 48
1.0
  6
BYLAYER
100
AcDbLine
 10
-170.0
 20
-1330.0
 30
0.0
 11
-170.0
 21
-1530.0
 31
0.0
  0
LINE
  5
1B2
100
AcDbEntity
  8
0
 62
256
370
-1
 48
1.0
  6
BYLAYER
100
AcDbLine
 10
-170.0
 20
-1530.0
 30
0.0
 11
-3790.0
 21
-1530.0
 31
0.0
  0
LINE
  5
1B3
100
AcDbEntity
  8
0
 62
256
370
-1
 48
1.0
  6
BYLAYER
100
AcDbLine
 10
-4040.0
 20
-1530.0
 30
0.0
 11
-4040.0
 21
-1330.0
 31
0.0
  0
LINE
  5
1B4
100
AcDbEntity
  8
0
 62
256
370
-1
 48
1.0
  6
BYLAYER
100
AcDbLine
 10
-5680.0
 20
-1530.0
 30
0.0
 11
-6780.0
 21
-1530.0
 31
0.0
  0
LINE
  5
1B5
100
AcDbEntity
  8
0
 62
256
370
-1
 48
1.0
  6
BYLAYER
100
AcDbLine
 10
-6780.0
 20
-1530.0
 30
0.0
 11
-6780.0
 21
-2200.0
 31
0.0
  0
LINE
  5
1B6
100
AcDbEntity
  8
0
 62
256
370
-1
 48
1.0
  6
BYLAYER
100
AcDbLine
 10
-6780.0
 20
-2200.0
 30
0.0
 11
-6780.0
 21
-3490.0
 31
0.0
  0
LINE
  5
1B7
100
AcDbEntity
  8
0
 62
256
370
-1
 48
1.0
  6
BYLAYER
100
AcDbLine
 10
-6780.0
 20
-3490.0
 30
0.0
 11
-6780.0
 21
-4370.0
 31
0.0
  0
LINE
  5
1B8
100
AcDbEntity
  8
0
 62
256
370
-1
 48
1.0
  6
BYLAYER
100
AcDbLine
 10
-6780.0
 20
-4370.0
 30
0.0
 11
-5830.0
 21
-4370.0
 31
0.0
  0
LINE
  5
1B9
100
AcDbEntity
  8
0
 62
256
370
-1
 48
1.0
  6
BYLAYER
100
AcDbLine
 10
-5830.0
 20
-4370.0
 30
0.0
 11
-5830.0
 21
-4620.0
 31
0.0
  0
LINE
  5
1BA
100
AcDbEntity
  8
0
 62
256
370
-1
 48
1.0
  6
BYLAYER
100
AcDbLine
 10
-5830.0
 20
-4620.0
 30
0.0
 11
-7030.0
 21
-4620.0
 31
0.0
  0
LINE
  5
1BB
100
AcDbEntity
  8
0
 62
256
370
-1
 48
1.0
  6
BYLAYER
100
AcDbLine
 10
-7030.0
 20
-4620.0
 30
0.0
 11
-7030.0
 21
-4370.0
 31
0.0
  0
LINE
  5
1BC
100
AcDbEntity
  8
0
 62
256
370
-1
 48
1.0
  6
BYLAYER
100
AcDbLine
 10
-7030.0
 20
-4370.0
 30
0.0
 11
-7030.0
 21
-3490.0
 31
0.0
  0
LINE
  5
1BD
100
AcDbEntity
  8
0
 62
256
370
-1
 48
1.0
  6
BYLAYER
100
AcDbLine
 10
-7030.0
 20
-3490.0
 30
0.0
 11
-7030.0
 21
-2200.0
 31
0.0
  0
LINE
  5
1BE
100
AcDbEntity
  8
0
 62
256
370
-1
 48
1.0
  6
BYLAYER
100
AcDbLine
 10
-7030.0
 20
-2200.0
 30
0.0
 11
-7030.0
 21
-1530.0
 31
0.0
  0
LINE
  5
1BF
100
AcDbEntity
  8
0
 62
256
370
-1
 48
1.0
  6
BYLAYER
100
AcDbLine
 10
-6780.0
 20
-2200.0
 30
0.0
 11
-7030.0
 21
-2200.0
 31
0.0
  0
LINE
  5
1C0
100
AcDbEntity
  8
0
 62
256
370
-1
 48
1.0
  6
BYLAYER
100
AcDbLine
 10
-6780.0
 20
-3490.0
 30
0.0
 11
-7030.0
 21
-3490.0
 31
0.0
  0
LINE
  5
1C1
100
AcDbEntity
  8
0
 62
256
370
-1
 48
1.0
  6
BYLAYER
100
AcDbLine
 10
-4040.0
 20
-3150.0
 30
0.0
 11
-4040.0
 21
-4420.0
 31
0.0
  0
LINE
  5
1C2
100
AcDbEntity
  8
0
 62
256
370
-1
 48
1.0
  6
BYLAYER
100
AcDbLine
 10
-4040.0
 20
-4420.0
 30
0.0
 11
-4230.0
 21
-4420.0
 31
0.0
  0
LINE
  5
1C3
100
AcDbEntity
  8
0
 62
256
370
-1
 48
1.0
  6
BYLAYER
100
AcDbLine
 10
-4230.0
 20
-4420.0
 30
0.0
 11
-4230.0
 21
-4620.0
 31
0.0
  0
LINE
  5
1C4
100
AcDbEntity
  8
0
 62
256
370
-1
 48
1.0
  6
BYLAYER
100
AcDbLine
 10
-4230.0
 20
-4620.0
 30
0.0
 11
-4070.0
 21
-4620.0
 31
0.0
  0
LINE
  5
1C5
100
AcDbEntity
  8
0
 62
256
370
-1
 48
1.0
  6
BYLAYER
100
AcDbLine
 10
-3790.0
 20
-4420.0
 30
0.0
 11
-3790.0
 21
-3150.0
 31
0.0
  0
LINE
  5
1C6
100
AcDbEntity
  8
0
 62
256
370
-1
 48
1.0
  6
BYLAYER
100
AcDbLine
 10
-3790.0
 20
-4420.0
 30
0.0
 11
-120.0
 21
-4420.0
 31
0.0
  0
LINE
  5
1C7
100
AcDbEntity
  8
0
 62
256
370
-1
 48
1.0
  6
BYLAYER
100
AcDbLine
 10
-120.0
 20
-4420.0
 30
0.0
 11
-120.0
 21
-3180.0
 31
0.0
  0
LINE
  5
1C8
100
AcDbEntity
  8
0
 62
256
370
-1
 48
1.0
  6
BYLAYER
100
AcDbLine
 10
-120.0
 20
-3180.0
 30
0.0
 11
80.0
 21
-3180.0
 31
0.0
  0
LINE
  5
1C9
100
AcDbEntity
  8
0
 62
256
370
-1
 48
1.0
  6
BYLAYER
100
AcDbLine
 10
80.0
 20
-3180.0
 30
0.0
 11
80.0
 21
-4420.0
 31
0.0
  0
LINE
  5
1CA
100
AcDbEntity
  8
0
 62
256
370
-1
 48
1.0
  6
BYLAYER
100
AcDbLine
 10
80.0
 20
-4420.0
 30
0.0
 11
80.0
 21
-4620.0
 31
0.0
  0
LINE
  5
1CB
100
AcDbEntity
  8
0
 62
256
370
-1
 48
1.0
  6
BYLAYER
100
AcDbLine
 10
-120.0
 20
-4620.0
 30
0.0
 11
-3790.0
 21
-4620.0
 31
0.0
  0
LINE
  5
1CC
100
AcDbEntity
  8
0
 62
256
370
-1
 48
1.0
  6
BYLAYER
100
AcDbLine
 10
80.0
 20
-4620.0
 30
0.0
 11
80.0
 21
-6050.0
 31
0.0
  0
LINE
  5
1CD
100
AcDbEntity
  8
0
 62
256
370
-1
 48
1.0
  6
BYLAYER
100
AcDbLine
 10
80.0
 20
-6050.0
 30
0.0
 11
-120.0
 21
-6050.0
 31
0.0
  0
LINE
  5
1CE
100
AcDbEntity
  8
0
 62
256
370
-1
 48
1.0
  6
BYLAYER
100
AcDbLine
 10
-120.0
 20
-6050.0
 30
0.0
 11
-120.0
 21
-4620.0
 31
0.0
  0
LINE
  5
1CF
100
AcDbEntity
  8
0
 62
256
370
-1
 48
1.0
  6
BYLAYER
100
AcDbLine
 10
80.0
 20
-6050.0
 30
0.0
 11
80.0
 21
-6050.0
 31
0.0
  0
LINE
  5
1D0
100
AcDbEntity
  8
0
 62
256
370
-1
 48
1.0
  6
BYLAYER
100
AcDbLine
 10
80.0
 20
-7160.0
 30
0.0
 11
80.0
 21
-8560.0
 31
0.0
  0
LINE
  5
1D1
100
AcDbEntity
  8
0
 62
256
370
-1
 48
1.0
  6
BYLAYER
100
AcDbLine
 10
80.0
 20
-8810.0
 30
0.0
 11
-170.0
 21
-8810.0
 31
0.0
  0
LINE
  5
1D2
100
AcDbEntity
  8
0
 62
256
370
-1
 48
1.0
  6
BYLAYER
100
AcDbLine
 10
-170.0
 20
-8810.0
 30
0.0
 11
-3820.0
 21
-8810.0
 31
0.0
  0
LINE
  5
1D3
100
AcDbEntity
  8
0
 62
256
370
-1
 48
1.0
  6
BYLAYER
100
AcDbLine
 10
-3820.0
 20
-8810.0
 30
0.0
 11
-4070.0
 21
-8810.0
 31
0.0
  0
LINE
  5
1D4
100
AcDbEntity
  8
0
 62
256
370
-1
 48
1.0
  6
BYLAYER
100
AcDbLine
 10
-4070.0
 20
-8810.0
 30
0.0
 11
-4070.0
 21
-8560.0
 31
0.0
  0
LINE
  5
1D5
100
AcDbEntity
  8
0
 62
256
370
-1
 48
1.0
  6
BYLAYER
100
AcDbLine
 10
-4070.0
 20
-8560.0
 30
0.0
 11
-4070.0
 21
-6870.0
 31
0.0
  0
LINE
  5
1D6
100
AcDbEntity
  8
0
 62
256
370
-1
 48
1.0
  6
BYLAYER
100
AcDbLine
 10
-4070.0
 20
-6870.0
 30
0.0
 11
-4070.0
 21
-5530.0
 31
0.0
  0
LINE
  5
1D7
100
AcDbEntity
  8
0
 62
256
370
-1
 48
1.0
  6
BYLAYER
100
AcDbLine
 10
-4070.0
 20
-5530.0
 30
0.0
 11
-4070.0
 21
-4620.0
 31
0.0
  0
LINE
  5
1D8
100
AcDbEntity
  8
0
 62
256
370
-1
 48
1.0
  6
BYLAYER
100
AcDbLine
 10
-3790.0
 20
-4620.0
 30
0.0
 11
-3790.0
 21
-5530.0
 31
0.0
  0
LINE
  5
1D9
100
AcDbEntity
  8
0
 62
256
370
-1
 48
1.0
  6
BYLAYER
100
AcDbLine
 10
-3790.0
 20
-5530.0
 30
0.0
 11
-3790.0
 21
-6870.0
 31
0.0
  0
LINE
  5
1DA
100
AcDbEntity
  8
0
 62
256
370
-1
 48
1.0
  6
BYLAYER
100
AcDbLine
 10
-3790.0
 20
-6870.0
 30
0.0
 11
-3790.0
 21
-8560.0
 31
0.0
  0
LINE
  5
1DB
100
AcDbEntity
  8
0
 62
256
370
-1
 48
1.0
  6
BYLAYER
100
AcDbLine
 10
-3790.0
 20
-8560.0
 30
0.0
 11
-140.0
 21
-8560.0
 31
0.0
  0
LINE
  5
1DC
100
AcDbEntity
  8
0
 62
256
370
-1
 48
1.0
  6
BYLAYER
100
AcDbLine
 10
-140.0
 20
-8560.0
 30
0.0
 11
-140.0
 21
-7160.0
 31
0.0
  0
LINE
  5
1DD
100
AcDbEntity
  8
0
 62
256
370
-1
 48
1.0
  6
BYLAYER
100
AcDbLine
 10
-140.0
 20
-7160.0
 30
0.0
 11
80.0
 21
-7160.0
 31
0.0
  0
LINE
  5
1DE
100
AcDbEntity
  8
0
 62
256
370
-1
 48
1.0
  6
BYLAYER
100
AcDbLine
 10
-3790.0
 20
-5530.0
 30
0.0
 11
-4070.0
 21
-5530.0
 31
0.0
  0
LINE
  5
1DF
100
AcDbEntity
  8
0
 62
256
370
-1
 48
1.0
  6
BYLAYER
100
AcDbLine
 10
-3790.0
 20
-6870.0
 30
0.0
 11
-4070.0
 21
-6870.0
 31
0.0
  0
INSERT
  5
1E0
100
AcDbEntity
  8
window1
 62
256
370
-1
 48
1.0
  6
BYLAYER
100
AcDbBlockReference
  2
Window 900
 10
-3970.0
 20
-5530.0
 30
0.0
 50
90.0
  0
LINE
  5
1E1
100
AcDbEntity
  8
0
 62
256
370
-1
 48
1.0
  6
BYLAYER
100
AcDbLine
 10
3900.0
 20
-199.9999999999995453
 30
0.0
 11
3900.0
 21
-1799.9999999999995453
 31
0.0
  0
LINE
  5
1E2
100
AcDbEntity
  8
0
 62
256
370
-1
 48
1.0
  6
BYLAYER
100
AcDbLine
 10
3900.0
 20
-1799.9999999999995453
 30
0.0
 11
3900.0
 21
-1919.9999999999995453
 31
0.0
  0
LINE
  5
1E3
100
AcDbEntity
  8
0
 62
256
370
-1
 48
1.0
  6
BYLAYER
100
AcDbLine
 10
3900.0
 20
-1919.9999999999995453
 30
0.0
 11
3900.0
 21
-2949.9999999999995453
 31
0.0
  0
LINE
  5
1E4
100
AcDbEntity
  8
0
 62
256
370
-1
 48
1.0
  6
BYLAYER
100
AcDbLine
 10
3680.0
 20
-200.0
 30
0.0
 11
3680.0
 21
-200.0
 31
0.0
  0
LINE
  5
1E5
100
AcDbEntity
  8
0
 62
256
370
-1
 48
1.0
  6
BYLAYER
100
AcDbLine
 10
3680.0
 20
-200.0
 30
0.0
 11
3680.0
 21
-1800.0
 31
0.0
  0
LINE
  5
1E6
100
AcDbEntity
  8
0
 62
256
370
-1
 48
1.0
  6
BYLAYER
100
AcDbLine
 10
3680.0
 20
-1800.0
 30
0.0
 11
3680.0
 21
-1920.0
 31
0.0
  0
LINE
  5
1E7
100
AcDbEntity
  8
0
 62
256
370
-1
 48
1.0
  6
BYLAYER
100
AcDbLine
 10
3680.0
 20
-1920.0
 30
0.0
 11
3680.0
 21
-2950.0
 31
0.0
  0
LINE
  5
1E8
100
AcDbEntity
  8
0
 62
256
370
-1
 48
1.0
  6
BYLAYER
100
AcDbLine
 10
3680.0
 20
-2950.0
 30
0.0
 11
1130.0
 21
-2950.0
 31
0.0
  0
LINE
  5
1E9
100
AcDbEntity
  8
0
 62
256
370
-1
 48
1.0
  6
BYLAYER
100
AcDbLine
 10
1130.0
 20
-2950.0
 30
0.0
 11
1130.0
 21
-3860.0
 31
0.0
  0
LINE
  5
1EA
100
AcDbEntity
  8
0
 62
256
370
-1
 48
1.0
  6
BYLAYER
100
AcDbLine
 10
1130.0
 20
-3860.0
 30
0.0
 11
1330.0
 21
-3860.0
 31
0.0
  0
LINE
  5
1EB
100
AcDbEntity
  8
0
 62
256
370
-1
 48
1.0
  6
BYLAYER
100
AcDbLine
 10
1330.0
 20
-3860.0
 30
0.0
 11
1330.0
 21
-3170.0
 31
0.0
  0
LINE
  5
1EC
100
AcDbEntity
  8
0
 62
256
370
-1
 48
1.0
  6
BYLAYER
100
AcDbLine
 10
1330.0
 20
-3170.0
 30
0.0
 11
3680.0
 21
-3170.0
 31
0.0
  0
LINE
  5
1ED
100
AcDbEntity
  8
0
 62
256
370
-1
 48
1.0
  6
BYLAYER
100
AcDbLine
 10
3680.0
 20
-3170.0
 30
0.0
 11
3680.0
 21
-8440.0
 31
0.0
  0
LINE
  5
1EE
100
AcDbEntity
  8
0
 62
256
370
-1
 48
1.0
  6
BYLAYER
100
AcDbLine
 10
3680.0
 20
-8440.0
 30
0.0
 11
3680.0
 21
-8560.0
 31
0.0
  0
LINE
  5
1EF
100
AcDbEntity
  8
0
 62
256
370
-1
 48
1.0
  6
BYLAYER
100
AcDbLine
 10
3680.0
 20
-8810.0
 30
0.0
 11
2330.0
 21
-8810.0
 31
0.0
  0
LINE
  5
1F0
100
AcDbEntity
  8
0
 62
256
370
-1
 48
1.0
  6
BYLAYER
100
AcDbLine
 10
2330.0
 20
-8810.0
 30
0.0
 11
1020.0
 21
-8810.0
 31
0.0
  0
LINE
  5
1F1
100
AcDbEntity
  8
0
 62
256
370
-1
 48
1.0
  6
BYLAYER
100
AcDbLine
 10
1020.0
 20
-8810.0
 30
0.0
 11
80.0
 21
-8810.0
 31
0.0
  0
LINE
  5
1F2
100
AcDbEntity
  8
0
 62
256
370
-1
 48
1.0
  6
BYLAYER
100
AcDbLine
 10
80.0
 20
-8560.0
 30
0.0
 11
1020.0
 21
-8560.0
 31
0.0
  0
LINE
  5
1F3
100
AcDbEntity
  8
0
 62
256
370
-1
 48
1.0
  6
BYLAYER
100
AcDbLine
 10
1020.0
 20
-8560.0
 30
0.0
 11
2330.0
 21
-8560.0
 31
0.0
  0
LINE
  5
1F4
100
AcDbEntity
  8
0
 62
256
370
-1
 48
1.0
  6
BYLAYER
100
AcDbLine
 10
2330.0
 20
-8560.0
 30
0.0
 11
3680.0
 21
-8560.0
 31
0.0
  0
LINE
  5
1F5
100
AcDbEntity
  8
0
 62
256
370
-1
 48
1.0
  6
BYLAYER
100
AcDbLine
 10
3900.0
 20
-2949.9999999999995453
 30
0.0
 11
3900.0
 21
-8810.0
 31
0.0
  0
LINE
  5
1F6
100
AcDbEntity
  8
0
 62
256
370
-1
 48
1.0
  6
BYLAYER
100
AcDbLine
 10
3900.0
 20
-8810.0
 30
0.0
 11
3680.0
 21
-8810.0
 31
0.0
  0
LINE
  5
1F7
100
AcDbEntity
  8
0
 62
256
370
-1
 48
1.0
  6
BYLAYER
100
AcDbLine
 10
2330.0
 20
-8560.0
 30
0.0
 11
2330.0
 21
-8810.0
 31
0.0
  0
LINE
  5
1F8
100
AcDbEntity
  8
0
 62
256
370
-1
 48
1.0
  6
BYLAYER
100
AcDbLine
 10
1020.0
 20
-8560.0
 30
0.0
 11
1020.0
 21
-8810.0
 31
0.0
  0
INSERT
  5
1F9
100
AcDbEntity
  8
window1
 62
256
370
-1
 48
1.0
  6
BYLAYER
100
AcDbBlockReference
  2
Window 900
 10
2330.0
 20
-8660.0
 30
0.0
  0
DIMENSION
  5
1FA
100
AcDbEntity
  8
dimensions
 62
256
370
-1
 48
1.0
  6
BYLAYER
100
AcDbDimension
 10
-199.6774991419482035
 20
3598.9558220241556228
 30
0.0
 11
-678.5992110843935734
 21
3674.4557811640120235
 31
0.0
 70
1
 71
8
 72
2
 74
0
 75
0
 41
1.0
 42
0.0
  1

  3
Standard
100
AcDbAlignedDimension
 13
-200.0
 23
3289.9999999999995453
 33
0.0
 14
-1158.0
 24
3291.0000000000004547
 34
0.0
1001
ACAD
1000
DSTYLE
1002
{
1070
144
1040
1.0
1070
40
1040
20.0
1002
}
  0
DIMENSION
  5
1FB
100
AcDbEntity
  8
dimensions
 62
256
370
-1
 48
1.0
  6
BYLAYER
100
AcDbDimension
 10
-1158.0
 20
3600.0
 30
0.0
 11
-1813.0000000000002274
 21
3675.0
 31
0.0
 70
1
 71
8
 72
2
 74
0
 75
0
 41
1.0
 42
0.0
  1

  3
Standard
100
AcDbAlignedDimension
 13
-1158.0
 23
3291.0000000000004547
 33
0.0
 14
-2468.0000000000004547
 24
3291.0000000000004547
 34
0.0
1001
ACAD
1000
DSTYLE
1002
{
1070
144
1040
1.0
1070
40
1040
20.0
1002
}
  0
DIMENSION
  5
1FC
100
AcDbEntity
  8
dimensions
 62
256
370
-1
 48
1.0
  6
BYLAYER
100
AcDbDimension
 10
-2468.029865927958781
 20
3600.1282711960889173
 30
0.0
 11
-3109.1241911362653809
 21
3675.0665329704575015
 31
0.0
 70
1
 71
8
 72
2
 74
0
 75
0
 41
1.0
 42
0.0
  1

  3
Standard
100
AcDbAlignedDimension
 13
-2468.0
 23
3289.9999999999995453
 33
0.0
 14
-3750.1742051383553189
 24
3289.8765242442896124
 34
0.0
1001
ACAD
1000
DSTYLE
1002
{
1070
144
1040
1.0
1070
40
1040
20.0
1002
}
  0
DIMENSION
  5
1FD
100
AcDbEntity
  8
dimensions
 62
256
370
-1
 48
1.0
  6
BYLAYER
100
AcDbDimension
 10
-3750.1742051383553189
 20
3600.0
 30
0.0
 11
-3875.1742051383553189
 21
3675.0
 31
0.0
 70
1
 71
8
 72
2
 74
0
 75
0
 41
1.0
 42
0.0
  1

  3
Standard
100
AcDbAlignedDimension
 13
-3750.1742051383553189
 23
3039.8765242442896124
 33
0.0
 14
-4000.1742051383553189
 24
3039.8765242442896124
 34
0.0
1001
ACAD
1000
DSTYLE
1002
{
1070
144
1040
1.0
1070
40
1040
20.0
1002
}
  0
DIMENSION
  5
1FE
100
AcDbEntity
  8
dimensions
 62
256
370
-1
 48
1.0
  6
BYLAYER
100
AcDbDimension
 10
-4000.1742051383553189
 20
3599.9999999999995453
 30
0.0
 11
-5390.1742051383553189
 21
3675.0
 31
0.0
 70
1
 71
8
 72
2
 74
0
 75
0
 41
1.0
 42
0.0
  1

  3
Standard
100
AcDbAlignedDimension
 13
-4000.1742051383553189
 23
3039.8765242442896124
 33
0.0
 14
-6780.1742051383553189
 24
3039.8765242442900671
 34
0.0
1001
ACAD
1000
DSTYLE
1002
{
1070
144
1040
1.0
1070
40
1040
20.0
1002
}
  0
DIMENSION
  5
1FF
100
AcDbEntity
  8
dimensions
 62
256
370
-1
 48
1.0
  6
BYLAYER
100
AcDbDimension
 10
-7300.0
 20
3039.8765242442900671
 30
0.0
 11
-7375.0
 21
2269.8765242442896124
 31
0.0
 70
1
 71
8
 72
2
 74
0
 75
0
 41
1.0
 42
0.0
  1

  3
Standard
100
AcDbAlignedDimension
 13
-6780.1742051383553189
 23
3039.8765242442900671
 33
0.0
 14
-6780.1742051383553189
 24
1499.8765242442896124
 34
0.0
1001
ACAD
1000
DSTYLE
1002
{
1070
144
1040
1.0
1070
40
1040
20.0
1002
}
  0
DIMENSION
  5
200
100
AcDbEntity
  8
dimensions
 62
256
370
-1
 48
1.0
  6
BYLAYER
100
AcDbDimension
 10
-7300.1728661325078065
 20
1499.9308500468066541
 30
0.0
 11
-7375.0857629001820897
 21
844.9208764702714234
 31
0.0
 70
1
 71
8
 72
2
 74
0
 75
0
 41
1.0
 42
0.0
  1

  3
Standard
100
AcDbAlignedDimension
 13
-6780.1742051383553189
 23
1500.0
 33
0.0
 14
-6780.0
 24
190.0000000000000284
 34
0.0
1001
ACAD
1000
DSTYLE
1002
{
1070
144
1040
1.0
1070
40
1040
20.0
1002
}
  0
DIMENSION
  5
201
100
AcDbEntity
  8
dimensions
 62
256
370
-1
 48
1.0
  6
BYLAYER
100
AcDbDimension
 10
-7299.8292401649914609
 20
190.0595720848658345
 30
0.0
 11
-7374.9163422416813773
 21
-569.9935708429744636
 31
0.0
 70
1
 71
8
 72
2
 74
0
 75
0
 41
1.0
 42
0.0
  1

  3
Standard
100
AcDbAlignedDimension
 13
-6780.0
 23
190.0
 33
0.0
 14
-6780.1742051383553189
 24
-1330.123475755710615
 34
0.0
1001
ACAD
1000
DSTYLE
1002
{
1070
144
1040
1.0
1070
40
1040
20.0
1002
}
  0
INSERT
  5
202
100
AcDbEntity
  8
electro
 62
256
370
-1
 48
1.0
  6
BYLAYER
100
AcDbBlockReference
  2
lamp
 10
-4600.0
 20
1000.0
 30
0.0
 41
100.0
 42
100.0
 43
1.0
  0
INSERT
  5
203
100
AcDbEntity
  8
electro
 62
256
370
-1
 48
1.0
  6
BYLAYER
100
AcDbBlockReference
  2
lamp
 10
-1900.0
 20
1000.0
 30
0.0
 41
100.0
 42
100.0
 43
1.0
  0
INSERT
  5
204
100
AcDbEntity
  8
electro
 62
256
370
-1
 48
1.0
  6
BYLAYER
100
AcDbBlockReference
  2
lamp
 10
1755.3920952065454912
 20
1505.8707750372495866
 30
0.0
 41
100.0
 42
100.0
 43
1.0
  0
INSERT
  5
205
100
AcDbEntity
  8
electro
 62
256
370
-1
 48
1.0
  6
BYLAYER
100
AcDbBlockReference
  2
lamp
 10
1708.8105842640215997
 20
-982.5379903819493848
 30
0.0
 41
100.0
 42
100.0
 43
1.0
  0
INSERT
  5
206
100
AcDbEntity
  8
electro
 62
256
370
-1
 48
1.0
  6
BYLAYER
100
AcDbBlockReference
  2
lamp
 10
694.8022043757537176
 20
-2283.8487445718938034
 30
0.0
 41
100.0
 42
100.0
 43
1.0
  0
INSERT
  5
207
100
AcDbEntity
  8
electro
 62
256
370
-1
 48
1.0
  6
BYLAYER
100
AcDbBlockReference
  2
lamp
 10
2000.0
 20
-6000.0
 30
0.0
 41
100.0
 42
100.0
 43
1.0
  0
INSERT
  5
208
100
AcDbEntity
  8
electro
 62
256
370
-1
 48
1.0
  6
BYLAYER
100
AcDbBlockReference
  2
lamp
 10
-1941.8998212776496075
 20
-6543.6744274720722387
 30
0.0
 41
100.0
 42
100.0
 43
1.0
  0
INSERT
  5
209
100
AcDbEntity
  8
electro
 62
256
370
-1
 48
1.0
  6
BYLAYER
100
AcDbBlockReference
  2
lamp
 10
-2000.0
 20
-3000.0
 30
0.0
 41
100.0
 42
100.0
 43
1.0
  0
INSERT
  5
20A
100
AcDbEntity
  8
electro
 62
256
370
-1
 48
1.0
  6
BYLAYER
100
AcDbBlockReference
  2
lamp
 10
-5478.4698614921144326
 20
-2704.4799737187340725
 30
0.0
 41
100.0
 42
100.0
 43
1.0
  0
DIMENSION
  5
20B
100
AcDbEntity
  8
dimensions
 62
256
370
-1
 48
1.0
  6
BYLAYER
100
AcDbDimension
 10
4100.0
 20
3040.0
 30
0.0
 11
4025.0
 21
1520.0
 31
0.0
 70
0
 71
8
 72
2
 74
0
 75
0
 41
1.0
 42
0.0
  1

  3
Standard
100
AcDbAlignedDimension
 13
3650.0
 23
3040.0
 33
0.0
 14
3650.0
 24
-0.0
 34
0.0
 50
90.0
100
AcDbRotatedDimension
1001
ACAD
1000
DSTYLE
1002
{
1070
144
1040
1.0
1070
40
1040
20.0
1002
}
  0
DIMENSION
  5
20C
100
AcDbEntity
  8
dimensions
 62
256
370
-1
 48
1.0
  6
BYLAYER
100
AcDbDimension
 10
4100.0
 20
0.0
 30
0.0
 11
4025.0
 21
-99.9999999999999858
 31
0.0
 70
0
 71
8
 72
2
 74
0
 75
0
 41
1.0
 42
0.0
  1

  3
Standard
100
AcDbAlignedDimension
 13
3650.0
 23
-0.0
 33
0.0
 14
3680.0
 24
-200.0
 34
0.0
 50
90.0
100
AcDbRotatedDimension
1001
ACAD
1000
DSTYLE
1002
{
1070
144
1040
1.0
1070
40
1040
20.0
1002
}
  0
DIMENSION
  5
20D
100
AcDbEntity
  8
dimensions
 62
256
370
-1
 48
1.0
  6
BYLAYER
100
AcDbDimension
 10
4100.0
 20
-200.0
 30
0.0
 11
4025.0
 21
-1575.0
 31
0.0
 70
0
 71
8
 72
2
 74
0
 75
0
 41
1.0
 42
0.0
  1

  3
Standard
100
AcDbAlignedDimension
 13
3680.0
 23
-200.0
 33
0.0
 14
3680.0
 24
-2950.0
 34
0.0
 50
90.0
100
AcDbRotatedDimension
1001
ACAD
1000
DSTYLE
1002
{
1070
144
1040
1.0
1070
40
1040
20.0
1002
}
  0
DIMENSION
  5
20E
100
AcDbEntity
  8
dimensions
 62
256
370
-1
 48
1.0
  6
BYLAYER
100
AcDbDimension
 10
4100.0
 20
-2950.0
 30
0.0
 11
4025.0
 21
-3060.0
 31
0.0
 70
0
 71
8
 72
2
 74
0
 75
0
 41
1.0
 42
0.0
  1

  3
Standard
100
AcDbAlignedDimension
 13
3680.0
 23
-2950.0
 33
0.0
 14
3680.0
 24
-3170.0
 34
0.0
 50
90.0
100
AcDbRotatedDimension
1001
ACAD
1000
DSTYLE
1002
{
1070
144
1040
1.0
1070
40
1040
20.0
1002
}
  0
DIMENSION
  5
20F
100
AcDbEntity
  8
dimensions
 62
256
370
-1
 48
1.0
  6
BYLAYER
100
AcDbDimension
 10
4100.0
 20
-3170.0
 30
0.0
 11
4025.0
 21
-5865.0
 31
0.0
 70
0
 71
8
 72
2
 74
0
 75
0
 41
1.0
 42
0.0
  1

  3
Standard
100
AcDbAlignedDimension
 13
3680.0
 23
-3170.0
 33
0.0
 14
3680.0
 24
-8560.0
 34
0.0
 50
90.0
100
AcDbRotatedDimension
1001
ACAD
1000
DSTYLE
1002
{
1070
144
1040
1.0
1070
40
1040
20.0
1002
}
  0
DIMENSION
  5
210
100
AcDbEntity
  8
dimensions
 62
256
370
-1
 48
1.0
  6
BYLAYER
100
AcDbDimension
 10
0.0
 20
-400.0
 30
0.0
 11
565.0
 21
-325.0
 31
0.0
 70
0
 71
8
 72
2
 74
0
 75
0
 41
1.0
 42
0.0
  1

  3
Standard
100
AcDbAlignedDimension
 13
0.0
 23
-180.0
 33
0.0
 14
1130.0
 24
-199.9999999999996589
 34
0.0
 50
0.0
100
AcDbRotatedDimension
1001
ACAD
1000
DSTYLE
1002
{
1070
144
1040
1.0
1070
40
1040
20.0
1002
}
  0
DIMENSION
  5
211
100
AcDbEntity
  8
dimensions
 62
256
370
-1
 48
1.0
  6
BYLAYER
100
AcDbDimension
 10
-200.0
 20
3600.0
 30
0.0
 11
-99.9999999999999858
 21
3675.0
 31
0.0
 70
0
 71
8
 72
2
 74
0
 75
0
 41
1.0
 42
0.0
  1

  3
Standard
100
AcDbAlignedDimension
 13
-200.0
 23
3289.9999999999995453
 33
0.0
 14
0.0000000000000153
 24
3289.9999999999995453
 34
0.0
 50
0.0
100
AcDbRotatedDimension
1001
ACAD
1000
DSTYLE
1002
{
1070
144
1040
1.0
1070
40
1040
20.0
1002
}
  0
DIMENSION
  5
212
100
AcDbEntity
  8
dimensions
 62
256
370
-1
 48
1.0
  6
BYLAYER
100
AcDbDimension
 10
1130.0
 20
-400.0
 30
0.0
 11
2405.0
 21
-325.0
 31
0.0
 70
0
 71
8
 72
2
 74
0
 75
0
 41
1.0
 42
0.0
  1

  3
Standard
100
AcDbAlignedDimension
 13
1130.0
 23
-199.9999999999996589
 33
0.0
 14
3680.0
 24
-200.0
 34
0.0
 50
0.0
100
AcDbRotatedDimension
1001
ACAD
1000
DSTYLE
1002
{
1070
144
1040
1.0
1070
40
1040
20.0
1002
}
  0
HATCH
  5
213
100
AcDbEntity
  8
hatch
 62
256
370
-1
 48
1.0
  6
BYLAYER
100
AcDbHatch
 10
0.0
 20
0.0
 30
0.0
210
0.0
220
0.0
230
1.0
  2
ANSI31
 70
0
 71
0
 91
1
 92
1
 93
26
 72
1
 10
2330.0
 20
-8560.0
 11
2330.0
 21
-8810.0
 72
1
 10
2330.0
 20
-8810.0
 11
3680.0
 21
-8810.0
 72
1
 10
3680.0
 20
-8810.0
 11
3900.0
 21
-8810.0
 72
1
 10
3900.0
 20
-8810.0
 11
3900.0
 21
-2949.9999999999995453
 72
1
 10
3900.0
 20
-2949.9999999999995453
 11
3900.0
 21
-1919.9999999999995453
 72
1
 10
3900.0
 20
-1919.9999999999995453
 11
3900.0
 21
-1799.9999999999995453
 72
1
 10
3900.0
 20
-1799.9999999999995453
 11
3900.0
 21
-199.9999999999995453
 72
1
 10
3900.0
 20
-199.9999999999995453
 11
3900.0
 21
3290.0
 72
1
 10
3900.0
 20
3290.0
 11
2360.0
 21
3290.0
 72
1
 10
2360.0
 20
3290.0
 11
2360.0
 21
3040.0
 72
1
 10
2360.0
 20
3040.0
 11
3650.0
 21
3040.0
 72
1
 10
3650.0
 20
3040.0
 11
3650.0
 21
0.0
 72
1
 10
3650.0
 20
0.0
 11
1130.0
 21
0.0
 72
1
 10
1130.0
 20
0.0
 11
1130.0
 21
-200.0
 72
1
 10
1130.0
 20
-199.9999999999996589
 11
3680.0
 21
-200.0
 72
1
 10
3680.0
 20
-200.0
 11
3680.0
 21
-1800.0
 72
1
 10
3680.0
 20
-1800.0
 11
3680.0
 21
-1920.0
 72
1
 10
3680.0
 20
-1920.0
 11
3680.0
 21
-2950.0
 72
1
 10
3680.0
 20
-2950.0
 11
1130.0
 21
-2950.0
 72
1
 10
1130.0
 20
-2950.0
 11
1130.0
 21
-3860.0
 72
1
 10
1130.0
 20
-3860.0
 11
1330.0
 21
-3860.0
 72
1
 10
1330.0
 20
-3860.0
 11
1330.0
 21
-3170.0
 72
1
 10
1330.0
 20
-3170.0
 11
3680.0
 21
-3170.0
 72
1
 10
3680.0
 20
-3170.0
 11
3680.0
 21
-8440.0
 72
1
 10
3680.0
 20
-8440.0
 11
3680.0
 21
-8560.0
 72
1
 10
3680.0
 20
-8560.0
 11
2330.0
 21
-8560.0
 97
0
 75
0
 76
1
 52
0.0
 41
50.0
 77
0
 78
1
 53
45.0
 43
0.0
 44
0.0
 45
-0.0883883476483184
 46
0.0883883476483185
 79
0
 98
0
1001
ACAD
1010
0.0
1020
0.0
1030
0
  0
LINE
  5
214
100
AcDbEntity
  8
0
 62
256
370
-1
 48
1.0
  6
BYLAYER
100
AcDbLine
 10
-1158.0
 20
3040.0
 30
0.0
 11
-1158.0
 21
3290.0000000000004547
 31
0.0
  0
HATCH
  5
215
100
AcDbEntity
  8
hatch
 62
256
370
-1
 48
1.0
  6
BYLAYER
100
AcDbHatch
 10
0.0
 20
0.0
 30
0.0
210
0.0
220
0.0
230
1.0
  2
ANSI31
 70
0
 71
0
 91
1
 92
1
 93
9
 72
1
 10
-200.0
 20
-180.0000000000013642
 11
0.0
 21
-180.0
 72
1
 10
0.0
 20
-180.0
 11
-0.0
 21
3040.0
 72
1
 10
0.0
 20
3040.0
 11
1050.0
 21
3040.0
 72
1
 10
1050.0
 20
3040.0
 11
1050.0
 21
3290.0
 72
1
 10
1050.0
 20
3290.0
 11
-200.0
 21
3289.9999999999995453
 72
1
 10
-200.0
 20
3289.9999999999995453
 11
-1158.0000000020957032
 21
3290.0
 72
1
 10
-1158.0
 20
3290.0000000000004547
 11
-1158.0
 21
3040.0
 72
1
 10
-1158.0
 20
3040.0
 11
-200.0
 21
3039.9999999999986358
 72
1
 10
-199.999999999999801
 20
3039.9999999999986358
 11
-200.0
 21
-180.0000000000013642
 97
0
 75
0
 76
1
 52
0.0
 41
50.0
 77
0
 78
1
 53
45.0
 43
0.0
 44
0.0
 45
-0.0883883476483184
 46
0.0883883476483185
 79
0
 98
0
1001
ACAD
1010
0.0
1020
0.0
1030
0
  0
HATCH
  5
216
100
AcDbEntity
  8
hatch
 62
256
370
-1
 48
1.0
  6
BYLAYER
100
AcDbHatch
 10
0.0
 20
0.0
 30
0.0
210
0.0
220
0.0
230
1.0
  2
ANSI31
 70
0
 71
0
 91
1
 92
1
 93
14
 72
1
 10
80.0
 20
-7160.0
 11
80.0
 21
-8560.0
 72
1
 10
80.0
 20
-8560.0
 11
1020.0
 21
-8560.0
 72
1
 10
1020.0
 20
-8560.0
 11
1020.0
 21
-8810.0
 72
1
 10
1020.0
 20
-8810.0
 11
80.0
 21
-8810.0
 72
1
 10
80.0
 20
-8810.0
 11
-170.0
 21
-8810.0
 72
1
 10
-170.0
 20
-8810.0
 11
-3820.0
 21
-8810.0
 72
1
 10
-3820.0
 20
-8810.0
 11
-4070.0
 21
-8810.0
 72
1
 10
-4070.0
 20
-8810.0
 11
-4070.0
 21
-8560.0
 72
1
 10
-4070.0
 20
-8560.0
 11
-4070.0
 21
-6870.0
 72
1
 10
-4070.0
 20
-6870.0
 11
-3790.0
 21
-6870.0
 72
1
 10
-3790.0
 20
-6870.0
 11
-3790.0
 21
-8560.0
 72
1
 10
-3790.0
 20
-8560.0
 11
-140.0
 21
-8560.0
 72
1
 10
-140.0
 20
-8560.0
 11
-140.0
 21
-7160.0
 72
1
 10
-140.0
 20
-7160.0
 11
80.0
 21
-7160.0
 97
0
 75
0
 76
1
 52
0.0
 41
50.0
 77
0
 78
1
 53
45.0
 43
0.0
 44
0.0
 45
-0.0883883476483184
 46
0.0883883476483185
 79
0
 98
0
1001
ACAD
1010
0.0
1020
0.0
1030
0
  0
CIRCLE
  5
217
100
AcDbEntity
  8
voda
 62
256
370
-1
 48
1.0
  6
BYLAYER
100
AcDbCircle
 10
3400.0
 20
2200.0
 30
0.0
 40
223.6067977499789663
  0
CIRCLE
  5
218
100
AcDbEntity
  8
voda
 62
256
370
-1
 48
1.0
  6
BYLAYER
100
AcDbCircle
 10
3453.11079756143954
 20
-3469.3239915225531149
 30
0.0
 40
223.6067977499789663
  0
MTEXT
  5
219
100
AcDbEntity
  8
voda
 62
256
370
-1
 48
1.0
  6
BYLAYER
100
AcDbMText
 10
1800.0
 20
300.0
 30
0.0
 40
32.0
 41
0.0
 71
5
 72
1
  1
\fLiberation Sans|b1|i0|c0|p0;\H100;BOJLER
  7
textstyle0
 50
0.0
 73
2
 44
1.0
  0
INSERT
  5
21A
100
AcDbEntity
  8
electro
 62
256
370
-1
 48
1.0
  6
BYLAYER
100
AcDbBlockReference
  2
Elt(29)
 10
-120.0
 20
-5851.8295044120332022
 30
0.0
 50
90.0
  0
INSERT
  5
21B
100
AcDbEntity
  8
electro
 62
256
370
-1
 48
1.0
  6
BYLAYER
100
AcDbBlockReference
  2
Elt(29)
 10
-120.0
 20
-3366.662841165426471
 30
0.0
 50
90.0
  0
INSERT
  5
21C
100
AcDbEntity
  8
electro
 62
256
370
-1
 48
1.0
  6
BYLAYER
100
AcDbBlockReference
  2
Elt(29)
 10
-200.0
 20
0.0
 30
0.0
 50
90.0
  0
INSERT
  5
21D
100
AcDbEntity
  8
electro
 62
256
370
-1
 48
1.0
  6
BYLAYER
100
AcDbBlockReference
  2
Elt(29)
 10
-4040.0
 20
-1330.0
 30
0.0
 50
90.0
  0
INSERT
  5
21E
100
AcDbEntity
  8
electro
 62
256
370
-1
 48
1.0
  6
BYLAYER
100
AcDbBlockReference
  2
Elt(29)
 10
-6000.0000000000009095
 20
-4600.0000000000009095
 30
0.0
 50
180.0
  0
INSERT
  5
21F
100
AcDbEntity
  8
electro
 62
256
370
-1
 48
1.0
  6
BYLAYER
100
AcDbBlockReference
  2
Elt(29)
 10
1400.0
 20
-200.0
 30
0.0
 50
180.0
  0
INSERT
  5
220
100
AcDbEntity
  8
electro
 62
256
370
-1
 48
1.0
  6
BYLAYER
100
AcDbBlockReference
  2
Elt(29)
 10
1600.0
 20
-200.0
 30
0.0
 50
180.0
  0
INSERT
  5
221
100
AcDbEntity
  8
electro
 62
256
370
-1
 48
1.0
  6
BYLAYER
100
AcDbBlockReference
  2
Elt(29)
 10
1200.0
 20
-3900.0
 30
0.0
 50
270.0
  0
INSERT
  5
222
100
AcDbEntity
  8
electro
 62
256
370
-1
 48
1.0
  6
BYLAYER
100
AcDbBlockReference
  2
Elt34
 10
1501.4646671863738447
 20
-3454.4075649988990335
 30
0.0
  0
INSERT
  5
223
100
AcDbEntity
  8
electro
 62
256
370
-1
 48
1.0
  6
BYLAYER
100
AcDbBlockReference
  2
Elt34
 10
-1796.0255584048773017
 20
-1808.0850742534003075
 30
0.0
  0
INSERT
  5
224
100
AcDbEntity
  8
electro
 62
256
370
-1
 48
1.0
  6
BYLAYER
100
AcDbBlockReference
  2
Elt34
 10
367.0707311635887891
 20
-5237.3061190674998215
 30
0.0
 50
90.0
  0
INSERT
  5
225
100
AcDbEntity
  8
electro
 62
256
370
-1
 48
1.0
  6
BYLAYER
100
AcDbBlockReference
  2
Elt34
 10
275.72910058546654
 20
1864.4275778869750866
 30
0.0
 50
90.0
  0
INSERT
  5
226
100
AcDbEntity
  8
electro
 62
256
370
-1
 48
1.0
  6
BYLAYER
100
AcDbBlockReference
  2
Elt34
 10
-3510.3312572151689892
 20
-3911.4530593185086218
 30
0.0
 50
90.0
  0
INSERT
  5
227
100
AcDbEntity
  8
electro
 62
256
370
-1
 48
1.0
  6
BYLAYER
100
AcDbBlockReference
  2
Elt34
 10
-1663.3480752287414361
 20
-4909.0348150399977385
 30
0.0
  0
INSERT
  5
228
100
AcDbEntity
  8
electro
 62
256
370
-1
 48
1.0
  6
BYLAYER
100
AcDbBlockReference
  2
Elt34
 10
-1152.7038245192934482
 20
-8228.2224446514119336
 30
0.0
 50
180.0
  0
INSERT
  5
229
100
AcDbEntity
  8
electro
 62
256
370
-1
 48
1.0
  6
BYLAYER
100
AcDbBlockReference
  2
Elt34
 10
-1200.0
 20
-4100.0
 30
0.0
 50
180.0
  0
INSERT
  5
22A
100
AcDbEntity
  8
electro
 62
256
370
-1
 48
1.0
  6
BYLAYER
100
AcDbBlockReference
  2
Elt34
 10
-5900.6504396970012749
 20
-1051.4203797511895573
 30
0.0
 50
180.0
  0
INSERT
  5
22B
100
AcDbEntity
  8
electro
 62
256
370
-1
 48
1.0
  6
BYLAYER
100
AcDbBlockReference
  2
Elt34
 10
3400.0
 20
-6450.0
 30
0.0
 50
-90.0
  0
INSERT
  5
22C
100
AcDbEntity
  8
electro
 62
256
370
-1
 48
1.0
  6
BYLAYER
100
AcDbBlockReference
  2
Elt34
 10
3400.0
 20
-5200.0
 30
0.0
 50
-90.0
  0
INSERT
  5
22D
100
AcDbEntity
  8
electro
 62
256
370
-1
 48
1.0
  6
BYLAYER
100
AcDbBlockReference
  2
Elt34
 10
-4304.5534778545988956
 20
-2273.105194337406374
 30
0.0
 50
-90.0
  0
INSERT
  5
22E
100
AcDbEntity
  8
electro
 62
256
370
-1
 48
1.0
  6
BYLAYER
100
AcDbBlockReference
  2
Elt34
 10
3400.0
 20
-7450.0
 30
0.0
 50
-90.0
  0
INSERT
  5
22F
100
AcDbEntity
  8
electro
 62
256
370
-1
 48
1.0
  6
BYLAYER
100
AcDbBlockReference
  2
Elt34
 10
309.9614155309955095
 20
2758.430818632723458
 30
0.0
  0
INSERT
  5
230
100
AcDbEntity
  8
electro
 62
256
370
-1
 48
1.0
  6
BYLAYER
100
AcDbBlockReference
  2
Elt34
 10
-3532.0286612353311284
 20
2782.7472115236496393
 30
0.0
  0
INSERT
  5
231
100
AcDbEntity
  8
electro
 62
256
370
-1
 48
1.0
  6
BYLAYER
100
AcDbBlockReference
  2
Elt34
 10
-5708.3458249732184413
 20
2770.5890150781865486
 30
0.0
  0
INSERT
  5
232
100
AcDbEntity
  8
electro
 62
256
370
-1
 48
1.0
  6
BYLAYER
100
AcDbBlockReference
  2
Elt33
 10
3049.9702924853122568
 20
2755.0958662034827285
 30
0.0
  0
LINE
  5
233
100
AcDbEntity
  8
0
 62
256
370
-1
 48
1.0
  6
BYLAYER
100
AcDbLine
 10
-4040.0
 20
-3150.0
 30
0.0
 11
-4040.0
 21
-1530.0
 31
0.0
  0
LINE
  5
234
100
AcDbEntity
  8
0
 62
256
370
-1
 48
1.0
  6
BYLAYER
100
AcDbLine
 10
-3790.0
 20
-3150.0
 30
0.0
 11
-3790.0
 21
-1530.0
 31
0.0
  0
INSERT
  5
235
100
AcDbEntity
  8
voda
 62
256
370
-1
 48
1.0
  6
BYLAYER
100
AcDbBlockReference
  2
EL860
 10
-500.0
 20
2400.0
 30
0.0
 50
90.0
  0
INSERT
  5
236
100
AcDbEntity
  8
voda
 62
5
420
255
370
-1
 48
1.0
  6
BYLAYER
100
AcDbBlockReference
  2
sink
 10
2700.0
 20
3000.0
 30
0.0
 50
180.0
  0
INSERT
  5
237
100
AcDbEntity
  8
voda
 62
256
370
-1
 48
1.0
  6
BYLAYER
100
AcDbBlockReference
  2
toilet
 10
3500.0
 20
1200.0
 30
0.0
 50
90.0
  0
INSERT
  5
238
100
AcDbEntity
  8
voda
 62
256
370
-1
 48
1.0
  6
BYLAYER
100
AcDbBlockReference
  2
sh80_cw
 10
3500.0
 20
800.0
 30
0.0
 41
8.0
 42
8.0
 43
1.0
 50
180.0
  0
LINE
  5
239
100
AcDbEntity
  8
voda
 62
256
370
-1
 48
1.0
  6
BYLAYER
100
AcDbLine
 10
1435.8286256091723772
 20
440.9053326356222442
 30
0.0
 11
2201.4486041044151534
 21
439.3607256335076272
 31
0.0
  0
LINE
  5
23A
100
AcDbEntity
  8
voda
 62
256
370
-1
 48
1.0
  6
BYLAYER
100
AcDbLine
 10
2201.4486041044151534
 20
439.3607256335076272
 30
0.0
 11
2200.0
 21
100.0
 31
0.0
  0
LINE
  5
23B
100
AcDbEntity
  8
voda
 62
256
370
-1
 48
1.0
  6
BYLAYER
100
AcDbLine
 10
2200.0
 20
100.0
 30
0.0
 11
1400.0
 21
100.0
 31
0.0
  0
LINE
  5
23C
100
AcDbEntity
  8
voda
 62
256
370
-1
 48
1.0
  6
BYLAYER
100
AcDbLine
 10
1400.0
 20
100.0
 30
0.0
 11
1400.0
 21
440.0
 31
0.0
  0
LINE
  5
23D
100
AcDbEntity
  8
voda
 62
256
370
-1
 48
1.0
  6
BYLAYER
100
AcDbLine
 10
1400.0
 20
440.0
 30
0.0
 11
1435.8286256091723772
 21
440.9053326356222442
 31
0.0
  0
HATCH
  5
23E
100
AcDbEntity
  8
hatch
 62
256
370
-1
 48
1.0
  6
BYLAYER
100
AcDbHatch
 10
0.0
 20
0.0
 30
0.0
210
0.0
220
0.0
230
1.0
  2
ANSI31
 70
0
 71
0
 91
1
 92
1
 93
12
 72
1
 10
-4040.0
 20
-1530.0
 11
-4040.0
 21
-1330.0
 72
1
 10
-4040.0
 20
-1330.0
 11
-4040.0
 21
-1030.0
 72
1
 10
-4040.0
 20
-1030.0
 11
-3780.0
 21
-1030.0
 72
1
 10
-3780.0
 20
-1030.0
 11
-3780.0
 21
-1330.0
 72
1
 10
-3780.0
 20
-1330.0
 11
-170.0
 21
-1330.0
 72
1
 10
-170.0
 20
-1330.0
 11
-170.0
 21
-1530.0
 72
1
 10
-170.0
 20
-1530.0
 11
-3790.0
 21
-1530.0
 72
1
 10
-3790.0
 20
-1530.0
 11
-3790.0
 21
-3150.0
 72
1
 10
-3790.0
 20
-3150.0
 11
-3790.0
 21
-4420.0
 72
1
 10
-3790.0
 20
-4420.0
 11
-4040.0
 21
-4420.0
 72
1
 10
-4040.0
 20
-4420.0
 11
-4040.0
 21
-3150.0
 72
1
 10
-4040.0
 20
-3150.0
 11
-4040.0
 21
-1530.0
 97
0
 75
0
 76
1
 52
0.0
 41
50.0
 77
0
 78
1
 53
45.0
 43
0.0
 44
0.0
 45
-0.0883883476483184
 46
0.0883883476483185
 79
0
 98
0
1001
ACAD
1010
0.0
1020
0.0
1030
0
  0
HATCH
  5
23F
100
AcDbEntity
  8
hatch
 62
256
370
-1
 48
1.0
  6
BYLAYER
100
AcDbHatch
 10
0.0
 20
0.0
 30
0.0
210
0.0
220
0.0
230
1.0
  2
ANSI31
 70
0
 71
0
 91
1
 92
1
 93
16
 72
1
 10
-4040.0
 20
-4420.0
 11
-4230.0
 21
-4420.0
 72
1
 10
-4230.0
 20
-4420.0
 11
-4230.0
 21
-4620.0
 72
1
 10
-4230.0
 20
-4620.0
 11
-4070.0
 21
-4620.0
 72
1
 10
-4070.0
 20
-4620.0
 11
-4070.0
 21
-5530.0
 72
1
 10
-4070.0
 20
-5530.0
 11
-3790.0
 21
-5530.0
 72
1
 10
-3790.0
 20
-5530.0
 11
-3790.0
 21
-4620.0
 72
1
 10
-3790.0
 20
-4620.0
 11
-120.0
 21
-4620.0
 72
1
 10
-120.0
 20
-4620.0
 11
-120.0
 21
-6050.0
 72
1
 10
-120.0
 20
-6050.0
 11
80.0
 21
-6050.0
 72
1
 10
80.0
 20
-6050.0
 11
80.0
 21
-4620.0
 72
1
 10
80.0
 20
-4620.0
 11
80.0
 21
-4420.0
 72
1
 10
80.0
 20
-4420.0
 11
80.0
 21
-3180.0
 72
1
 10
80.0
 20
-3180.0
 11
-120.0
 21
-3180.0
 72
1
 10
-120.0
 20
-3180.0
 11
-120.0
 21
-4420.0
 72
1
 10
-120.0
 20
-4420.0
 11
-3790.0
 21
-4420.0
 72
1
 10
-3790.0
 20
-4420.0
 11
-4040.0
 21
-4420.0
 97
0
 75
0
 76
1
 52
0.0
 41
50.0
 77
0
 78
1
 53
45.0
 43
0.0
 44
0.0
 45
-0.0883883476483184
 46
0.0883883476483185
 79
0
 98
0
1001
ACAD
1010
0.0
1020
0.0
1030
0
  0
HATCH
  5
240
100
AcDbEntity
  8
0
 62
256
370
-1
 48
1.0
  6
BYLAYER
100
AcDbHatch
 10
0.0
 20
0.0
 30
0.0
210
0.0
220
0.0
230
1.0
  2
ANSI31
 70
0
 71
0
 91
1
 92
1
 93
14
 72
1
 10
-2468.0000000000004547
 20
3290.0
 11
-2467.9742051383564103
 21
3040.0
 72
1
 10
-2467.9742051383559556
 20
3040.0
 11
-3750.0
 21
3040.0
 72
1
 10
-3750.0
 20
3040.0
 11
-3750.0
 21
2740.0
 72
1
 10
-3750.0
 20
2740.0
 11
-4000.0
 21
2740.0
 72
1
 10
-4000.0
 20
2740.0
 11
-4000.0
 21
3040.0
 72
1
 10
-4000.0
 20
3040.0
 11
-6780.0
 21
3040.0
 72
1
 10
-6780.0
 20
3040.0
 11
-6780.0
 21
1500.0
 72
1
 10
-6780.0
 20
1500.0
 11
-7030.0
 21
1500.0
 72
1
 10
-7030.0
 20
1500.0
 11
-7030.0
 21
3040.0
 72
1
 10
-7030.0
 20
3040.0
 11
-7030.0
 21
3290.0
 72
1
 10
-7030.0
 20
3290.0
 11
-6780.0
 21
3290.0
 72
1
 10
-6780.0
 20
3290.0
 11
-4000.0
 21
3290.0
 72
1
 10
-4000.0
 20
3290.0
 11
-3750.0
 21
3290.0
 72
1
 10
-3750.0
 20
3290.0
 11
-2468.0000000000004547
 21
3290.0
 97
0
 75
0
 76
1
 52
0.0
 41
50.0
 77
0
 78
1
 53
45.0
 43
0.0
 44
0.0
 45
-0.0883883476483184
 46
0.0883883476483185
 79
0
 98
0
1001
ACAD
1010
0.0
1020
0.0
1030
0
  0
HATCH
  5
241
100
AcDbEntity
  8
0
 62
256
370
-1
 48
1.0
  6
BYLAYER
100
AcDbHatch
 10
0.0
 20
0.0
 30
0.0
210
0.0
220
0.0
230
1.0
  2
ANSI31
 70
0
 71
0
 91
1
 92
1
 93
10
 72
1
 10
-7030.0
 20
200.0
 11
-7030.0
 21
-1330.0
 72
1
 10
-7030.0
 20
-1330.0
 11
-7030.0
 21
-1530.0
 72
1
 10
-7030.0
 20
-1530.0
 11
-7030.0
 21
-2200.0
 72
1
 10
-7030.0
 20
-2200.0
 11
-6780.0
 21
-2200.0
 72
1
 10
-6780.0
 20
-2200.0
 11
-6780.0
 21
-1530.0
 72
1
 10
-6780.0
 20
-1530.0
 11
-5680.0
 21
-1530.0
 72
1
 10
-5680.0
 20
-1530.0
 11
-5680.0
 21
-1330.0
 72
1
 10
-5680.0
 20
-1330.0
 11
-6780.0
 21
-1330.0
 72
1
 10
-6780.0
 20
-1330.0
 11
-6780.0
 21
200.0
 72
1
 10
-6780.0
 20
199.9999999999999716
 11
-7030.0
 21
199.9999999999999716
 97
0
 75
0
 76
1
 52
0.0
 41
50.0
 77
0
 78
1
 53
45.0
 43
0.0
 44
0.0
 45
-0.0883883476483184
 46
0.0883883476483185
 79
0
 98
0
1001
ACAD
1010
0.0
1020
0.0
1030
0
  0
HATCH
  5
242
100
AcDbEntity
  8
0
 62
256
370
-1
 48
1.0
  6
BYLAYER
100
AcDbHatch
 10
0.0
 20
0.0
 30
0.0
210
0.0
220
0.0
230
1.0
  2
ANSI31
 70
0
 71
0
 91
1
 92
1
 93
7
 72
1
 10
-6780.0
 20
-3490.0
 11
-7030.0
 21
-3490.0
 72
1
 10
-7030.0
 20
-3490.0
 11
-7030.0
 21
-4370.0
 72
1
 10
-7030.0
 20
-4370.0
 11
-7030.0
 21
-4620.0
 72
1
 10
-7030.0
 20
-4620.0
 11
-5830.0
 21
-4620.0
 72
1
 10
-5830.0
 20
-4620.0
 11
-5830.0
 21
-4370.0
 72
1
 10
-5830.0
 20
-4370.0
 11
-6780.0
 21
-4370.0
 72
1
 10
-6780.0
 20
-4370.0
 11
-6780.0
 21
-3490.0
 97
0
 75
0
 76
1
 52
0.0
 41
50.0
 77
0
 78
1
 53
45.0
 43
0.0
 44
0.0
 45
-0.0883883476483184
 46
0.0883883476483185
 79
0
 98
0
1001
ACAD
1010
0.0
1020
0.0
1030
0
  0
INSERT
  5
243
100
AcDbEntity
  8
voda
 62
256
370
-1
 48
1.0
  6
BYLAYER
100
AcDbBlockReference
  2
ARCHIT190
 10
400.0
 20
2600.0
 30
0.0
 41
50.0
 42
50.0
 43
1.0
  0
INSERT
  5
244
100
AcDbEntity
  8
voda
 62
256
370
-1
 48
1.0
  6
BYLAYER
100
AcDbBlockReference
  2
ARCHIT178
 10
1878.0397103092695943
 20
-365.7785679622978705
 30
0.0
 41
50.0
 42
50.0
 43
1.0
  0
LINE
  5
245
100
AcDbEntity
  8
electro_okiten
 62
256
370
100
 48
1.0
  6
BYLAYER
100
AcDbLine
 10
1962.2760577053504676
 20
-128.9636855898456815
 30
0.0
 11
1308.3412777872977131
 21
20.7779016957373983
 31
0.0
  0
LINE
  5
246
100
AcDbEntity
  8
electro_okiten
 62
256
370
120
 48
2.0
  6
BYLAYER
100
AcDbLine
 10
1962.2760577053504676
 20
-128.9636855898456815
 30
0.0
 11
-300.0
 21
0.0
 31
0.0
  0
LINE
  5
247
100
AcDbEntity
  8
electro
 62
256
370
-1
 48
1.0
  6
BYLAYER
100
AcDbLine
 10
1635.3086677463240903
 20
-54.0928919470541416
 30
0.0
 11
1635.3086677463240903
 21
-54.0928919470541416
 31
0.0
  0
LINE
  5
248
100
AcDbEntity
  8
electro_okiten
 62
256
370
-1
 48
1.0
  6
BYLAYER
100
AcDbLine
 10
2139.0283352238279804
 20
-123.6676737854733403
 30
0.0
 11
1708.8105842640215997
 21
-982.5379903819494984
 31
0.0
  0
LINE
  5
249
100
AcDbEntity
  8
electro_okiten
 62
256
370
-1
 48
1.0
  6
BYLAYER
100
AcDbLine
 10
1755.3920952065454912
 20
1505.8707750372495866
 30
0.0
 11
1228.1553734581923436
 21
22.8764374447606542
 31
0.0
  0
LINE
  5
24A
100
AcDbEntity
  8
electro_okiten
 62
256
370
-1
 48
1.0
  6
BYLAYER
100
AcDbLine
 10
-300.0
 20
200.0
 30
0.0
 11
-1900.0
 21
1000.0
 31
0.0
  0
LINE
  5
24B
100
AcDbEntity
  8
electro_okiten
 62
256
370
-1
 48
1.0
  6
BYLAYER
100
AcDbLine
 10
-400.0
 20
100.0
 30
0.0
 11
-3700.0
 21
-1200.0
 31
0.0
  0
LINE
  5
24C
100
AcDbEntity
  8
electro_okiten
 62
256
370
-1
 48
1.0
  6
BYLAYER
100
AcDbLine
 10
2185.098619638344644
 20
-122.5707622517943776
 30
0.0
 11
1300.0
 21
-3900.0
 31
0.0
  0
LINE
  5
24D
100
AcDbEntity
  8
electro_okiten
 62
256
370
-1
 48
1.0
  6
BYLAYER
100
AcDbLine
 10
1200.0
 20
-3900.0
 30
0.0
 11
2000.0
 21
-6000.0
 31
0.0
  0
LINE
  5
24E
100
AcDbEntity
  8
electro_okiten
 62
256
370
-1
 48
1.0
  6
BYLAYER
100
AcDbLine
 10
1150.5438304642907497
 20
-3908.6626565941660374
 30
0.0
 11
-200.0
 21
-5900.0
 31
0.0
  0
LINE
  5
24F
100
AcDbEntity
  8
electro_okiten
 62
256
370
-1
 48
1.0
  6
BYLAYER
100
AcDbLine
 10
-200.0
 20
-6050.0
 30
0.0
 11
-1941.8998212776493801
 21
-6543.6744274720731482
 31
0.0
  0
LINE
  5
250
100
AcDbEntity
  8
electro_okiten
 62
256
370
-1
 48
1.0
  6
BYLAYER
100
AcDbLine
 10
2032.4793542689631067
 20
-126.2312385274287294
 30
0.0
 11
-191.7868852313063144
 21
-3372.4137707101567685
 31
0.0
  0
LINE
  5
251
100
AcDbEntity
  8
electro_okiten
 62
256
370
-1
 48
1.0
  6
BYLAYER
100
AcDbLine
 10
-180.8690176013701603
 20
-3451.5683110271938858
 30
0.0
 11
-2000.0
 21
-3000.0
 31
0.0
  0
LINE
  5
252
100
AcDbEntity
  8
electro_okiten
 62
256
370
-1
 48
1.0
  6
BYLAYER
100
AcDbLine
 10
-200.0
 20
-3600.0
 30
0.0
 11
-3790.0
 21
-3600.0
 31
0.0
  0
LINE
  5
253
100
AcDbEntity
  8
electro_okiten
 62
256
370
-1
 48
1.0
  6
BYLAYER
100
AcDbLine
 10
-5478.4698614921144326
 20
-2704.479973718733163
 30
0.0
 11
-4200.0
 21
-2900.0
 31
0.0
  0
LINE
  5
254
100
AcDbEntity
  8
electro_okiten
 62
256
370
-1
 48
1.0
  6
BYLAYER
100
AcDbLine
 10
-4600.0
 20
1000.0
 30
0.0
 11
-4100.0
 21
-1000.0
 31
0.0
  0
LINE
  5
255
100
AcDbEntity
  8
electro_okiten
 62
256
370
-1
 48
1.0
  6
BYLAYER
100
AcDbLine
 10
-4100.0
 20
-3000.0
 30
0.0
 11
-3500.0
 21
-1200.0
 31
0.0
  0
ENDSEC
  0
SECTION
  2
OBJECTS
  0
DICTIONARY
  5
C
100
AcDbDictionary
280
0
281
1
  3
ACAD_GROUP
350
D
  3
ACAD_LAYOUT
350
1A
  3
ACAD_MLINESTYLE
350
17
  3
ACAD_PLOTSETTINGS
350
19
  3
ACAD_PLOTSTYLENAME
350
E
  3
AcDbVariableDictionary
350
256
  3
QCAD_OBJECTS
350
257
  0
DICTIONARY
  5
D
100
AcDbDictionary
280
0
281
1
  0
ACDBDICTIONARYWDFLT
  5
E
100
AcDbDictionary
281
1
  3
Normal
350
F
100
AcDbDictionaryWithDefault
340
F
  0
ACDBPLACEHOLDER
  5
F
  0
DICTIONARY
  5
17
100
AcDbDictionary
280
0
281
1
  3
Standard
350
18
  0
MLINESTYLE
  5
18
100
AcDbMlineStyle
  2
STANDARD
 70
0
  3

 62
256
 51
90.0
 52
90.0
 71
2
 49
0.5
 62
256
  6
BYLAYER
 49
-0.5
 62
256
  6
BYLAYER
  0
DICTIONARY
  5
19
100
AcDbDictionary
280
0
281
1
  0
DICTIONARY
  5
1A
100
AcDbDictionary
281
1
  3
Layout1
350
1E
  3
Layout2
350
26
  3
Model
350
22
  0
LAYOUT
  5
1E
100
AcDbPlotSettings
  1

  2
none_device
  4

  6

 40
0.0
 41
0.0
 42
0.0
 43
0.0
 44
0.0
 45
0.0
 46
0.0
 47
0.0
 48
0.0
 49
0.0
140
0.0
141
0.0
142
1.0
143
1.0
 70
688
 72
0
 73
0
 74
5
  7

 75
16
147
1.0
148
0.0
149
0.0
100
AcDbLayout
  1
Layout1
 70
1
 71
1
 10
0.0
 20
0.0
 11
420.0
 21
297.0
 12
0.0
 22
0.0
 32
0.0
 14
100000000000000000000.0
 24
100000000000000000000.0
 34
100000000000000000000.0
 15
-100000000000000000000.0
 25
-100000000000000000000.0
 35
-100000000000000000000.0
146
0.0
 13
0.0
 23
0.0
 33
0.0
 16
1.0
 26
0.0
 36
0.0
 17
0.0
 27
1.0
 37
0.0
 76
0
330
1B
  0
LAYOUT
  5
22
100
AcDbPlotSettings
  1

  2
none_device
  4

  6

 40
0.0
 41
0.0
 42
0.0
 43
0.0
 44
0.0
 45
0.0
 46
0.0
 47
0.0
 48
0.0
 49
0.0
140
0.0
141
0.0
142
1.0
143
1.0
 70
1712
 72
0
 73
0
 74
0
  7

 75
0
147
1.0
148
0.0
149
0.0
100
AcDbLayout
  1
Model
 70
1
 71
0
 10
0.0
 20
0.0
 11
12.0
 21
9.0
 12
0.0
 22
0.0
 32
0.0
 14
0.0
 24
0.0
 34
0.0
 15
0.0
 25
0.0
 35
0.0
146
0.0
 13
0.0
 23
0.0
 33
0.0
 16
1.0
 26
0.0
 36
0.0
 17
0.0
 27
1.0
 37
0.0
 76
0
330
1F
  0
LAYOUT
  5
26
100
AcDbPlotSettings
  1

  2
none_device
  4

  6

 40
0.0
 41
0.0
 42
0.0
 43
0.0
 44
0.0
 45
0.0
 46
0.0
 47
0.0
 48
0.0
 49
0.0
140
0.0
141
0.0
142
1.0
143
1.0
 70
688
 72
0
 73
0
 74
5
  7

 75
16
147
1.0
148
0.0
149
0.0
100
AcDbLayout
  1
Layout2
 70
1
 71
2
 10
0.0
 20
0.0
 11
12.0
 21
9.0
 12
0.0
 22
0.0
 32
0.0
 14
0.0
 24
0.0
 34
0.0
 15
0.0
 25
0.0
 35
0.0
146
0.0
 13
0.0
 23
0.0
 33
0.0
 16
1.0
 26
0.0
 36
0.0
 17
0.0
 27
1.0
 37
0.0
 76
0
330
23
  0
DICTIONARY
  5
256
100
AcDbDictionary
281
1
  3
DIMASSOC
350
259
  3
HIDETEXT
350
258
  0
DICTIONARYVAR
  5
258
100
DictionaryVariables
280
0
  1
2
  0
DICTIONARYVAR
  5
259
100
DictionaryVariables
280
0
  1
1
  0
DICTIONARY
  5
257
100
AcDbDictionary
281
1
  3
ColorSettings/BackgroundColor
350
25A
  3
ColorSettings/ColorMode
350
25B
  3
DimensionSettings/AngularFormat
350
25C
  3
DimensionSettings/AngularPrecision
350
25D
  3
DimensionSettings/DecimalPoint
350
25E
  3
DimensionSettings/DimensionFont
350
25F
  3
DimensionSettings/DimensionTextColor
350
260
  3
DimensionSettings/KeepProportions
350
261
  3
DimensionSettings/LinearFormat
350
262
  3
DimensionSettings/LinearPrecision
350
263
  3
Grid/DisplayGrid00
350
264
  3
Grid/DisplayGrid01
350
265
  3
Grid/DisplayGrid02
350
266
  3
Grid/DisplayGrid03
350
267
  3
Grid/GridSpacingX00
350
268
  3
Grid/GridSpacingX01
350
269
  3
Grid/GridSpacingX02
350
26A
  3
Grid/GridSpacingX03
350
26B
  3
Grid/GridSpacingY00
350
26C
  3
Grid/GridSpacingY01
350
26D
  3
Grid/GridSpacingY02
350
26E
  3
Grid/GridSpacingY03
350
26F
  3
Grid/IsometricGrid00
350
270
  3
Grid/IsometricGrid01
350
271
  3
Grid/IsometricGrid02
350
272
  3
Grid/IsometricGrid03
350
273
  3
Grid/IsometricProjection00
350
274
  3
Grid/IsometricProjection01
350
275
  3
Grid/IsometricProjection02
350
276
  3
Grid/IsometricProjection03
350
277
  3
Grid/MetaGridSpacingX00
350
278
  3
Grid/MetaGridSpacingX01
350
279
  3
Grid/MetaGridSpacingX02
350
27A
  3
Grid/MetaGridSpacingX03
350
27B
  3
Grid/MetaGridSpacingY00
350
27C
  3
Grid/MetaGridSpacingY01
350
27D
  3
Grid/MetaGridSpacingY02
350
27E
  3
Grid/MetaGridSpacingY03
350
27F
  3
LinetypeSettings/PSLTSCALE
350
280
  3
MultiPageSettings/Columns
350
281
  3
MultiPageSettings/GlueMarginsBottom
350
282
  3
MultiPageSettings/GlueMarginsLeft
350
283
  3
MultiPageSettings/GlueMarginsRight
350
284
  3
MultiPageSettings/GlueMarginsTop
350
285
  3
MultiPageSettings/PrintCropMarks
350
286
  3
MultiPageSettings/Rows
350
287
  3
PageSettings/OffsetX
350
288
  3
PageSettings/OffsetY
350
289
  3
PageSettings/PageOrientation
350
28A
  3
PageSettings/PaperHeight
350
28B
  3
PageSettings/PaperSizeName
350
28C
  3
PageSettings/PaperWidth
350
28D
  3
PageSettings/PointSize
350
28E
  3
PageSettings/Scale
350
28F
  3
PageSettings/ShowPaperBorders
350
290
  3
PageTagSettings/EnablePageTags
350
291
  3
PageTagSettings/TagAlignment
350
292
  3
PageTagSettings/TagFont
350
293
  3
PageTagSettings/TagPosition
350
294
  3
QCADVersion
350
295
  3
UnitSettings/PaperUnit
350
296
  3
Viewport/ViewportList.data
350
297
  3
ViewportCenter
350
298
  3
ViewportHeight
350
299
  3
ViewportWidth
350
29A
  0
XRECORD
  5
25A
330
257
100
AcDbXrecord
280
1
1000
White
  0
XRECORD
  5
25B
330
257
100
AcDbXrecord
280
1
1000
FullColor
  0
XRECORD
  5
25C
330
257
100
AcDbXrecord
280
1
 90
0
  0
XRECORD
  5
25D
330
257
100
AcDbXrecord
280
1
 90
1
  0
XRECORD
  5
25E
330
257
100
AcDbXrecord
280
1
 90
46
  0
XRECORD
  5
25F
330
257
100
AcDbXrecord
280
1
1000
DejaVu Sans
  0
XRECORD
  5
260
330
257
100
AcDbXrecord
280
1
1000
By Layer
  0
XRECORD
  5
261
330
257
100
AcDbXrecord
280
1
290
1
  0
XRECORD
  5
262
330
257
100
AcDbXrecord
280
1
 90
2
  0
XRECORD
  5
263
330
257
100
AcDbXrecord
280
1
 90
2
  0
XRECORD
  5
264
330
257
100
AcDbXrecord
280
1
290
1
  0
XRECORD
  5
265
330
257
100
AcDbXrecord
280
1
290
1
  0
XRECORD
  5
266
330
257
100
AcDbXrecord
280
1
290
1
  0
XRECORD
  5
267
330
257
100
AcDbXrecord
280
1
290
1
  0
XRECORD
  5
268
330
257
100
AcDbXrecord
280
1
1000
auto
  0
XRECORD
  5
269
330
257
100
AcDbXrecord
280
1
1000
auto
  0
XRECORD
  5
26A
330
257
100
AcDbXrecord
280
1
1000
auto
  0
XRECORD
  5
26B
330
257
100
AcDbXrecord
280
1
1000
auto
  0
XRECORD
  5
26C
330
257
100
AcDbXrecord
280
1
1000
auto
  0
XRECORD
  5
26D
330
257
100
AcDbXrecord
280
1
1000
auto
  0
XRECORD
  5
26E
330
257
100
AcDbXrecord
280
1
1000
auto
  0
XRECORD
  5
26F
330
257
100
AcDbXrecord
280
1
1000
auto
  0
XRECORD
  5
270
330
257
100
AcDbXrecord
280
1
290
0
  0
XRECORD
  5
271
330
257
100
AcDbXrecord
280
1
290
0
  0
XRECORD
  5
272
330
257
100
AcDbXrecord
280
1
290
0
  0
XRECORD
  5
273
330
257
100
AcDbXrecord
280
1
290
0
  0
XRECORD
  5
274
330
257
100
AcDbXrecord
280
1
 90
65537
  0
XRECORD
  5
275
330
257
100
AcDbXrecord
280
1
 90
65537
  0
XRECORD
  5
276
330
257
100
AcDbXrecord
280
1
 90
65537
  0
XRECORD
  5
277
330
257
100
AcDbXrecord
280
1
 90
65537
  0
XRECORD
  5
278
330
257
100
AcDbXrecord
280
1
1000
auto
  0
XRECORD
  5
279
330
257
100
AcDbXrecord
280
1
1000
auto
  0
XRECORD
  5
27A
330
257
100
AcDbXrecord
280
1
1000
auto
  0
XRECORD
  5
27B
330
257
100
AcDbXrecord
280
1
1000
auto
  0
XRECORD
  5
27C
330
257
100
AcDbXrecord
280
1
1000
auto
  0
XRECORD
  5
27D
330
257
100
AcDbXrecord
280
1
1000
auto
  0
XRECORD
  5
27E
330
257
100
AcDbXrecord
280
1
1000
auto
  0
XRECORD
  5
27F
330
257
100
AcDbXrecord
280
1
1000
auto
  0
XRECORD
  5
280
330
257
100
AcDbXrecord
280
1
290
0
  0
XRECORD
  5
281
330
257
100
AcDbXrecord
280
1
 90
1
  0
XRECORD
  5
282
330
257
100
AcDbXrecord
280
1
 40
10.0
  0
XRECORD
  5
283
330
257
100
AcDbXrecord
280
1
 40
10.0
  0
XRECORD
  5
284
330
257
100
AcDbXrecord
280
1
 40
10.0
  0
XRECORD
  5
285
330
257
100
AcDbXrecord
280
1
 40
10.0
  0
XRECORD
  5
286
330
257
100
AcDbXrecord
280
1
290
0
  0
XRECORD
  5
287
330
257
100
AcDbXrecord
280
1
 90
1
  0
XRECORD
  5
288
330
257
100
AcDbXrecord
280
1
 40
-8103.1011206193952603
  0
XRECORD
  5
289
330
257
100
AcDbXrecord
280
1
 40
-12713.6894451472144283
  0
XRECORD
  5
28A
330
257
100
AcDbXrecord
280
1
1000
Portrait
  0
XRECORD
  5
28B
330
257
100
AcDbXrecord
280
1
 40
297.0
  0
XRECORD
  5
28C
330
257
100
AcDbXrecord
280
1
1000
ISO A4
  0
XRECORD
  5
28D
330
257
100
AcDbXrecord
280
1
 40
210.0
  0
XRECORD
  5
28E
330
257
100
AcDbXrecord
280
1
1000
0.5
  0
XRECORD
  5
28F
330
257
100
AcDbXrecord
280
1
 40
0.0146
  0
XRECORD
  5
290
330
257
100
AcDbXrecord
280
1
290
1
  0
XRECORD
  5
291
330
257
100
AcDbXrecord
280
1
290
0
  0
XRECORD
  5
292
330
257
100
AcDbXrecord
280
1
1000
Inside
  0
XRECORD
  5
293
330
257
100
AcDbXrecord
280
1
1000
Arial,10,-1,5,50,0,0,0,0,0
  0
XRECORD
  5
294
330
257
100
AcDbXrecord
280
1
1000
TopLeft
  0
XRECORD
  5
295
330
257
100
AcDbXrecord
280
1
1000
3.26.1.1
  0
XRECORD
  5
296
330
257
100
AcDbXrecord
280
1
 90
4
  0
XRECORD
  5
297
330
257
100
AcDbXrecord
280
1
1000
00_Single.ui
  0
XRECORD
  5
299
330
257
100
AcDbXrecord
280
1
 40
15537.8178770949671161
  0
XRECORD
  5
29A
330
257
100
AcDbXrecord
280
1
 40
30264.261452513954282
  0
ENDSEC
  0
EOF
