999
dxflib 3.17.0.0
  0
SECTION
  2
HEADER
  9
$ACADVER
  1
AC1015
  9
$HANDSEED
  5
FFFF
  9
$DIMADEC
 70
0
  9
$DIMASZ
 40
15.0
  9
$DIMATFIT
 70
0
  9
$DIMAUNIT
 70
0
  9
$DIMAZIN
 70
2
  9
$DIMBLK
  1
0
  9
$DIMBLK1
  1
0
  9
$DIMBLK2
  1
0
  9
$DIMDEC
 70
4
  9
$DIMDLI
 40
30.0
  9
$DIMDSEP
 70
46
  9
$DIMEXE
 40
7.5
  9
$DIMEXO
 40
3.75
  9
$DIMGAP
 40
3.75
  9
$DIMLFAC
 40
1.0
  9
$DIMLUNIT
 70
2
  9
$DIMSCALE
 40
0.1
  9
$DIMTAD
 70
1
  9
$DIMTIH
 70
0
  9
$DIMTSZ
 40
0.0
  9
$DIMTXT
 40
15.0
  9
$DIMZIN
 70
8
  9
$DWGCODEPAGE
  3
ANSI_1252
  9
$INSUNITS
 70
4
  9
$LTSCALE
 40
1.0
  9
$MAXACTVP
 70
64
  9
$MEASUREMENT
 70
1
  9
$MIRRTEXT
 70
0
  9
$PDMODE
 70
0
  9
$PDSIZE
 40
0.0
  0
ENDSEC
  0
SECTION
  2
TABLES
  0
TABLE
  2
VPORT
  5
8
100
AcDbSymbolTable
 70
1
  0
VPORT
  5
30
100
AcDbSymbolTableRecord
100
AcDbViewportTableRecord
  2
*Active
 70
0
 10
0.0
 20
0.0
 11
1.0
 21
1.0
 12
286.3055555555554861
 22
148.5
 13
0.0
 23
0.0
 14
10.0
 24
10.0
 15
10.0
 25
10.0
 16
0.0
 26
0.0
 36
1.0
 17
0.0
 27
0.0
 37
0.0
 40
297.0
 41
1.92798353909465
 42
50.0
 43
0.0
 44
0.0
 50
0.0
 51
0.0
 71
0
 72
100
 73
1
 74
3
 75
1
 76
1
 77
0
 78
0
281
0
 65
1
110
0.0
120
0.0
130
0.0
111
1.0
121
0.0
131
0.0
112
0.0
122
1.0
132
0.0
 79
0
146
0.0
  0
ENDTAB
  0
TABLE
  2
LTYPE
  5
5
100
AcDbSymbolTable
 70
41
  0
LTYPE
  5
16
100
AcDbSymbolTableRecord
100
AcDbLinetypeTableRecord
  2
Continuous
 70
0
  3
Solid line
 72
65
 73
0
 40
0.0
  0
LTYPE
  5
31
100
AcDbSymbolTableRecord
100
AcDbLinetypeTableRecord
  2
DASHED
 70
0
  3
Dashed __ __ __ __ __ __ __ __ __ __ __ __ __ _
 72
65
 73
2
 40
19.0499999999999972
 49
12.6999999999999993
 74
0
 49
-6.3499999999999996
 74
0
  0
LTYPE
  5
32
100
AcDbSymbolTableRecord
100
AcDbLinetypeTableRecord
  2
ACAD_ISO15W100
 70
0
  3
ISO double-dash triple-dot __ __ . . . __ __ . .
 72
65
 73
10
 40
39.0000000000000071
 49
12.0
 74
0
 49
-3.0
 74
0
 49
12.0
 74
0
 49
-2.9500000000000002
 74
0
 49
0.1
 74
0
 49
-2.9000000000000004
 74
0
 49
0.1
 74
0
 49
-2.9000000000000004
 74
0
 49
0.1
 74
0
 49
-2.9500000000000002
 74
0
  0
LTYPE
  5
33
100
AcDbSymbolTableRecord
100
AcDbLinetypeTableRecord
  2
PHANTOM
 70
0
  3
Phantom ______  __  __  ______  __  __  ______ 
 72
65
 73
6
 40
63.5000000000000071
 49
31.75
 74
0
 49
-6.3499999999999996
 74
0
 49
6.3499999999999996
 74
0
 49
-6.3499999999999996
 74
0
 49
6.3499999999999996
 74
0
 49
-6.3499999999999996
 74
0
  0
LTYPE
  5
34
100
AcDbSymbolTableRecord
100
AcDbLinetypeTableRecord
  2
HIDDEN
 70
0
  3
Hidden __ __ __ __ __ __ __ __ __ __ __ __ __ __
 72
65
 73
2
 40
9.5249999999999986
 49
6.3499999999999996
 74
0
 49
-3.1749999999999998
 74
0
  0
LTYPE
  5
35
100
AcDbSymbolTableRecord
100
AcDbLinetypeTableRecord
  2
HIDDENX2
 70
0
  3
Hidden (2x) ____ ____ ____ ____ ____ ____ ____ 
 72
65
 73
2
 40
19.0499999999999972
 49
12.6999999999999993
 74
0
 49
-6.3499999999999996
 74
0
  0
LTYPE
  5
36
100
AcDbSymbolTableRecord
100
AcDbLinetypeTableRecord
  2
CENTER2
 70
0
  3
Center (.5x) ___ _ ___ _ ___ _ ___ _ ___ _ ___
 72
65
 73
4
 40
28.5750000000000028
 49
19.0500000000000007
 74
0
 49
-3.1749999999999998
 74
0
 49
3.1749999999999998
 74
0
 49
-3.1749999999999998
 74
0
  0
LTYPE
  5
37
100
AcDbSymbolTableRecord
100
AcDbLinetypeTableRecord
  2
DOTX2
 70
0
  3
Dot (2x) .  .  .  .  .  .  .  .  .  .  .  .  .  .
 72
65
 73
2
 40
12.6999999999999993
 49
0.1
 74
0
 49
-12.5999999999999996
 74
0
  0
LTYPE
  5
38
100
AcDbSymbolTableRecord
100
AcDbLinetypeTableRecord
  2
ACAD_ISO10W100
 70
0
  3
ISO dash dot __ . __ . __ . __ . __ . __ . __ . 
 72
65
 73
4
 40
18.0
 49
12.0
 74
0
 49
-2.9500000000000002
 74
0
 49
0.1
 74
0
 49
-2.9500000000000002
 74
0
  0
LTYPE
  5
39
100
AcDbSymbolTableRecord
100
AcDbLinetypeTableRecord
  2
ACAD_ISO07W100
 70
0
  3
ISO dot . . . . . . . . . . . . . . . . . . . . 
 72
65
 73
2
 40
3.0
 49
0.1
 74
0
 49
-2.8999999999999999
 74
0
  0
LTYPE
  5
3A
100
AcDbSymbolTableRecord
100
AcDbLinetypeTableRecord
  2
PHANTOMX2
 70
0
  3
Phantom (2x) ____________    ____    ____   _
 72
65
 73
6
 40
127.0000000000000142
 49
63.5
 74
0
 49
-12.6999999999999993
 74
0
 49
12.6999999999999993
 74
0
 49
-12.6999999999999993
 74
0
 49
12.6999999999999993
 74
0
 49
-12.6999999999999993
 74
0
  0
LTYPE
  5
3B
100
AcDbSymbolTableRecord
100
AcDbLinetypeTableRecord
  2
DASHEDX2
 70
0
  3
Dashed (2x) ____  ____  ____  ____  ____  ___
 72
65
 73
2
 40
38.0999999999999943
 49
25.3999999999999986
 74
0
 49
-12.6999999999999993
 74
0
  0
LTYPE
  5
3C
100
AcDbSymbolTableRecord
100
AcDbLinetypeTableRecord
  2
DOT2
 70
0
  3
Dot (.5x) ........................................
 72
65
 73
2
 40
3.1749999999999998
 49
0.1
 74
0
 49
-3.0749999999999997
 74
0
  0
LTYPE
  5
3D
100
AcDbSymbolTableRecord
100
AcDbLinetypeTableRecord
  2
BORDERX2
 70
0
  3
Border (2x) ____  ____  .  ____  ____  .  ___
 72
65
 73
6
 40
88.8999999999999773
 49
25.3999999999999986
 74
0
 49
-12.6999999999999993
 74
0
 49
25.3999999999999986
 74
0
 49
-12.6499999999999986
 74
0
 49
0.1
 74
0
 49
-12.6499999999999986
 74
0
  0
LTYPE
  5
3E
100
AcDbSymbolTableRecord
100
AcDbLinetypeTableRecord
  2
ACAD_ISO12W100
 70
0
  3
ISO dash double-dot __ . . __ . . __ . . __ . . 
 72
65
 73
6
 40
21.0
 49
12.0
 74
0
 49
-2.9500000000000002
 74
0
 49
0.1
 74
0
 49
-2.9000000000000004
 74
0
 49
0.1
 74
0
 49
-2.9500000000000002
 74
0
  0
LTYPE
  5
3F
100
AcDbSymbolTableRecord
100
AcDbLinetypeTableRecord
  2
CENTER
 70
0
  3
Center ____ _ ____ _ ____ _ ____ _ ____ _ ____
 72
65
 73
4
 40
50.8000000000000043
 49
31.75
 74
0
 49
-6.3499999999999996
 74
0
 49
6.3499999999999996
 74
0
 49
-6.3499999999999996
 74
0
  0
LTYPE
  5
40
100
AcDbSymbolTableRecord
100
AcDbLinetypeTableRecord
  2
ACAD_ISO02W100
 70
0
  3
ISO dash __ __ __ __ __ __ __ __ __ __ __ __ __
 72
65
 73
2
 40
15.0
 49
12.0
 74
0
 49
-3.0
 74
0
  0
LTYPE
  5
41
100
AcDbSymbolTableRecord
100
AcDbLinetypeTableRecord
  2
ACAD_ISO14W100
 70
0
  3
ISO dash triple-dot __ . . . __ . . . __ . . . _
 72
65
 73
8
 40
24.0000000000000036
 49
12.0
 74
0
 49
-2.9500000000000002
 74
0
 49
0.1
 74
0
 49
-2.9000000000000004
 74
0
 49
0.1
 74
0
 49
-2.9000000000000004
 74
0
 49
0.1
 74
0
 49
-2.9500000000000002
 74
0
  0
LTYPE
  5
42
100
AcDbSymbolTableRecord
100
AcDbLinetypeTableRecord
  2
DIVIDE
 70
0
  3
Divide ____ . . ____ . . ____ . . ____ . . ____
 72
65
 73
6
 40
31.7500000000000036
 49
12.6999999999999993
 74
0
 49
-6.2999999999999998
 74
0
 49
0.1
 74
0
 49
-6.25
 74
0
 49
0.1
 74
0
 49
-6.2999999999999998
 74
0
  0
LTYPE
  5
43
100
AcDbSymbolTableRecord
100
AcDbLinetypeTableRecord
  2
DASHDOT
 70
0
  3
Dash dot __ . __ . __ . __ . __ . __ . __ . __
 72
65
 73
4
 40
25.4000000000000021
 49
12.6999999999999993
 74
0
 49
-6.2999999999999998
 74
0
 49
0.1
 74
0
 49
-6.2999999999999998
 74
0
  0
LTYPE
  5
44
100
AcDbSymbolTableRecord
100
AcDbLinetypeTableRecord
  2
ACAD_ISO05W100
 70
0
  3
ISO long-dash double-dot ____ .. ____ .. ____ . 
 72
65
 73
6
 40
33.0000000000000071
 49
24.0
 74
0
 49
-2.9500000000000002
 74
0
 49
0.1
 74
0
 49
-2.9000000000000004
 74
0
 49
0.1
 74
0
 49
-2.9500000000000002
 74
0
  0
LTYPE
  5
45
100
AcDbSymbolTableRecord
100
AcDbLinetypeTableRecord
  2
DIVIDEX2
 70
0
  3
Divide (2x) ________  .  .  ________  .  .  _
 72
65
 73
6
 40
63.5
 49
25.3999999999999986
 74
0
 49
-12.6499999999999986
 74
0
 49
0.1
 74
0
 49
-12.5999999999999979
 74
0
 49
0.1
 74
0
 49
-12.6499999999999986
 74
0
  0
LTYPE
  5
46
100
AcDbSymbolTableRecord
100
AcDbLinetypeTableRecord
  2
BORDER2
 70
0
  3
Border (.5x) __.__.__.__.__.__.__.__.__.__.__.
 72
65
 73
6
 40
22.2250000000000014
 49
6.3499999999999996
 74
0
 49
-3.1749999999999998
 74
0
 49
6.3499999999999996
 74
0
 49
-3.125
 74
0
 49
0.1
 74
0
 49
-3.125
 74
0
  0
LTYPE
  5
47
100
AcDbSymbolTableRecord
100
AcDbLinetypeTableRecord
  2
DASHDOTX2
 70
0
  3
Dash dot (2x) ____  .  ____  .  ____  .  ___
 72
65
 73
4
 40
50.7999999999999972
 49
25.3999999999999986
 74
0
 49
-12.6499999999999986
 74
0
 49
0.1
 74
0
 49
-12.6499999999999986
 74
0
  0
LTYPE
  5
15
100
AcDbSymbolTableRecord
100
AcDbLinetypeTableRecord
  2
BYLAYER
 70
0
  3

 72
65
 73
0
 40
0.0
  0
LTYPE
  5
48
100
AcDbSymbolTableRecord
100
AcDbLinetypeTableRecord
  2
ACAD_ISO03W100
 70
0
  3
ISO dash space __    __    __    __    __    __
 72
65
 73
2
 40
30.0
 49
12.0
 74
0
 49
-18.0
 74
0
  0
LTYPE
  5
49
100
AcDbSymbolTableRecord
100
AcDbLinetypeTableRecord
  2
HIDDEN2
 70
0
  3
Hidden (.5x) _ _ _ _ _ _ _ _ _ _ _ _ _ _ _ _ _ 
 72
65
 73
2
 40
4.7624999999999993
 49
3.1749999999999998
 74
0
 49
-1.5874999999999999
 74
0
  0
LTYPE
  5
4A
100
AcDbSymbolTableRecord
100
AcDbLinetypeTableRecord
  2
DIVIDE2
 70
0
  3
Divide (.5x) __..__..__..__..__..__..__..__.._
 72
65
 73
6
 40
15.8749999999999982
 49
6.3499999999999996
 74
0
 49
-3.125
 74
0
 49
0.1
 74
0
 49
-3.0750000000000002
 74
0
 49
0.1
 74
0
 49
-3.125
 74
0
  0
LTYPE
  5
4B
100
AcDbSymbolTableRecord
100
AcDbLinetypeTableRecord
  2
ACAD_ISO13W100
 70
0
  3
ISO double-dash double-dot __ __ . . __ __ . . _
 72
65
 73
8
 40
36.0000000000000071
 49
12.0
 74
0
 49
-3.0
 74
0
 49
12.0
 74
0
 49
-2.9500000000000002
 74
0
 49
0.1
 74
0
 49
-2.9000000000000004
 74
0
 49
0.1
 74
0
 49
-2.9500000000000002
 74
0
  0
LTYPE
  5
4C
100
AcDbSymbolTableRecord
100
AcDbLinetypeTableRecord
  2
CENTERX2
 70
0
  3
Center (2x) ________  __  ________  __  _____
 72
65
 73
4
 40
101.6000000000000085
 49
63.5
 74
0
 49
-12.6999999999999993
 74
0
 49
12.6999999999999993
 74
0
 49
-12.6999999999999993
 74
0
  0
LTYPE
  5
4D
100
AcDbSymbolTableRecord
100
AcDbLinetypeTableRecord
  2
DASHED2
 70
0
  3
Dashed (.5x) _ _ _ _ _ _ _ _ _ _ _ _ _ _ _ _ _ 
 72
65
 73
2
 40
9.5249999999999986
 49
6.3499999999999996
 74
0
 49
-3.1749999999999998
 74
0
  0
LTYPE
  5
4E
100
AcDbSymbolTableRecord
100
AcDbLinetypeTableRecord
  2
PHANTOM2
 70
0
  3
Phantom (.5x) ___ _ _ ___ _ _ ___ _ _ ___ _ _
 72
65
 73
6
 40
31.7500000000000036
 49
15.875
 74
0
 49
-3.1749999999999998
 74
0
 49
3.1749999999999998
 74
0
 49
-3.1749999999999998
 74
0
 49
3.1749999999999998
 74
0
 49
-3.1749999999999998
 74
0
  0
LTYPE
  5
4F
100
AcDbSymbolTableRecord
100
AcDbLinetypeTableRecord
  2
ACAD_ISO09W100
 70
0
  3
ISO long-dash double-short-dash ____ __ __ ____
 72
65
 73
6
 40
45.0
 49
24.0
 74
0
 49
-3.0
 74
0
 49
6.0
 74
0
 49
-3.0
 74
0
 49
6.0
 74
0
 49
-3.0
 74
0
  0
LTYPE
  5
50
100
AcDbSymbolTableRecord
100
AcDbLinetypeTableRecord
  2
ACAD_ISO06W100
 70
0
  3
ISO long-dash triple-dot ____ ... ____ ... ____
 72
65
 73
8
 40
36.0000000000000071
 49
24.0
 74
0
 49
-2.9500000000000002
 74
0
 49
0.1
 74
0
 49
-2.9000000000000004
 74
0
 49
0.1
 74
0
 49
-2.9000000000000004
 74
0
 49
0.1
 74
0
 49
-2.9500000000000002
 74
0
  0
LTYPE
  5
51
100
AcDbSymbolTableRecord
100
AcDbLinetypeTableRecord
  2
DASHDOT2
 70
0
  3
Dash dot (.5x) _._._._._._._._._._._._._._._.
 72
65
 73
4
 40
12.6999999999999993
 49
6.3499999999999996
 74
0
 49
-3.125
 74
0
 49
0.1
 74
0
 49
-3.125
 74
0
  0
LTYPE
  5
14
100
AcDbSymbolTableRecord
100
AcDbLinetypeTableRecord
  2
BYBLOCK
 70
0
  3

 72
65
 73
0
 40
0.0
  0
LTYPE
  5
52
100
AcDbSymbolTableRecord
100
AcDbLinetypeTableRecord
  2
DOT
 70
0
  3
Dot . . . . . . . . . . . . . . . . . . . . . . . .
 72
65
 73
2
 40
6.3499999999999996
 49
0.1
 74
0
 49
-6.25
 74
0
  0
LTYPE
  5
53
100
AcDbSymbolTableRecord
100
AcDbLinetypeTableRecord
  2
BORDER
 70
0
  3
Border __ __ . __ __ . __ __ . __ __ . __ __ .
 72
65
 73
6
 40
44.4499999999999957
 49
12.6999999999999993
 74
0
 49
-6.3499999999999996
 74
0
 49
12.6999999999999993
 74
0
 49
-6.2999999999999998
 74
0
 49
0.1
 74
0
 49
-6.2999999999999998
 74
0
  0
LTYPE
  5
54
100
AcDbSymbolTableRecord
100
AcDbLinetypeTableRecord
  2
ACAD_ISO08W100
 70
0
  3
ISO long-dash short-dash ____ __ ____ __ ____ _
 72
65
 73
4
 40
36.0
 49
24.0
 74
0
 49
-3.0
 74
0
 49
6.0
 74
0
 49
-3.0
 74
0
  0
LTYPE
  5
55
100
AcDbSymbolTableRecord
100
AcDbLinetypeTableRecord
  2
ACAD_ISO04W100
 70
0
  3
ISO long-dash dot ____ . ____ . ____ . ____ . _
 72
65
 73
4
 40
30.0
 49
24.0
 74
0
 49
-2.9500000000000002
 74
0
 49
0.1
 74
0
 49
-2.9500000000000002
 74
0
  0
LTYPE
  5
56
100
AcDbSymbolTableRecord
100
AcDbLinetypeTableRecord
  2
ACAD_ISO11W100
 70
0
  3
ISO double-dash dot __ __ . __ __ . __ __ . __ _
 72
65
 73
6
 40
33.0
 49
12.0
 74
0
 49
-3.0
 74
0
 49
12.0
 74
0
 49
-2.9500000000000002
 74
0
 49
0.1
 74
0
 49
-2.9500000000000002
 74
0
  0
ENDTAB
  0
TABLE
  2
LAYER
  5
2
100
AcDbSymbolTable
 70
8
  0
LAYER
  5
57
100
AcDbSymbolTableRecord
100
AcDbLayerTableRecord
  2
ventili
 70
1
 62
5
420
4607
  6
Continuous
370
25
390
F
  0
LAYER
  5
58
100
AcDbSymbolTableRecord
100
AcDbLayerTableRecord
  2
instalacija toplo
 70
4
 62
1
420
16711680
  6
Continuous
370
50
390
F
  0
LAYER
  5
59
100
AcDbSymbolTableRecord
100
AcDbLayerTableRecord
  2
obj-v
 70
4
 62
8
420
8355711
  6
Continuous
370
18
390
F
  0
LAYER
  5
5A
100
AcDbSymbolTableRecord
100
AcDbLayerTableRecord
  2
text
 70
5
 62
7
420
16777215
  6
Continuous
370
25
390
F
  0
LAYER
  5
5B
100
AcDbSymbolTableRecord
100
AcDbLayerTableRecord
  2
mjere
 70
4
 62
6
420
16711935
  6
Continuous
370
25
390
F
  0
LAYER
  5
5C
100
AcDbSymbolTableRecord
100
AcDbLayerTableRecord
  2
instalacija
 70
0
 62
4
420
65535
  6
Continuous
370
50
390
F
  0
LAYER
  5
5D
100
AcDbSymbolTableRecord
100
AcDbLayerTableRecord
  2
uredjaji
 70
4
 62
30
420
16744192
  6
Continuous
370
25
390
F
  0
LAYER
  5
10
100
AcDbSymbolTableRecord
100
AcDbLayerTableRecord
  2
0
 70
4
 62
7
420
16777215
  6
Continuous
370
25
390
F
  0
ENDTAB
  0
TABLE
  2
STYLE
  5
3
100
AcDbSymbolTable
 70
28
  0
STYLE
  5
5E
100
AcDbSymbolTableRecord
100
AcDbTextStyleTableRecord
  2
Standard
 70
0
 40
0.0
 41
1.0
 50
0.0
 71
0
 42
2.5
  3

  4

1001
ACAD
1000
txt
1071
0
  0
STYLE
  5
5F
100
AcDbSymbolTableRecord
100
AcDbTextStyleTableRecord
  2
textstyle0
 70
0
 40
0.0
 41
1.0
 50
0.0
 71
0
 42
3.0
  3

  4

1001
ACAD
1000
Normal_fix
1071
0
  0
STYLE
  5
60
100
AcDbSymbolTableRecord
100
AcDbTextStyleTableRecord
  2
textstyle1
 70
0
 40
0.0
 41
1.0
 50
0.0
 71
0
 42
1.0
  3

  4

1001
ACAD
1000
Liberation Sans
1071
0
  0
STYLE
  5
61
100
AcDbSymbolTableRecord
100
AcDbTextStyleTableRecord
  2
textstyle2
 70
0
 40
0.0
 41
1.0
 50
0.0
 71
0
 42
1.0
  3

  4

1001
ACAD
1000
Liberation Sans
1071
0
  0
STYLE
  5
62
100
AcDbSymbolTableRecord
100
AcDbTextStyleTableRecord
  2
textstyle3
 70
0
 40
0.0
 41
1.0
 50
0.0
 71
0
 42
1.0
  3

  4

1001
ACAD
1000
Liberation Sans
1071
0
  0
STYLE
  5
63
100
AcDbSymbolTableRecord
100
AcDbTextStyleTableRecord
  2
textstyle4
 70
0
 40
0.0
 41
1.0
 50
0.0
 71
0
 42
1.0
  3

  4

1001
ACAD
1000
Liberation Sans
1071
0
  0
STYLE
  5
64
100
AcDbSymbolTableRecord
100
AcDbTextStyleTableRecord
  2
textstyle5
 70
0
 40
0.0
 41
1.0
 50
0.0
 71
0
 42
1.0
  3

  4

1001
ACAD
1000
Liberation Sans
1071
0
  0
STYLE
  5
65
100
AcDbSymbolTableRecord
100
AcDbTextStyleTableRecord
  2
textstyle6
 70
0
 40
0.0
 41
1.0
 50
0.0
 71
0
 42
1.0
  3

  4

1001
ACAD
1000
Liberation Sans
1071
0
  0
STYLE
  5
66
100
AcDbSymbolTableRecord
100
AcDbTextStyleTableRecord
  2
textstyle7
 70
0
 40
0.0
 41
1.0
 50
0.0
 71
0
 42
1.0
  3

  4

1001
ACAD
1000
Liberation Sans
1071
0
  0
STYLE
  5
67
100
AcDbSymbolTableRecord
100
AcDbTextStyleTableRecord
  2
textstyle8
 70
0
 40
0.0
 41
1.0
 50
0.0
 71
0
 42
1.0
  3

  4

1001
ACAD
1000
Liberation Sans
1071
0
  0
STYLE
  5
68
100
AcDbSymbolTableRecord
100
AcDbTextStyleTableRecord
  2
textstyle9
 70
0
 40
0.0
 41
1.0
 50
0.0
 71
0
 42
1.0
  3

  4

1001
ACAD
1000
Liberation Sans
1071
0
  0
STYLE
  5
69
100
AcDbSymbolTableRecord
100
AcDbTextStyleTableRecord
  2
textstyle10
 70
0
 40
0.0
 41
1.0
 50
0.0
 71
0
 42
1.0
  3

  4

1001
ACAD
1000
Liberation Sans
1071
0
  0
STYLE
  5
6A
100
AcDbSymbolTableRecord
100
AcDbTextStyleTableRecord
  2
textstyle11
 70
0
 40
0.0
 41
1.0
 50
0.0
 71
0
 42
1.0
  3

  4

1001
ACAD
1000
Liberation Sans
1071
0
  0
STYLE
  5
6B
100
AcDbSymbolTableRecord
100
AcDbTextStyleTableRecord
  2
textstyle12
 70
0
 40
0.0
 41
1.0
 50
0.0
 71
0
 42
1.0
  3

  4

1001
ACAD
1000
Liberation Sans
1071
0
  0
STYLE
  5
6C
100
AcDbSymbolTableRecord
100
AcDbTextStyleTableRecord
  2
textstyle13
 70
0
 40
0.0
 41
1.0
 50
0.0
 71
0
 42
1.0
  3

  4

1001
ACAD
1000
Liberation Sans
1071
0
  0
STYLE
  5
6D
100
AcDbSymbolTableRecord
100
AcDbTextStyleTableRecord
  2
textstyle14
 70
0
 40
0.0
 41
1.0
 50
0.0
 71
0
 42
1.0
  3

  4

1001
ACAD
1000
Liberation Sans
1071
0
  0
STYLE
  5
6E
100
AcDbSymbolTableRecord
100
AcDbTextStyleTableRecord
  2
textstyle15
 70
0
 40
0.0
 41
1.0
 50
0.0
 71
0
 42
1.0
  3

  4

1001
ACAD
1000
Liberation Sans
1071
0
  0
STYLE
  5
6F
100
AcDbSymbolTableRecord
100
AcDbTextStyleTableRecord
  2
textstyle16
 70
0
 40
0.0
 41
1.0
 50
0.0
 71
0
 42
1.0
  3

  4

1001
ACAD
1000
Liberation Sans
1071
0
  0
STYLE
  5
70
100
AcDbSymbolTableRecord
100
AcDbTextStyleTableRecord
  2
textstyle17
 70
0
 40
0.0
 41
1.0
 50
0.0
 71
0
 42
1.0
  3

  4

1001
ACAD
1000
Liberation Sans
1071
0
  0
STYLE
  5
71
100
AcDbSymbolTableRecord
100
AcDbTextStyleTableRecord
  2
textstyle18
 70
0
 40
0.0
 41
1.0
 50
0.0
 71
0
 42
1.0
  3

  4

1001
ACAD
1000
Liberation Sans
1071
0
  0
STYLE
  5
72
100
AcDbSymbolTableRecord
100
AcDbTextStyleTableRecord
  2
textstyle19
 70
0
 40
0.0
 41
1.0
 50
0.0
 71
0
 42
1.0
  3

  4

1001
ACAD
1000
Liberation Sans
1071
0
  0
STYLE
  5
73
100
AcDbSymbolTableRecord
100
AcDbTextStyleTableRecord
  2
textstyle20
 70
0
 40
0.0
 41
1.0
 50
0.0
 71
0
 42
1.0
  3

  4

1001
ACAD
1000
Liberation Sans
1071
0
  0
STYLE
  5
74
100
AcDbSymbolTableRecord
100
AcDbTextStyleTableRecord
  2
textstyle21
 70
0
 40
0.0
 41
1.0
 50
0.0
 71
0
 42
1.0
  3

  4

1001
ACAD
1000
Liberation Sans
1071
0
  0
STYLE
  5
75
100
AcDbSymbolTableRecord
100
AcDbTextStyleTableRecord
  2
textstyle22
 70
0
 40
0.0
 41
1.0
 50
0.0
 71
0
 42
1.0
  3

  4

1001
ACAD
1000
Liberation Sans
1071
0
  0
STYLE
  5
76
100
AcDbSymbolTableRecord
100
AcDbTextStyleTableRecord
  2
textstyle23
 70
0
 40
0.0
 41
1.0
 50
0.0
 71
0
 42
1.0
  3

  4

1001
ACAD
1000
Liberation Sans
1071
0
  0
STYLE
  5
77
100
AcDbSymbolTableRecord
100
AcDbTextStyleTableRecord
  2
textstyle24
 70
0
 40
0.0
 41
1.0
 50
0.0
 71
0
 42
1.0
  3

  4

1001
ACAD
1000
Liberation Sans
1071
0
  0
STYLE
  5
78
100
AcDbSymbolTableRecord
100
AcDbTextStyleTableRecord
  2
textstyle25
 70
0
 40
0.0
 41
1.0
 50
0.0
 71
0
 42
1.0
  3

  4

1001
ACAD
1000
Liberation Sans
1071
0
  0
STYLE
  5
79
100
AcDbSymbolTableRecord
100
AcDbTextStyleTableRecord
  2
textstyle26
 70
0
 40
0.0
 41
1.0
 50
0.0
 71
0
 42
1.0
  3

  4

1001
ACAD
1000
Liberation Sans
1071
0
  0
ENDTAB
  0
TABLE
  2
VIEW
  5
6
100
AcDbSymbolTable
 70
0
  0
ENDTAB
  0
TABLE
  2
UCS
  5
7
100
AcDbSymbolTable
 70
0
  0
ENDTAB
  0
TABLE
  2
APPID
  5
9
100
AcDbSymbolTable
 70
1
  0
APPID
  5
12
100
AcDbSymbolTableRecord
100
AcDbRegAppTableRecord
  2
ACAD
 70
0
  0
APPID
  5
7A
100
AcDbSymbolTableRecord
100
AcDbRegAppTableRecord
  2
QCAD
 70
0
  0
ENDTAB
  0
TABLE
  2
DIMSTYLE
  5
A
100
AcDbSymbolTable
 70
1
100
AcDbDimStyleTable
 71
0
  0
DIMSTYLE
105
27
100
AcDbSymbolTableRecord
100
AcDbDimStyleTableRecord
  2
Standard
 41
15.0
 42
3.75
 43
3.75
 44
7.5
 70
0
 73
0
 74
0
 77
1
 78
8
140
15.0
141
2.5
143
0.03937007874016
147
3.75
171
3
172
1
271
2
272
2
274
3
278
44
283
0
284
8
340
5E
  0
ENDTAB
  0
TABLE
  2
BLOCK_RECORD
  5
1
100
AcDbSymbolTable
 70
1
  0
BLOCK_RECORD
  5
1F
100
AcDbSymbolTableRecord
100
AcDbBlockTableRecord
  2
*Model_Space
340
22
  0
BLOCK_RECORD
  5
1B
100
AcDbSymbolTableRecord
100
AcDbBlockTableRecord
  2
*Paper_Space
340
1E
  0
BLOCK_RECORD
  5
23
100
AcDbSymbolTableRecord
100
AcDbBlockTableRecord
  2
*Paper_Space0
340
26
  0
BLOCK_RECORD
  5
7B
100
AcDbSymbolTableRecord
100
AcDbBlockTableRecord
  2
toilet
340
0
  0
BLOCK_RECORD
  5
7C
100
AcDbSymbolTableRecord
100
AcDbBlockTableRecord
  2
gaszaehl
340
0
  0
BLOCK_RECORD
  5
7D
100
AcDbSymbolTableRecord
100
AcDbBlockTableRecord
  2
ARCHIT(6)
340
0
  0
BLOCK_RECORD
  5
7E
100
AcDbSymbolTableRecord
100
AcDbBlockTableRecord
  2
sh80_sw
340
0
  0
BLOCK_RECORD
  5
7F
100
AcDbSymbolTableRecord
100
AcDbBlockTableRecord
  2
sink
340
0
  0
BLOCK_RECORD
  5
80
100
AcDbSymbolTableRecord
100
AcDbBlockTableRecord
  2
ARCHIT(193)
340
0
  0
BLOCK_RECORD
  5
81
100
AcDbSymbolTableRecord
100
AcDbBlockTableRecord
  2
ARCHIT(190)
340
0
  0
ENDTAB
  0
ENDSEC
  0
SECTION
  2
BLOCKS
  0
BLOCK
  5
20
100
AcDbEntity
  8
0
100
AcDbBlockBegin
  2
*Model_Space
 70
0
 10
0.0
 20
0.0
 30
0.0
  3
*Model_Space
  1

  0
ENDBLK
  5
21
100
AcDbEntity
  8
0
100
AcDbBlockEnd
  0
BLOCK
  5
1C
100
AcDbEntity
 67
1
  8
0
100
AcDbBlockBegin
  2
*Paper_Space
 70
0
 10
0.0
 20
0.0
 30
0.0
  3
*Paper_Space
  1

  0
ENDBLK
  5
1D
100
AcDbEntity
 67
1
  8
0
100
AcDbBlockEnd
  0
BLOCK
  5
24
100
AcDbEntity
  8
0
100
AcDbBlockBegin
  2
*Paper_Space0
 70
0
 10
0.0
 20
0.0
 30
0.0
  3
*Paper_Space0
  1

  0
ENDBLK
  5
25
100
AcDbEntity
  8
0
100
AcDbBlockEnd
  0
BLOCK
  5
82
100
AcDbEntity
  8
0
100
AcDbBlockBegin
  2
toilet
 70
0
 10
0.0
 20
0.0
 30
0.0
  3
toilet
  1

  0
LINE
  5
83
100
AcDbEntity
  8
uredjaji
 62
256
370
-1
 48
1.0
  6
BYLAYER
100
AcDbLine
 10
0.0
 20
0.0
 30
0.0
 11
280.0000000000001705
 21
0.0
 31
0.0
  0
ELLIPSE
  5
84
100
AcDbEntity
  8
uredjaji
 62
256
370
-1
 48
1.0
  6
BYLAYER
100
AcDbEllipse
 10
140.0000000000000853
 20
299.9999999999998295
 30
0.0
 11
0.0
 21
200.000000000000199
 31
0.0
 40
0.7499999999999994
 41
4.0688878715914054
 42
2.2142974355881808
  0
LINE
  5
85
100
AcDbEntity
  8
uredjaji
 62
256
370
-1
 48
1.0
  6
BYLAYER
100
AcDbLine
 10
0.0
 20
99.9999999999996021
 30
0.0
 11
280.0000000000001705
 21
99.9999999999996021
 31
0.0
  0
LINE
  5
86
100
AcDbEntity
  8
uredjaji
 62
256
370
-1
 48
1.0
  6
BYLAYER
100
AcDbLine
 10
20.0
 20
99.9999999999996021
 30
0.0
 11
20.0
 21
179.9999999999996874
 31
0.0
  0
LINE
  5
87
100
AcDbEntity
  8
uredjaji
 62
256
370
-1
 48
1.0
  6
BYLAYER
100
AcDbLine
 10
260.0000000000001705
 20
99.9999999999996021
 30
0.0
 11
260.0000000000001705
 21
179.9999999999996874
 31
0.0
  0
LINE
  5
88
100
AcDbEntity
  8
uredjaji
 62
256
370
-1
 48
1.0
  6
BYLAYER
100
AcDbLine
 10
280.0000000000000568
 20
0.0
 30
0.0
 11
280.0000000000001705
 21
99.9999999999996021
 31
0.0
  0
LINE
  5
89
100
AcDbEntity
  8
uredjaji
 62
256
370
-1
 48
1.0
  6
BYLAYER
100
AcDbLine
 10
0.0000000000002
 20
0.0
 30
0.0
 11
0.0
 21
99.9999999999996021
 31
0.0
  0
ELLIPSE
  5
8A
100
AcDbEntity
  8
uredjaji
 62
256
370
-1
 48
1.0
  6
BYLAYER
100
AcDbEllipse
 10
140.0000000000000853
 20
299.9999999999998295
 30
0.0
 11
0.0000000000001
 21
149.9999999999994884
 31
0.0
 40
0.6666666666666704
 41
0.0
 42
6.2831853071795862
  0
ENDBLK
  5
8B
100
AcDbEntity
  8
0
100
AcDbBlockEnd
  0
BLOCK
  5
8C
100
AcDbEntity
  8
0
100
AcDbBlockBegin
  2
gaszaehl
 70
0
 10
0.0
 20
0.0
 30
0.0
  3
gaszaehl
  1

  0
LINE
  5
8D
100
AcDbEntity
  8
0
 62
0
370
0
 48
1.0
  6
Continuous
100
AcDbLine
 10
-1.625
 20
-3.875
 30
0.0
 11
8.375
 21
-3.875
 31
0.0
  0
LINE
  5
8E
100
AcDbEntity
  8
0
 62
0
370
0
 48
1.0
  6
Continuous
100
AcDbLine
 10
8.375
 20
-3.875
 30
0.0
 11
8.375
 21
-8.875
 31
0.0
  0
LINE
  5
8F
100
AcDbEntity
  8
0
 62
0
370
0
 48
1.0
  6
Continuous
100
AcDbLine
 10
-1.625
 20
-8.875
 30
0.0
 11
-1.625
 21
-3.875
 31
0.0
  0
LINE
  5
90
100
AcDbEntity
  8
0
 62
0
370
0
 48
1.0
  6
Continuous
100
AcDbLine
 10
-1.625
 20
-6.875
 30
0.0
 11
-1.625
 21
-9.875
 31
0.0
  0
LINE
  5
91
100
AcDbEntity
  8
0
 62
0
370
0
 48
1.0
  6
Continuous
100
AcDbLine
 10
8.375
 20
-9.875
 30
0.0
 11
8.375
 21
-8.875
 31
0.0
  0
LINE
  5
92
100
AcDbEntity
  8
0
 62
0
370
0
 48
1.0
  6
Continuous
100
AcDbLine
 10
-1.625
 20
-6.875
 30
0.0
 11
-1.625
 21
-9.875
 31
0.0
  0
LINE
  5
93
100
AcDbEntity
  8
0
 62
0
370
0
 48
1.0
  6
Continuous
100
AcDbLine
 10
8.375
 20
-3.875
 30
0.0
 11
8.375
 21
-9.875
 31
0.0
  0
LINE
  5
94
100
AcDbEntity
  8
0
 62
0
370
0
 48
1.0
  6
Continuous
100
AcDbLine
 10
8.375
 20
-9.906034
 30
0.0
 11
8.375
 21
-14.906034
 31
0.0
  0
LINE
  5
95
100
AcDbEntity
  8
0
 62
0
370
0
 48
1.0
  6
Continuous
100
AcDbLine
 10
-1.625
 20
-14.906034
 30
0.0
 11
-1.625
 21
-9.906034
 31
0.0
  0
LINE
  5
96
100
AcDbEntity
  8
0
 62
0
370
0
 48
1.0
  6
Continuous
100
AcDbLine
 10
-1.625
 20
-12.906034
 30
0.0
 11
-1.625
 21
-15.906034
 31
0.0
  0
LINE
  5
97
100
AcDbEntity
  8
0
 62
0
370
0
 48
1.0
  6
Continuous
100
AcDbLine
 10
-1.625
 20
-15.906034
 30
0.0
 11
8.375
 21
-15.906034
 31
0.0
  0
LINE
  5
98
100
AcDbEntity
  8
0
 62
0
370
0
 48
1.0
  6
Continuous
100
AcDbLine
 10
8.375
 20
-15.906034
 30
0.0
 11
8.375
 21
-14.906034
 31
0.0
  0
LINE
  5
99
100
AcDbEntity
  8
0
 62
0
370
0
 48
1.0
  6
Continuous
100
AcDbLine
 10
-1.625
 20
-12.906034
 30
0.0
 11
-1.625
 21
-15.906034
 31
0.0
  0
LINE
  5
9A
100
AcDbEntity
  8
0
 62
0
370
0
 48
1.0
  6
Continuous
100
AcDbLine
 10
-0.625
 20
-5.0
 30
0.0
 11
-0.625
 21
-8.125
 31
0.0
  0
LINE
  5
9B
100
AcDbEntity
  8
0
 62
0
370
0
 48
1.0
  6
Continuous
100
AcDbLine
 10
-0.625
 20
-8.125
 30
0.0
 11
7.5
 21
-8.125
 31
0.0
  0
LINE
  5
9C
100
AcDbEntity
  8
0
 62
0
370
0
 48
1.0
  6
Continuous
100
AcDbLine
 10
7.5
 20
-8.125
 30
0.0
 11
7.5
 21
-5.0
 31
0.0
  0
MTEXT
  5
9D
100
AcDbEntity
  8
0
 62
0
370
0
 48
1.0
  6
Continuous
100
AcDbMText
 10
-0.1150880000000023
 20
-7.914606
 30
0.0
 40
3.0
 41
100.0
 71
7
 72
5
  1
000
  7
textstyle0
 50
0.0
 73
2
 44
1.0
  0
LINE
  5
9E
100
AcDbEntity
  8
0
 62
0
370
0
 48
1.0
  6
Continuous
100
AcDbLine
 10
0.0
 20
0.0
 30
0.0
 11
-0.0
 21
-3.875
 31
0.0
  0
LINE
  5
9F
100
AcDbEntity
  8
0
 62
0
370
0
 48
1.0
  6
Continuous
100
AcDbLine
 10
6.875
 20
0.0
 30
0.0
 11
6.875
 21
-3.875
 31
0.0
  0
ENDBLK
  5
A0
100
AcDbEntity
  8
0
100
AcDbBlockEnd
  0
BLOCK
  5
A1
100
AcDbEntity
  8
0
100
AcDbBlockBegin
  2
ARCHIT(6)
 70
0
 10
0.0
 20
0.0
 30
0.0
  3
ARCHIT(6)
  1

  0
LINE
  5
A2
100
AcDbEntity
  8
uredjaji
 62
256
370
-1
 48
1.0
  6
Continuous
100
AcDbLine
 10
0.0
 20
0.0
 30
0.0
 11
10.0
 21
0.0
 31
0.0
  0
LINE
  5
A3
100
AcDbEntity
  8
uredjaji
 62
256
370
-1
 48
1.0
  6
DASHED
100
AcDbLine
 10
10.0
 20
2.5
 30
0.0
 11
10.0
 21
6.0
 31
0.0
  0
LINE
  5
A4
100
AcDbEntity
  8
uredjaji
 62
256
370
-1
 48
1.0
  6
Continuous
100
AcDbLine
 10
10.0
 20
0.0
 30
0.0
 11
10.0
 21
2.5
 31
0.0
  0
LINE
  5
A5
100
AcDbEntity
  8
uredjaji
 62
256
370
-1
 48
1.0
  6
DASHED
100
AcDbLine
 10
10.0
 20
6.0
 30
0.0
 11
0.0
 21
6.0
 31
0.0
  0
LINE
  5
A6
100
AcDbEntity
  8
uredjaji
 62
256
370
-1
 48
1.0
  6
Continuous
100
AcDbLine
 10
0.0
 20
2.5
 30
0.0
 11
0.0
 21
0.0
 31
0.0
  0
LINE
  5
A7
100
AcDbEntity
  8
uredjaji
 62
256
370
-1
 48
1.0
  6
DASHED
100
AcDbLine
 10
0.0
 20
6.0
 30
0.0
 11
0.0
 21
2.5
 31
0.0
  0
LINE
  5
A8
100
AcDbEntity
  8
uredjaji
 62
256
370
-1
 48
1.0
  6
Continuous
100
AcDbLine
 10
5.7999999999999998
 20
0.5
 30
0.0
 11
8.6999999999999993
 21
0.5
 31
0.0
  0
LINE
  5
A9
100
AcDbEntity
  8
uredjaji
 62
256
370
-1
 48
1.0
  6
DASHED
100
AcDbLine
 10
9.5
 20
2.5
 30
0.0
 11
9.5
 21
4.7000000000000002
 31
0.0
  0
LINE
  5
AA
100
AcDbEntity
  8
uredjaji
 62
256
370
-1
 48
1.0
  6
Continuous
100
AcDbLine
 10
9.5
 20
1.3
 30
0.0
 11
9.5
 21
2.5
 31
0.0
  0
LINE
  5
AB
100
AcDbEntity
  8
uredjaji
 62
256
370
-1
 48
1.0
  6
DASHED
100
AcDbLine
 10
8.6999999999999993
 20
5.5
 30
0.0
 11
5.7999999999999998
 21
5.5
 31
0.0
  0
LINE
  5
AC
100
AcDbEntity
  8
uredjaji
 62
256
370
-1
 48
1.0
  6
Continuous
100
AcDbLine
 10
5.0
 20
2.5
 30
0.0
 11
5.0
 21
1.3
 31
0.0
  0
LINE
  5
AD
100
AcDbEntity
  8
uredjaji
 62
256
370
-1
 48
1.0
  6
DASHED
100
AcDbLine
 10
5.0
 20
4.7000000000000002
 30
0.0
 11
5.0
 21
2.5
 31
0.0
  0
ARC
  5
AE
100
AcDbEntity
  8
uredjaji
 62
256
370
-1
 48
1.0
  6
DASHED
100
AcDbCircle
 10
5.7999999999999998
 20
4.7000000000000002
 30
0.0
 40
0.8
100
AcDbArc
 50
90.0000030000000066
 51
180.0000090000000341
  0
ARC
  5
AF
100
AcDbEntity
  8
uredjaji
 62
256
370
-1
 48
1.0
  6
Continuous
100
AcDbCircle
 10
5.7999999999999998
 20
1.3
 30
0.0
 40
0.8
100
AcDbArc
 50
180.0000090000000341
 51
269.9999970000000076
  0
ARC
  5
B0
100
AcDbEntity
  8
uredjaji
 62
256
370
-1
 48
1.0
  6
Continuous
100
AcDbCircle
 10
8.6999999999999993
 20
1.3
 30
0.0
 40
0.8
100
AcDbArc
 50
269.9999970000000076
 51
0.0
  0
ARC
  5
B1
100
AcDbEntity
  8
uredjaji
 62
256
370
-1
 48
1.0
  6
DASHED
100
AcDbCircle
 10
8.6999999999999993
 20
4.7000000000000002
 30
0.0
 40
0.8
100
AcDbArc
 50
0.0
 51
90.0000030000000066
  0
LINE
  5
B2
100
AcDbEntity
  8
uredjaji
 62
256
370
-1
 48
1.0
  6
DASHED
100
AcDbLine
 10
0.5
 20
5.0
 30
0.0
 11
4.0
 21
5.0
 31
0.0
  0
LINE
  5
B3
100
AcDbEntity
  8
uredjaji
 62
256
370
-1
 48
1.0
  6
DASHED
100
AcDbLine
 10
0.5
 20
4.5
 30
0.0
 11
4.0
 21
4.5
 31
0.0
  0
LINE
  5
B4
100
AcDbEntity
  8
uredjaji
 62
256
370
-1
 48
1.0
  6
DASHED
100
AcDbLine
 10
0.5
 20
4.0
 30
0.0
 11
4.0
 21
4.0
 31
0.0
  0
LINE
  5
B5
100
AcDbEntity
  8
uredjaji
 62
256
370
-1
 48
1.0
  6
DASHED
100
AcDbLine
 10
0.5
 20
3.5
 30
0.0
 11
4.0
 21
3.5
 31
0.0
  0
LINE
  5
B6
100
AcDbEntity
  8
uredjaji
 62
256
370
-1
 48
1.0
  6
DASHED
100
AcDbLine
 10
0.5
 20
3.0
 30
0.0
 11
4.0
 21
3.0
 31
0.0
  0
LINE
  5
B7
100
AcDbEntity
  8
uredjaji
 62
256
370
-1
 48
1.0
  6
DASHED
100
AcDbLine
 10
0.5
 20
2.5
 30
0.0
 11
4.0
 21
2.5
 31
0.0
  0
LINE
  5
B8
100
AcDbEntity
  8
uredjaji
 62
256
370
-1
 48
1.0
  6
Continuous
100
AcDbLine
 10
0.5
 20
2.0
 30
0.0
 11
4.0
 21
2.0
 31
0.0
  0
LINE
  5
B9
100
AcDbEntity
  8
uredjaji
 62
256
370
-1
 48
1.0
  6
Continuous
100
AcDbLine
 10
0.5
 20
1.5
 30
0.0
 11
4.0
 21
1.5
 31
0.0
  0
LINE
  5
BA
100
AcDbEntity
  8
uredjaji
 62
256
370
-1
 48
1.0
  6
Continuous
100
AcDbLine
 10
0.5
 20
1.0
 30
0.0
 11
4.0
 21
1.0
 31
0.0
  0
LINE
  5
BB
100
AcDbEntity
  8
uredjaji
 62
256
370
-1
 48
1.0
  6
Continuous
100
AcDbLine
 10
0.5
 20
0.5
 30
0.0
 11
4.0
 21
0.5
 31
0.0
  0
LINE
  5
BC
100
AcDbEntity
  8
uredjaji
 62
256
370
-1
 48
1.0
  6
DASHED
100
AcDbLine
 10
0.5
 20
5.5
 30
0.0
 11
4.0
 21
5.5
 31
0.0
  0
CIRCLE
  5
BD
100
AcDbEntity
  8
uredjaji
 62
256
370
-1
 48
1.0
  6
DASHED
100
AcDbCircle
 10
6.0
 20
4.5
 30
0.0
 40
0.3
  0
LINE
  5
BE
100
AcDbEntity
  8
uredjaji
 62
256
370
-1
 48
1.0
  6
Continuous
100
AcDbLine
 10
6.0
 20
4.0
 30
0.0
 11
6.0
 21
3.7000000000000002
 31
0.0
  0
LINE
  5
BF
100
AcDbEntity
  8
uredjaji
 62
256
370
-1
 48
1.0
  6
Continuous
100
AcDbLine
 10
6.5
 20
4.5
 30
0.0
 11
6.7999999999999998
 21
4.5
 31
0.0
  0
LINE
  5
C0
100
AcDbEntity
  8
uredjaji
 62
256
370
-1
 48
1.0
  6
Continuous
100
AcDbLine
 10
6.0
 20
5.0
 30
0.0
 11
6.0
 21
5.2999999999999998
 31
0.0
  0
LINE
  5
C1
100
AcDbEntity
  8
uredjaji
 62
256
370
-1
 48
1.0
  6
Continuous
100
AcDbLine
 10
5.5
 20
4.5
 30
0.0
 11
5.2000000000000002
 21
4.5
 31
0.0
  0
LINE
  5
C2
100
AcDbEntity
  8
uredjaji
 62
256
370
-1
 48
1.0
  6
Continuous
100
AcDbLine
 10
5.9000000000000004
 20
4.5
 30
0.0
 11
6.0999999999999996
 21
4.5
 31
0.0
  0
LINE
  5
C3
100
AcDbEntity
  8
uredjaji
 62
256
370
-1
 48
1.0
  6
Continuous
100
AcDbLine
 10
6.0
 20
4.5999999999999996
 30
0.0
 11
6.0
 21
4.4000000000000004
 31
0.0
  0
ENDBLK
  5
C4
100
AcDbEntity
  8
0
100
AcDbBlockEnd
  0
BLOCK
  5
C5
100
AcDbEntity
  8
0
100
AcDbBlockBegin
  2
sh80_sw
 70
0
 10
0.0
 20
0.0
 30
0.0
  3
sh80_sw
  1

  0
LINE
  5
C6
100
AcDbEntity
  8
uredjaji
 62
256
370
-1
 48
1.0
  6
BYLAYER
100
AcDbLine
 10
-400.0
 20
10.0
 30
0.0
 11
400.0
 21
10.0
 31
0.0
  0
LINE
  5
C7
100
AcDbEntity
  8
uredjaji
 62
256
370
-1
 48
1.0
  6
BYLAYER
100
AcDbLine
 10
400.0
 20
10.0
 30
0.0
 11
400.0
 21
810.0
 31
0.0
  0
LINE
  5
C8
100
AcDbEntity
  8
uredjaji
 62
256
370
-1
 48
1.0
  6
BYLAYER
100
AcDbLine
 10
400.0
 20
810.0
 30
0.0
 11
-400.0
 21
810.0
 31
0.0
  0
LINE
  5
C9
100
AcDbEntity
  8
uredjaji
 62
256
370
-1
 48
1.0
  6
BYLAYER
100
AcDbLine
 10
-400.0
 20
810.0
 30
0.0
 11
-400.0
 21
10.0
 31
0.0
  0
ARC
  5
CA
100
AcDbEntity
  8
uredjaji
 62
256
370
-1
 48
1.0
  6
BYLAYER
100
AcDbCircle
 10
-290.0
 20
700.0
 30
0.0
 40
70.0
100
AcDbArc
 50
90.0
 51
180.0
  0
ARC
  5
CB
100
AcDbEntity
  8
uredjaji
 62
256
370
-1
 48
1.0
  6
BYLAYER
100
AcDbCircle
 10
-290.0
 20
120.0
 30
0.0
 40
70.0
100
AcDbArc
 50
180.0
 51
270.0
  0
LINE
  5
CC
100
AcDbEntity
  8
uredjaji
 62
256
370
-1
 48
1.0
  6
BYLAYER
100
AcDbLine
 10
-360.0
 20
700.0
 30
0.0
 11
-360.0
 21
120.0
 31
0.0
  0
ARC
  5
CD
100
AcDbEntity
  8
uredjaji
 62
256
370
-1
 48
1.0
  6
BYLAYER
100
AcDbCircle
 10
290.0
 20
120.0
 30
0.0
 40
70.0
100
AcDbArc
 50
270.0
 51
0.0
  0
LINE
  5
CE
100
AcDbEntity
  8
uredjaji
 62
256
370
-1
 48
1.0
  6
BYLAYER
100
AcDbLine
 10
-290.0
 20
50.0
 30
0.0
 11
290.0
 21
50.0
 31
0.0
  0
ARC
  5
CF
100
AcDbEntity
  8
uredjaji
 62
256
370
-1
 48
1.0
  6
BYLAYER
100
AcDbCircle
 10
290.0
 20
700.0
 30
0.0
 40
70.0
100
AcDbArc
 50
0.0
 51
90.0
  0
LINE
  5
D0
100
AcDbEntity
  8
uredjaji
 62
256
370
-1
 48
1.0
  6
BYLAYER
100
AcDbLine
 10
360.0
 20
120.0
 30
0.0
 11
360.0
 21
700.0
 31
0.0
  0
LINE
  5
D1
100
AcDbEntity
  8
uredjaji
 62
256
370
-1
 48
1.0
  6
BYLAYER
100
AcDbLine
 10
290.0
 20
770.0
 30
0.0
 11
-290.0
 21
770.0
 31
0.0
  0
CIRCLE
  5
D2
100
AcDbEntity
  8
uredjaji
 62
256
370
-1
 48
1.0
  6
BYLAYER
100
AcDbCircle
 10
0.0
 20
150.0
 30
0.0
 40
50.0
  0
CIRCLE
  5
D3
100
AcDbEntity
  8
uredjaji
 62
256
370
-1
 48
1.0
  6
BYLAYER
100
AcDbCircle
 10
0.0
 20
150.0
 30
0.0
 40
20.0
  0
ENDBLK
  5
D4
100
AcDbEntity
  8
0
100
AcDbBlockEnd
  0
BLOCK
  5
D5
100
AcDbEntity
  8
0
100
AcDbBlockBegin
  2
sink
 70
0
 10
0.0
 20
0.0
 30
0.0
  3
sink
  1

  0
ELLIPSE
  5
D6
100
AcDbEntity
  8
uredjaji
 62
256
370
-1
 48
1.0
  6
BYLAYER
100
AcDbEllipse
 10
0.0
 20
70.0000000000002984
 30
0.0
 11
-80.0
 21
0.0
 31
0.0
 40
0.8750000000000001
 41
3.1415899999999999
 42
6.2831853071795862
  0
ARC
  5
D7
100
AcDbEntity
  8
uredjaji
 62
256
370
-1
 48
1.0
  6
BYLAYER
100
AcDbCircle
 10
0.0
 20
50.0000000000002984
 30
0.0
 40
99.9999999999996447
100
AcDbArc
 50
329.9999999999997726
 51
210.0000000000002842
  0
ARC
  5
D8
100
AcDbEntity
  8
uredjaji
 62
256
370
-1
 48
1.0
  6
BYLAYER
100
AcDbCircle
 10
-63.245553203367443
 20
35.000000000000199
 30
0.0
 40
25.0
100
AcDbArc
 50
193.3423637970882396
 51
270.0
  0
ARC
  5
D9
100
AcDbEntity
  8
uredjaji
 62
256
370
-1
 48
1.0
  6
BYLAYER
100
AcDbCircle
 10
63.2455532033673435
 20
35.0000000000001492
 30
0.0
 40
25.0
100
AcDbArc
 50
270.0
 51
346.6576362029117604
  0
ARC
  5
DA
100
AcDbEntity
  8
uredjaji
 62
256
370
-1
 48
1.0
  6
BYLAYER
100
AcDbCircle
 10
0.0
 20
50.0000000000002984
 30
0.0
 40
89.9999999999998437
100
AcDbArc
 50
346.6576362029116467
 51
193.3423637970883249
  0
LINE
  5
DB
100
AcDbEntity
  8
uredjaji
 62
256
370
-1
 48
1.0
  6
BYLAYER
100
AcDbLine
 10
63.2455532033673435
 20
10.0000000000003002
 30
0.0
 11
-63.245553203367443
 21
10.000000000000199
 31
0.0
  0
LINE
  5
DC
100
AcDbEntity
  8
uredjaji
 62
256
370
-1
 48
1.0
  6
BYLAYER
100
AcDbLine
 10
86.6025403784433934
 20
0.0
 30
0.0
 11
-86.6025403784433934
 21
0.0
 31
0.0
  0
LINE
  5
DD
100
AcDbEntity
  8
uredjaji
 62
256
370
-1
 48
1.0
  6
BYLAYER
100
AcDbLine
 10
7.5000000000000497
 20
60.0000000000004974
 30
0.0
 11
7.5000000000000497
 21
25.0000000000003482
 31
0.0
  0
LINE
  5
DE
100
AcDbEntity
  8
uredjaji
 62
256
370
-1
 48
1.0
  6
BYLAYER
100
AcDbLine
 10
-7.4999999999999503
 20
25.0000000000003482
 30
0.0
 11
-7.4999999999999503
 21
60.0000000000004974
 31
0.0
  0
ARC
  5
DF
100
AcDbEntity
  8
uredjaji
 62
256
370
-1
 48
1.0
  6
BYLAYER
100
AcDbCircle
 10
0.0
 20
60.0000000000000568
 30
0.0
 40
7.5000000000000497
100
AcDbArc
 50
0.0
 51
180.0
  0
ARC
  5
E0
100
AcDbEntity
  8
uredjaji
 62
256
370
-1
 48
1.0
  6
BYLAYER
100
AcDbCircle
 10
0.0
 20
24.9999999999999503
 30
0.0
 40
7.4999999999999503
100
AcDbArc
 50
180.0
 51
0.0
  0
ELLIPSE
  5
E1
100
AcDbEntity
  8
uredjaji
 62
256
370
-1
 48
1.0
  6
BYLAYER
100
AcDbEllipse
 10
0.0
 20
69.9999999999998579
 30
0.0
 11
-80.0000000000000426
 21
0.0
 31
0.0
 40
0.3749999999999972
 41
0.0
 42
1.4769084516873812
  0
ELLIPSE
  5
E2
100
AcDbEntity
  8
uredjaji
 62
256
370
-1
 48
1.0
  6
BYLAYER
100
AcDbEllipse
 10
0.0
 20
69.9999999999998579
 30
0.0
 11
80.0000000000000426
 21
0.0
 31
0.0
 40
0.3749999999999972
 41
4.8062768554922055
 42
6.2831853071795862
  0
CIRCLE
  5
E3
100
AcDbEntity
  8
uredjaji
 62
256
370
-1
 48
1.0
  6
BYLAYER
100
AcDbCircle
 10
0.0
 20
85.0
 30
0.0
 40
5.0000000000000995
  0
CIRCLE
  5
E4
100
AcDbEntity
  8
uredjaji
 62
256
370
-1
 48
1.0
  6
BYLAYER
100
AcDbCircle
 10
0.0
 20
85.0
 30
0.0
 40
6.0
  0
LINE
  5
E5
100
AcDbEntity
  8
uredjaji
 62
256
370
-1
 48
1.0
  6
BYLAYER
100
AcDbLine
 10
-24.9999999999999005
 20
30.0000000000002487
 30
0.0
 11
-29.999999999999897
 21
24.9999999999999503
 31
0.0
  0
LINE
  5
E6
100
AcDbEntity
  8
uredjaji
 62
256
370
-1
 48
1.0
  6
BYLAYER
100
AcDbLine
 10
-29.999999999999897
 20
24.9999999999999503
 30
0.0
 11
-24.9999999999999005
 21
20.0000000000000497
 31
0.0
  0
LINE
  5
E7
100
AcDbEntity
  8
uredjaji
 62
256
370
-1
 48
1.0
  6
BYLAYER
100
AcDbLine
 10
-24.9999999999999005
 20
20.0000000000000497
 30
0.0
 11
-19.9999999999999005
 21
24.9999999999999503
 31
0.0
  0
LINE
  5
E8
100
AcDbEntity
  8
uredjaji
 62
256
370
-1
 48
1.0
  6
BYLAYER
100
AcDbLine
 10
-19.9999999999999005
 20
24.9999999999999503
 30
0.0
 11
-24.9999999999999005
 21
30.0000000000002487
 31
0.0
  0
LINE
  5
E9
100
AcDbEntity
  8
uredjaji
 62
256
370
-1
 48
1.0
  6
BYLAYER
100
AcDbLine
 10
25.0000000000001492
 20
30.0000000000002487
 30
0.0
 11
20.0
 21
25.0000000000003482
 31
0.0
  0
LINE
  5
EA
100
AcDbEntity
  8
uredjaji
 62
256
370
-1
 48
1.0
  6
BYLAYER
100
AcDbLine
 10
20.0
 20
25.0000000000003482
 30
0.0
 11
25.0000000000001492
 21
20.0000000000000497
 31
0.0
  0
LINE
  5
EB
100
AcDbEntity
  8
uredjaji
 62
256
370
-1
 48
1.0
  6
BYLAYER
100
AcDbLine
 10
25.0000000000001492
 20
20.0000000000000497
 30
0.0
 11
30.0000000000002487
 21
25.0000000000003482
 31
0.0
  0
LINE
  5
EC
100
AcDbEntity
  8
uredjaji
 62
256
370
-1
 48
1.0
  6
BYLAYER
100
AcDbLine
 10
30.0000000000002487
 20
25.0000000000003482
 30
0.0
 11
25.0000000000001492
 21
30.0000000000002487
 31
0.0
  0
ENDBLK
  5
ED
100
AcDbEntity
  8
0
100
AcDbBlockEnd
  0
BLOCK
  5
EE
100
AcDbEntity
  8
0
100
AcDbBlockBegin
  2
ARCHIT(193)
 70
0
 10
0.0
 20
0.0
 30
0.0
  3
ARCHIT(193)
  1

  0
LINE
  5
EF
100
AcDbEntity
  8
uredjaji
 62
256
370
-1
 48
1.0
  6
Continuous
100
AcDbLine
 10
0.0
 20
0.0
 30
0.0
 11
12.0
 21
0.0
 31
0.0
  0
LINE
  5
F0
100
AcDbEntity
  8
uredjaji
 62
256
370
-1
 48
1.0
  6
Continuous
100
AcDbLine
 10
12.0
 20
0.0
 30
0.0
 11
12.0
 21
12.0
 31
0.0
  0
LINE
  5
F1
100
AcDbEntity
  8
uredjaji
 62
256
370
-1
 48
1.0
  6
Continuous
100
AcDbLine
 10
12.0
 20
12.0
 30
0.0
 11
0.0
 21
12.0
 31
0.0
  0
LINE
  5
F2
100
AcDbEntity
  8
uredjaji
 62
256
370
-1
 48
1.0
  6
Continuous
100
AcDbLine
 10
0.0
 20
12.0
 30
0.0
 11
0.0
 21
0.0
 31
0.0
  0
LINE
  5
F3
100
AcDbEntity
  8
uredjaji
 62
256
370
-1
 48
1.0
  6
Continuous
100
AcDbLine
 10
0.0
 20
3.0
 30
0.0
 11
12.0
 21
3.0
 31
0.0
  0
LINE
  5
F4
100
AcDbEntity
  8
uredjaji
 62
256
370
-1
 48
1.0
  6
Continuous
100
AcDbLine
 10
4.0
 20
0.5
 30
0.0
 11
8.0
 21
0.5
 31
0.0
  0
LINE
  5
F5
100
AcDbEntity
  8
uredjaji
 62
256
370
-1
 48
1.0
  6
Continuous
100
AcDbLine
 10
8.0
 20
0.5
 30
0.0
 11
8.0
 21
2.5
 31
0.0
  0
LINE
  5
F6
100
AcDbEntity
  8
uredjaji
 62
256
370
-1
 48
1.0
  6
Continuous
100
AcDbLine
 10
8.0
 20
2.5
 30
0.0
 11
4.0
 21
2.5
 31
0.0
  0
LINE
  5
F7
100
AcDbEntity
  8
uredjaji
 62
256
370
-1
 48
1.0
  6
Continuous
100
AcDbLine
 10
4.0
 20
2.5
 30
0.0
 11
4.0
 21
0.5
 31
0.0
  0
LINE
  5
F8
100
AcDbEntity
  8
uredjaji
 62
256
370
-1
 48
1.0
  6
Continuous
100
AcDbLine
 10
4.0
 20
1.5
 30
0.0
 11
2.0
 21
1.5
 31
0.0
  0
LINE
  5
F9
100
AcDbEntity
  8
uredjaji
 62
256
370
-1
 48
1.0
  6
Continuous
100
AcDbLine
 10
8.0
 20
1.5
 30
0.0
 11
10.0
 21
1.5
 31
0.0
  0
ENDBLK
  5
FA
100
AcDbEntity
  8
0
100
AcDbBlockEnd
  0
BLOCK
  5
FB
100
AcDbEntity
  8
0
100
AcDbBlockBegin
  2
ARCHIT(190)
 70
0
 10
0.0
 20
0.0
 30
0.0
  3
ARCHIT(190)
  1

  0
LINE
  5
FC
100
AcDbEntity
  8
uredjaji
 62
256
370
-1
 48
1.0
  6
Continuous
100
AcDbLine
 10
0.0
 20
0.0
 30
0.0
 11
8.0
 21
0.0
 31
0.0
  0
LINE
  5
FD
100
AcDbEntity
  8
uredjaji
 62
256
370
-1
 48
1.0
  6
Continuous
100
AcDbLine
 10
8.0
 20
0.0
 30
0.0
 11
8.0
 21
8.0
 31
0.0
  0
LINE
  5
FE
100
AcDbEntity
  8
uredjaji
 62
256
370
-1
 48
1.0
  6
Continuous
100
AcDbLine
 10
8.0
 20
8.0
 30
0.0
 11
0.0
 21
8.0
 31
0.0
  0
LINE
  5
FF
100
AcDbEntity
  8
uredjaji
 62
256
370
-1
 48
1.0
  6
Continuous
100
AcDbLine
 10
0.0
 20
8.0
 30
0.0
 11
0.0
 21
0.0
 31
0.0
  0
CIRCLE
  5
100
100
AcDbEntity
  8
uredjaji
 62
256
370
-1
 48
1.0
  6
Continuous
100
AcDbCircle
 10
4.0
 20
4.0
 30
0.0
 40
1.6000000000000001
  0
ENDBLK
  5
101
100
AcDbEntity
  8
0
100
AcDbBlockEnd
  0
ENDSEC
  0
SECTION
  2
ENTITIES
  0
LINE
  5
102
100
AcDbEntity
  8
0
 62
256
370
-1
 48
1.0
  6
BYLAYER
100
AcDbLine
 10
0.0
 20
0.0
 30
0.0
 11
0.0
 21
60.0
 31
0.0
  0
LINE
  5
103
100
AcDbEntity
  8
0
 62
256
370
-1
 48
1.0
  6
BYLAYER
100
AcDbLine
 10
0.0
 20
60.0
 30
0.0
 11
2.0
 21
60.0
 31
0.0
  0
LINE
  5
104
100
AcDbEntity
  8
0
 62
256
370
-1
 48
1.0
  6
BYLAYER
100
AcDbLine
 10
2.0
 20
60.0
 30
0.0
 11
2.0
 21
51.0
 31
0.0
  0
LINE
  5
105
100
AcDbEntity
  8
0
 62
256
370
-1
 48
1.0
  6
BYLAYER
100
AcDbLine
 10
2.0
 20
51.0
 30
0.0
 11
139.0
 21
51.0
 31
0.0
  0
LINE
  5
106
100
AcDbEntity
  8
0
 62
256
370
-1
 48
1.0
  6
BYLAYER
100
AcDbLine
 10
139.0
 20
51.0
 30
0.0
 11
139.0
 21
49.0
 31
0.0
  0
LINE
  5
107
100
AcDbEntity
  8
0
 62
256
370
-1
 48
1.0
  6
BYLAYER
100
AcDbLine
 10
139.0
 20
49.0
 30
0.0
 11
104.0
 21
49.0
 31
0.0
  0
LINE
  5
108
100
AcDbEntity
  8
0
 62
256
370
-1
 48
1.0
  6
BYLAYER
100
AcDbLine
 10
104.0
 20
49.0
 30
0.0
 11
73.0
 21
49.0
 31
0.0
  0
LINE
  5
109
100
AcDbEntity
  8
0
 62
256
370
-1
 48
1.0
  6
BYLAYER
100
AcDbLine
 10
73.0
 20
49.0
 30
0.0
 11
73.0
 21
28.0
 31
0.0
  0
LINE
  5
10A
100
AcDbEntity
  8
0
 62
256
370
-1
 48
1.0
  6
BYLAYER
100
AcDbLine
 10
73.0
 20
28.0
 30
0.0
 11
138.0
 21
28.0
 31
0.0
  0
LINE
  5
10B
100
AcDbEntity
  8
0
 62
256
370
-1
 48
1.0
  6
BYLAYER
100
AcDbLine
 10
138.0
 20
28.0
 30
0.0
 11
139.0
 21
28.0
 31
0.0
  0
LINE
  5
10C
100
AcDbEntity
  8
0
 62
256
370
-1
 48
1.0
  6
BYLAYER
100
AcDbLine
 10
139.0
 20
28.0
 30
0.0
 11
139.0
 21
26.0
 31
0.0
  0
LINE
  5
10D
100
AcDbEntity
  8
0
 62
256
370
-1
 48
1.0
  6
BYLAYER
100
AcDbLine
 10
124.0
 20
26.0
 30
0.0
 11
3.0
 21
26.0
 31
0.0
  0
LINE
  5
10E
100
AcDbEntity
  8
0
 62
256
370
-1
 48
1.0
  6
BYLAYER
100
AcDbLine
 10
3.0
 20
26.0
 30
0.0
 11
2.0
 21
26.0
 31
0.0
  0
LINE
  5
10F
100
AcDbEntity
  8
0
 62
256
370
-1
 48
1.0
  6
BYLAYER
100
AcDbLine
 10
2.0
 20
26.0
 30
0.0
 11
2.0
 21
2.0
 31
0.0
  0
LINE
  5
110
100
AcDbEntity
  8
0
 62
256
370
-1
 48
1.0
  6
BYLAYER
100
AcDbLine
 10
2.0
 20
2.0
 30
0.0
 11
27.0
 21
2.0
 31
0.0
  0
LINE
  5
111
100
AcDbEntity
  8
0
 62
256
370
-1
 48
1.0
  6
BYLAYER
100
AcDbLine
 10
27.0
 20
2.0
 30
0.0
 11
27.0
 21
0.0
 31
0.0
  0
LINE
  5
112
100
AcDbEntity
  8
0
 62
256
370
-1
 48
1.0
  6
BYLAYER
100
AcDbLine
 10
2.0
 20
49.0
 30
0.0
 11
2.0
 21
28.0
 31
0.0
  0
LINE
  5
113
100
AcDbEntity
  8
0
 62
256
370
-1
 48
1.0
  6
BYLAYER
100
AcDbLine
 10
2.0
 20
28.0
 30
0.0
 11
71.0
 21
28.0
 31
0.0
  0
LINE
  5
114
100
AcDbEntity
  8
0
 62
256
370
-1
 48
1.0
  6
BYLAYER
100
AcDbLine
 10
71.0
 20
28.0
 30
0.0
 11
71.0
 21
49.0
 31
0.0
  0
LINE
  5
115
100
AcDbEntity
  8
0
 62
256
370
-1
 48
1.0
  6
BYLAYER
100
AcDbLine
 10
71.0
 20
49.0
 30
0.0
 11
2.0
 21
49.0
 31
0.0
  0
LINE
  5
116
100
AcDbEntity
  8
instalacija
 62
256
370
-1
 48
1.0
  6
BYLAYER
100
AcDbLine
 10
5.0
 20
12.0
 30
0.0
 11
5.0
 21
4.0
 31
0.0
  0
LINE
  5
117
100
AcDbEntity
  8
instalacija
 62
256
370
-1
 48
1.0
  6
BYLAYER
100
AcDbLine
 10
5.0
 20
4.0
 30
0.0
 11
10.0
 21
4.0
 31
0.0
  0
LINE
  5
118
100
AcDbEntity
  8
instalacija
 62
256
370
-1
 48
1.0
  6
BYLAYER
100
AcDbLine
 10
10.0
 20
4.0
 30
0.0
 11
10.0
 21
-2.0
 31
0.0
  0
LINE
  5
119
100
AcDbEntity
  8
instalacija toplo
 62
256
370
-1
 48
1.0
  6
BYLAYER
100
AcDbLine
 10
7.0
 20
10.0
 30
0.0
 11
107.0
 21
10.0
 31
0.0
  0
LINE
  5
11A
100
AcDbEntity
  8
instalacija toplo
 62
256
370
-1
 48
1.0
  6
BYLAYER
100
AcDbLine
 10
7.0
 20
10.0
 30
0.0
 11
7.0
 21
6.0
 31
0.0
  0
LINE
  5
11B
100
AcDbEntity
  8
instalacija toplo
 62
256
370
-1
 48
1.0
  6
BYLAYER
100
AcDbLine
 10
7.0
 20
6.0
 30
0.0
 11
12.0
 21
6.0
 31
0.0
  0
LINE
  5
11C
100
AcDbEntity
  8
instalacija toplo
 62
256
370
-1
 48
1.0
  6
BYLAYER
100
AcDbLine
 10
12.0
 20
6.0
 30
0.0
 11
12.0
 21
-2.0
 31
0.0
  0
LINE
  5
11D
100
AcDbEntity
  8
instalacija toplo
 62
256
370
-1
 48
1.0
  6
BYLAYER
100
AcDbLine
 10
79.0
 20
10.0
 30
0.0
 11
79.0
 21
22.0
 31
0.0
  0
LINE
  5
11E
100
AcDbEntity
  8
instalacija toplo
 62
256
370
-1
 48
1.0
  6
BYLAYER
100
AcDbLine
 10
79.0
 20
22.0
 30
0.0
 11
104.0
 21
31.0
 31
0.0
  0
LINE
  5
11F
100
AcDbEntity
  8
instalacija toplo
 62
256
370
-1
 48
1.0
  6
BYLAYER
100
AcDbLine
 10
104.0
 20
31.0
 30
0.0
 11
104.0
 21
36.0
 31
0.0
  0
LINE
  5
120
100
AcDbEntity
  8
instalacija
 62
256
370
-1
 48
1.0
  6
BYLAYER
100
AcDbLine
 10
77.0
 20
23.0
 30
0.0
 11
102.0
 21
32.0
 31
0.0
  0
LINE
  5
121
100
AcDbEntity
  8
instalacija
 62
256
370
-1
 48
1.0
  6
BYLAYER
100
AcDbLine
 10
102.0
 20
32.0
 30
0.0
 11
102.0
 21
36.0
 31
0.0
  0
LINE
  5
122
100
AcDbEntity
  8
instalacija
 62
256
370
-1
 48
1.0
  6
BYLAYER
100
AcDbLine
 10
102.0
 20
36.0
 30
0.0
 11
132.0
 21
36.0
 31
0.0
  0
LINE
  5
123
100
AcDbEntity
  8
instalacija toplo
 62
256
370
-1
 48
1.0
  6
BYLAYER
100
AcDbLine
 10
104.0
 20
36.0
 30
0.0
 11
104.0
 21
38.0
 31
0.0
  0
LINE
  5
124
100
AcDbEntity
  8
instalacija
 62
256
370
-1
 48
1.0
  6
BYLAYER
100
AcDbLine
 10
99.0
 20
36.0
 30
0.0
 11
99.0
 21
42.0
 31
0.0
  0
LINE
  5
125
100
AcDbEntity
  8
instalacija
 62
256
370
-1
 48
1.0
  6
BYLAYER
100
AcDbLine
 10
88.0
 20
36.0
 30
0.0
 11
88.0
 21
32.0
 31
0.0
  0
LINE
  5
126
100
AcDbEntity
  8
instalacija toplo
 62
256
370
-1
 48
1.0
  6
BYLAYER
100
AcDbLine
 10
90.0
 20
38.0
 30
0.0
 11
90.0
 21
32.0
 31
0.0
  0
LINE
  5
127
100
AcDbEntity
  8
instalacija toplo
 62
256
370
-1
 48
1.0
  6
BYLAYER
100
AcDbLine
 10
101.0
 20
38.0
 30
0.0
 11
101.0
 21
42.0
 31
0.0
  0
LINE
  5
128
100
AcDbEntity
  8
instalacija
 62
256
370
-1
 48
1.0
  6
BYLAYER
100
AcDbLine
 10
120.0
 20
36.0
 30
0.0
 11
120.0
 21
39.0
 31
0.0
  0
LINE
  5
129
100
AcDbEntity
  8
instalacija
 62
256
370
-1
 48
1.0
  6
BYLAYER
100
AcDbLine
 10
132.0
 20
36.0
 30
0.0
 11
132.0
 21
39.0
 31
0.0
  0
LINE
  5
12A
100
AcDbEntity
  8
instalacija toplo
 62
256
370
-1
 48
1.0
  6
BYLAYER
100
AcDbLine
 10
60.0
 20
10.0
 30
0.0
 11
60.0
 21
58.0
 31
0.0
  0
LINE
  5
12B
100
AcDbEntity
  8
instalacija
 62
256
370
-1
 48
1.0
  6
BYLAYER
100
AcDbLine
 10
58.0
 20
13.0
 30
0.0
 11
58.0
 21
58.0
 31
0.0
  0
LINE
  5
12C
100
AcDbEntity
  8
instalacija
 62
256
370
-1
 48
1.0
  6
BYLAYER
100
AcDbLine
 10
58.0
 20
38.0
 30
0.0
 11
13.0
 21
38.0
 31
0.0
  0
LINE
  5
12D
100
AcDbEntity
  8
instalacija toplo
 62
256
370
-1
 48
1.0
  6
BYLAYER
100
AcDbLine
 10
60.0
 20
36.0
 30
0.0
 11
13.0
 21
36.0
 31
0.0
  0
LINE
  5
12E
100
AcDbEntity
  8
instalacija
 62
256
370
-1
 48
1.0
  6
BYLAYER
100
AcDbLine
 10
52.0
 20
38.0
 30
0.0
 11
52.0
 21
43.0
 31
0.0
  0
LINE
  5
12F
100
AcDbEntity
  8
instalacija
 62
256
370
-1
 48
1.0
  6
BYLAYER
100
AcDbLine
 10
43.0
 20
38.0
 30
0.0
 11
43.0
 21
43.0
 31
0.0
  0
LINE
  5
130
100
AcDbEntity
  8
instalacija
 62
256
370
-1
 48
1.0
  6
BYLAYER
100
AcDbLine
 10
34.0
 20
38.0
 30
0.0
 11
34.0
 21
43.0
 31
0.0
  0
LINE
  5
131
100
AcDbEntity
  8
instalacija
 62
256
370
-1
 48
1.0
  6
BYLAYER
100
AcDbLine
 10
13.0
 20
38.0
 30
0.0
 11
10.0
 21
38.0
 31
0.0
  0
LINE
  5
132
100
AcDbEntity
  8
instalacija
 62
256
370
-1
 48
1.0
  6
BYLAYER
100
AcDbLine
 10
10.0
 20
38.0
 30
0.0
 11
10.0
 21
32.0
 31
0.0
  0
LINE
  5
133
100
AcDbEntity
  8
instalacija toplo
 62
256
370
-1
 48
1.0
  6
BYLAYER
100
AcDbLine
 10
13.0
 20
36.0
 30
0.0
 11
13.0
 21
32.0
 31
0.0
  0
LINE
  5
134
100
AcDbEntity
  8
instalacija toplo
 62
256
370
-1
 48
1.0
  6
BYLAYER
100
AcDbLine
 10
107.0
 20
10.0
 30
0.0
 11
107.0
 21
17.0
 31
0.0
  0
LINE
  5
135
100
AcDbEntity
  8
instalacija toplo
 62
256
370
-1
 48
1.0
  6
BYLAYER
100
AcDbLine
 10
45.0
 20
10.0
 30
0.0
 11
45.0
 21
5.0
 31
0.0
  0
LINE
  5
136
100
AcDbEntity
  8
instalacija
 62
256
370
-1
 48
1.0
  6
BYLAYER
100
AcDbLine
 10
105.0
 20
12.0
 30
0.0
 11
105.0
 21
17.0
 31
0.0
  0
LINE
  5
137
100
AcDbEntity
  8
instalacija
 62
256
370
-1
 48
1.0
  6
BYLAYER
100
AcDbLine
 10
58.0
 20
12.0
 30
0.0
 11
58.0
 21
13.0
 31
0.0
  0
LINE
  5
138
100
AcDbEntity
  8
instalacija
 62
256
370
-1
 48
1.0
  6
BYLAYER
100
AcDbLine
 10
48.0
 20
12.0
 30
0.0
 11
48.0
 21
5.0
 31
0.0
  0
LINE
  5
139
100
AcDbEntity
  8
instalacija
 62
256
370
-1
 48
1.0
  6
BYLAYER
100
AcDbLine
 10
33.0
 20
12.0
 30
0.0
 11
33.0
 21
18.0
 31
0.0
  0
LINE
  5
13A
100
AcDbEntity
  8
instalacija toplo
 62
256
370
-1
 48
1.0
  6
BYLAYER
100
AcDbLine
 10
32.0
 20
36.0
 30
0.0
 11
32.0
 21
43.0
 31
0.0
  0
INSERT
  5
13B
100
AcDbEntity
  8
uredjaji
 62
256
370
-1
 48
1.0
  6
BYLAYER
100
AcDbBlockReference
  2
sink
 10
11.585375748598187
 20
33.7842941350214545
 30
0.0
 41
0.025
 42
0.025
 43
1.0
 50
180.0
  0
INSERT
  5
13C
100
AcDbEntity
  8
uredjaji
 62
256
370
-1
 48
1.0
  6
BYLAYER
100
AcDbBlockReference
  2
sink
 10
47.0
 20
6.0
 30
0.0
 41
0.025
 42
0.025
 43
1.0
 50
180.0
  0
INSERT
  5
13D
100
AcDbEntity
  8
uredjaji
 62
256
370
-1
 48
1.0
  6
BYLAYER
100
AcDbBlockReference
  2
sink
 10
88.8483144334659016
 20
32.8025533633895634
 30
0.0
 41
0.025
 42
0.025
 43
1.0
 50
180.0
  0
INSERT
  5
13E
100
AcDbEntity
  8
uredjaji
 62
256
370
-1
 48
1.0
  6
BYLAYER
100
AcDbBlockReference
  2
ARCHIT(6)
 10
7.0
 20
-7.0
 30
0.0
  0
INSERT
  5
13F
100
AcDbEntity
  8
uredjaji
 62
256
370
-1
 48
1.0
  6
BYLAYER
100
AcDbBlockReference
  2
ARCHIT(6)
 10
28.6541574872794627
 20
41.8289382909147776
 30
0.0
  0
INSERT
  5
140
100
AcDbEntity
  8
uredjaji
 62
256
370
-1
 48
1.0
  6
BYLAYER
100
AcDbBlockReference
  2
ARCHIT(190)
 10
129.7753905593968398
 20
38.275400677000242
 30
0.0
 41
0.6
 42
0.6
 43
1.0
  0
INSERT
  5
141
100
AcDbEntity
  8
uredjaji
 62
30
420
16744192
370
-1
 48
1.0
  6
BYLAYER
100
AcDbBlockReference
  2
ARCHIT(190)
 10
30.7581729784560025
 20
17.3155517000127617
 30
0.0
 41
0.6
 42
0.6
 43
1.0
  0
INSERT
  5
142
100
AcDbEntity
  8
uredjaji
 62
30
420
16744192
370
-1
 48
1.0
  6
BYLAYER
100
AcDbBlockReference
  2
ARCHIT(193)
 10
41.1176385647831495
 20
43.214215665830622
 30
0.0
 41
0.4
 42
0.4
 43
1.0
  0
INSERT
  5
143
100
AcDbEntity
  8
uredjaji
 62
256
370
-1
 48
1.0
  6
BYLAYER
100
AcDbBlockReference
  2
toilet
 10
118.5292964851341537
 20
39.2904397203120368
 30
0.0
 41
0.01
 42
0.01
 43
1.0
  0
INSERT
  5
144
100
AcDbEntity
  8
uredjaji
 62
256
370
-1
 48
1.0
  6
BYLAYER
100
AcDbBlockReference
  2
toilet
 10
50.6672010053380788
 20
42.3714811304769938
 30
0.0
 41
0.01
 42
0.01
 43
1.0
  0
INSERT
  5
145
100
AcDbEntity
  8
uredjaji
 62
256
370
-1
 48
1.0
  6
BYLAYER
100
AcDbBlockReference
  2
toilet
 10
71.3977770375785497
 20
5.2128802082841617
 30
0.0
 41
0.01
 42
0.01
 43
1.0
 50
180.0
  0
INSERT
  5
146
100
AcDbEntity
  8
uredjaji
 62
256
370
-1
 48
1.0
  6
BYLAYER
100
AcDbBlockReference
  2
sh80_sw
 10
107.0
 20
17.0
 30
0.0
 41
0.008
 42
0.008
 43
1.0
  0
INSERT
  5
147
100
AcDbEntity
  8
uredjaji
 62
256
370
-1
 48
1.0
  6
BYLAYER
100
AcDbBlockReference
  2
sh80_sw
 10
100.0
 20
41.0
 30
0.0
 41
0.008
 42
0.008
 43
1.0
  0
INSERT
  5
148
100
AcDbEntity
  8
uredjaji
 62
256
370
-1
 48
1.0
  6
BYLAYER
100
AcDbBlockReference
  2
gaszaehl
 10
86.7529128117250394
 20
16.3698904728488657
 30
0.0
 41
0.5
 42
0.5
 43
1.0
 50
180.0
  0
INSERT
  5
149
100
AcDbEntity
  8
uredjaji
 62
256
370
-1
 48
1.0
  6
BYLAYER
100
AcDbBlockReference
  2
gaszaehl
 10
115.4356900614602068
 20
37.6763841949169347
 30
0.0
 41
0.5
 42
0.5
 43
1.0
 50
180.0
  0
INSERT
  5
14A
100
AcDbEntity
  8
uredjaji
 62
256
370
-1
 48
1.0
  6
BYLAYER
100
AcDbBlockReference
  2
gaszaehl
 10
69.0
 20
38.0
 30
0.0
 41
0.5
 42
0.5
 43
1.0
 50
180.0
  0
LINE
  5
14B
100
AcDbEntity
  8
instalacija toplo
 62
256
370
-1
 48
1.0
  6
BYLAYER
100
AcDbLine
 10
90.0
 20
38.0
 30
0.0
 11
104.0
 21
38.0
 31
0.0
  0
LINE
  5
14C
100
AcDbEntity
  8
instalacija toplo
 62
256
370
-1
 48
1.0
  6
BYLAYER
100
AcDbLine
 10
104.0
 20
38.0
 30
0.0
 11
104.0
 21
38.0
 31
0.0
  0
LINE
  5
14D
100
AcDbEntity
  8
instalacija toplo
 62
256
370
-1
 48
1.0
  6
BYLAYER
100
AcDbLine
 10
60.0
 20
44.0
 30
0.0
 11
66.0
 21
44.0
 31
0.0
  0
LINE
  5
14E
100
AcDbEntity
  8
instalacija
 62
256
370
-1
 48
1.0
  6
BYLAYER
100
AcDbLine
 10
58.0
 20
42.0
 30
0.0
 11
66.0
 21
42.0
 31
0.0
  0
LINE
  5
14F
100
AcDbEntity
  8
instalacija
 62
256
370
-1
 48
1.0
  6
BYLAYER
100
AcDbLine
 10
62.0
 20
42.0
 30
0.0
 11
62.0
 21
42.0
 31
0.0
  0
LINE
  5
150
100
AcDbEntity
  8
instalacija
 62
256
370
-1
 48
1.0
  6
BYLAYER
100
AcDbLine
 10
77.0
 20
20.0
 30
0.0
 11
69.0
 21
20.0
 31
0.0
  0
LINE
  5
151
100
AcDbEntity
  8
instalacija
 62
256
370
-1
 48
1.0
  6
BYLAYER
100
AcDbLine
 10
69.0
 20
20.0
 30
0.0
 11
69.0
 21
20.0
 31
0.0
  0
LINE
  5
152
100
AcDbEntity
  8
instalacija
 62
256
370
-1
 48
1.0
  6
BYLAYER
100
AcDbLine
 10
69.0
 20
20.0
 30
0.0
 11
66.0
 21
20.0
 31
0.0
  0
LINE
  5
153
100
AcDbEntity
  8
instalacija
 62
256
370
-1
 48
1.0
  6
BYLAYER
100
AcDbLine
 10
66.0
 20
20.0
 30
0.0
 11
66.0
 21
20.0
 31
0.0
  0
ARC
  5
154
100
AcDbEntity
  8
0
 62
256
370
-1
 48
1.0
  6
BYLAYER
100
AcDbCircle
 10
66.0
 20
20.0
 30
0.0
 40
1.7423245005736057
100
AcDbArc
 50
0.0
 51
360.0
  0
LINE
  5
155
100
AcDbEntity
  8
0
 62
256
370
-1
 48
1.0
  6
BYLAYER
100
AcDbLine
 10
2.0
 20
-8.0
 30
0.0
 11
0.0
 21
-8.0
 31
0.0
  0
LINE
  5
156
100
AcDbEntity
  8
0
 62
256
370
-1
 48
1.0
  6
BYLAYER
100
AcDbLine
 10
0.0
 20
-8.0
 30
0.0
 11
0.0
 21
0.0
 31
0.0
  0
LINE
  5
157
100
AcDbEntity
  8
0
 62
256
370
-1
 48
1.0
  6
BYLAYER
100
AcDbLine
 10
0.0
 20
0.0
 30
0.0
 11
0.0
 21
0.0
 31
0.0
  0
LINE
  5
158
100
AcDbEntity
  8
0
 62
256
370
-1
 48
1.0
  6
BYLAYER
100
AcDbLine
 10
2.0
 20
-8.0
 30
0.0
 11
2.0
 21
0.0
 31
0.0
  0
LINE
  5
159
100
AcDbEntity
  8
0
 62
256
370
-1
 48
1.0
  6
BYLAYER
100
AcDbLine
 10
0.0
 20
0.0
 30
0.0
 11
0.0
 21
0.0
 31
0.0
  0
LINE
  5
15A
100
AcDbEntity
  8
0
 62
256
370
-1
 48
1.0
  6
BYLAYER
100
AcDbLine
 10
2.0
 20
-0.0
 30
0.0
 11
27.0
 21
-0.0
 31
0.0
  0
LINE
  5
15B
100
AcDbEntity
  8
0
 62
256
370
-1
 48
1.0
  6
BYLAYER
100
AcDbLine
 10
69.0
 20
24.0
 30
0.0
 11
69.0
 21
16.0
 31
0.0
  0
LINE
  5
15C
100
AcDbEntity
  8
0
 62
256
370
-1
 48
1.0
  6
BYLAYER
100
AcDbLine
 10
69.0
 20
16.0
 30
0.0
 11
71.0
 21
16.0
 31
0.0
  0
LINE
  5
15D
100
AcDbEntity
  8
0
 62
256
370
-1
 48
1.0
  6
BYLAYER
100
AcDbLine
 10
71.0
 20
16.0
 30
0.0
 11
71.0
 21
24.0
 31
0.0
  0
LINE
  5
15E
100
AcDbEntity
  8
0
 62
256
370
-1
 48
1.0
  6
BYLAYER
100
AcDbLine
 10
71.0
 20
24.0
 30
0.0
 11
69.0
 21
24.0
 31
0.0
  0
HATCH
  5
15F
100
AcDbEntity
  8
0
 62
256
370
-1
 48
1.0
  6
BYLAYER
100
AcDbHatch
 10
0.0
 20
0.0
 30
0.0
210
0.0
220
0.0
230
1.0
  2
ANSI31
 70
0
 71
0
 91
1
 92
1
 93
4
 72
1
 10
71.0
 20
24.0
 11
69.0
 21
24.0
 72
1
 10
69.0
 20
24.0
 11
69.0
 21
16.0
 72
1
 10
69.0
 20
16.0
 11
71.0
 21
16.0
 72
1
 10
71.0
 20
16.0
 11
71.0
 21
24.0
 97
0
 75
0
 76
1
 52
0.0
 41
0.4
 77
0
 78
1
 53
45.0
 43
0.0
 44
0.0
 45
-0.0883883476483184
 46
0.0883883476483185
 79
0
 98
0
1001
ACAD
1010
0.0
1020
0.0
1030
0
  0
MTEXT
  5
160
100
AcDbEntity
  8
text
 62
256
370
-1
 48
1.0
  6
BYLAYER
100
AcDbMText
 10
48.0
 20
18.0
 30
0.0
 40
1.0
 41
0.0
 71
5
 72
1
  1
\H2;KUPAONA\PPODRUM
  7
textstyle21
 50
0.0
 73
2
 44
1.0
  0
MTEXT
  5
161
100
AcDbEntity
  8
text
 62
256
370
-1
 48
1.0
  6
BYLAYER
100
AcDbMText
 10
14.9406123110919964
 20
44.1762683924498845
 30
0.0
 40
1.0
 41
0.0
 71
5
 72
1
  1
\H2;KUHINJA - WC\PRAZINA 1
  7
textstyle22
 50
0.0
 73
2
 44
1.0
  0
MTEXT
  5
162
100
AcDbEntity
  8
text
 62
256
370
-1
 48
1.0
  6
BYLAYER
100
AcDbMText
 10
82.2128090537630101
 20
44.2454514543391255
 30
0.0
 40
1.0
 41
0.0
 71
5
 72
1
  1
\H2;KUPAONA\PRAZINA 1
  7
textstyle24
 50
0.0
 73
2
 44
1.0
  0
MTEXT
  5
163
100
AcDbEntity
  8
text
 62
7
420
16777215
370
-1
 48
1.0
  6
BYLAYER
100
AcDbMText
 10
25.7638661421790687
 20
-4.5699182745442073
 30
0.0
 40
1.0
 41
0.0
 71
5
 72
1
  1
\H2;KUHINJA\PPODRUM
  7
textstyle25
 50
0.0
 73
2
 44
1.0
  0
MTEXT
  5
164
100
AcDbEntity
  8
text
 62
256
370
-1
 48
1.0
  6
BYLAYER
100
AcDbMText
 10
65.8044052223551432
 20
15.811727972043613
 30
0.0
 40
1.0
 41
0.0
 71
5
 72
1
  1
\H1.5;IZLAZ ZA\PVAN
  7
textstyle23
 50
0.0
 73
2
 44
1.0
  0
LINE
  5
165
100
AcDbEntity
  8
instalacija
 62
256
370
-1
 48
1.0
  6
BYLAYER
100
AcDbLine
 10
55.0
 20
7.0
 30
0.0
 11
55.0
 21
-9.0
 31
0.0
  0
MTEXT
  5
166
100
AcDbEntity
  8
text
 62
4
420
65535
370
-1
 48
1.0
  6
BYLAYER
100
AcDbMText
 10
62.0
 20
-5.0
 30
0.0
 40
1.0
 41
0.0
 71
5
 72
1
  1
\H2;DOLAZ\PVODE
  7
textstyle26
 50
0.0
 73
2
 44
1.0
  0
LINE
  5
167
100
AcDbEntity
  8
0
 62
256
370
-1
 48
1.0
  6
BYLAYER
100
AcDbLine
 10
125.0
 20
40.0
 30
0.0
 11
125.0
 21
32.0
 31
0.0
  0
LINE
  5
168
100
AcDbEntity
  8
0
 62
256
370
-1
 48
1.0
  6
BYLAYER
100
AcDbLine
 10
108.0
 20
40.0
 30
0.0
 11
108.0
 21
32.0
 31
0.0
  0
LINE
  5
169
100
AcDbEntity
  8
0
 62
256
370
-1
 48
1.0
  6
BYLAYER
100
AcDbLine
 10
56.0
 20
41.0
 30
0.0
 11
56.0
 21
33.0
 31
0.0
  0
LINE
  5
16A
100
AcDbEntity
  8
0
 62
256
370
-1
 48
1.0
  6
BYLAYER
100
AcDbLine
 10
47.0
 20
41.0
 30
0.0
 11
47.0
 21
33.0
 31
0.0
  0
LINE
  5
16B
100
AcDbEntity
  8
0
 62
256
370
-1
 48
1.0
  6
BYLAYER
100
AcDbLine
 10
3.5440873957347634
 20
3.2898092986753085
 30
0.0
 11
8.7239286266960647
 21
7.5982753692879825
 31
0.0
  0
LINE
  5
16C
100
AcDbEntity
  8
0
 62
256
370
-1
 48
1.0
  6
BYLAYER
100
AcDbLine
 10
9.0
 20
3.0
 30
0.0
 11
13.0
 21
7.0
 31
0.0
  0
LINE
  5
16D
100
AcDbEntity
  8
0
 62
256
370
-1
 48
1.0
  6
BYLAYER
100
AcDbLine
 10
61.5399986857985937
 20
15.2979786528379194
 30
0.0
 11
61.49158895466811
 21
6.9715048983954482
 31
0.0
  0
LINE
  5
16E
100
AcDbEntity
  8
0
 62
256
370
-1
 48
1.0
  6
BYLAYER
100
AcDbLine
 10
90.0
 20
14.0
 30
0.0
 11
90.0
 21
5.0
 31
0.0
  0
LINE
  5
16F
100
AcDbEntity
  8
0
 62
256
370
-1
 48
1.0
  6
BYLAYER
100
AcDbLine
 10
74.4500564502811386
 20
24.5984106635998927
 30
0.0
 11
82.1594261889432005
 21
19.6595956747695055
 31
0.0
  0
DIMENSION
  5
170
100
AcDbEntity
  8
mjere
 62
256
370
-1
 48
1.0
  6
BYLAYER
100
AcDbDimension
 10
51.5
 20
34.0
 30
0.0
 11
51.5
 21
35.125
 31
0.0
 70
0
 71
8
 72
2
 74
0
 75
0
 41
1.0
 42
0.0
  1
120
  3
Standard
100
AcDbAlignedDimension
 13
56.0
 23
34.0
 33
0.0
 14
47.0
 24
34.0
 34
0.0
 50
0.0
100
AcDbRotatedDimension
1001
ACAD
1000
DSTYLE
1002
{
1070
144
1040
1.0
1070
40
1040
0.1
1002
}
  0
DIMENSION
  5
171
100
AcDbEntity
  8
mjere
 62
256
370
-1
 48
1.0
  6
BYLAYER
100
AcDbDimension
 10
30.0
 20
34.0
 30
0.0
 11
30.0
 21
35.125
 31
0.0
 70
0
 71
8
 72
2
 74
0
 75
0
 41
1.0
 42
0.0
  1
110
  3
Standard
100
AcDbAlignedDimension
 13
47.0
 23
34.0
 33
0.0
 14
13.0
 24
33.7842941350214545
 34
0.0
 50
0.0
100
AcDbRotatedDimension
1001
ACAD
1000
DSTYLE
1002
{
1070
144
1040
1.0
1070
40
1040
0.1
1002
}
  0
DIMENSION
  5
172
100
AcDbEntity
  8
mjere
 62
256
370
-1
 48
1.0
  6
BYLAYER
100
AcDbDimension
 10
35.9041574872794627
 20
38.0
 30
0.0
 11
34.7791574872794627
 21
40.1644691454573888
 31
0.0
 70
0
 71
8
 72
2
 74
0
 75
0
 41
1.0
 42
0.0
  1
90
  3
Standard
100
AcDbAlignedDimension
 13
36.0
 23
38.0
 33
0.0
 14
35.9041574872794627
 24
42.3289382909147776
 34
0.0
 50
90.0
100
AcDbRotatedDimension
1001
ACAD
1000
DSTYLE
1002
{
1070
144
1040
1.0
1070
40
1040
0.1
1002
}
  0
DIMENSION
  5
173
100
AcDbEntity
  8
mjere
 62
256
370
-1
 48
1.0
  6
BYLAYER
100
AcDbDimension
 10
63.0
 20
38.0
 30
0.0
 11
61.875
 21
47.0
 31
0.0
 70
0
 71
8
 72
2
 74
0
 75
0
 41
1.0
 42
0.0
  1
200
  3
Standard
100
AcDbAlignedDimension
 13
60.0
 23
38.0
 33
0.0
 14
60.0
 24
56.0
 34
0.0
 50
90.0
100
AcDbRotatedDimension
1001
ACAD
1000
DSTYLE
1002
{
1070
144
1040
1.0
1070
40
1040
0.1
1002
}
  0
DIMENSION
  5
174
100
AcDbEntity
  8
mjere
 62
256
370
-1
 48
1.0
  6
BYLAYER
100
AcDbDimension
 10
63.0
 20
28.0
 30
0.0
 11
61.875
 21
33.0
 31
0.0
 70
0
 71
8
 72
2
 74
0
 75
0
 41
1.0
 42
0.0
  1
120
  3
Standard
100
AcDbAlignedDimension
 13
60.0
 23
28.0
 33
0.0
 14
60.375
 24
38.0
 34
0.0
 50
90.0
100
AcDbRotatedDimension
1001
ACAD
1000
DSTYLE
1002
{
1070
144
1040
1.0
1070
40
1040
0.1
1002
}
  0
DIMENSION
  5
175
100
AcDbEntity
  8
mjere
 62
256
370
-1
 48
1.0
  6
BYLAYER
100
AcDbDimension
 10
63.0
 20
12.0
 30
0.0
 11
61.875
 21
19.0
 31
0.0
 70
0
 71
8
 72
2
 74
0
 75
0
 41
1.0
 42
0.0
  1
280
  3
Standard
100
AcDbAlignedDimension
 13
60.0
 23
12.0
 33
0.0
 14
60.0
 24
26.0
 34
0.0
 50
90.0
100
AcDbRotatedDimension
1001
ACAD
1000
DSTYLE
1002
{
1070
144
1040
1.0
1070
40
1040
0.1
1002
}
  0
DIMENSION
  5
176
100
AcDbEntity
  8
mjere
 62
256
370
-1
 48
1.0
  6
BYLAYER
100
AcDbDimension
 10
15.6999999999999993
 20
12.0
 30
0.0
 11
14.5749999999999993
 21
4.8499999999999996
 31
0.0
 70
0
 71
8
 72
2
 74
0
 75
0
 41
1.0
 42
0.0
  1
100
  3
Standard
100
AcDbAlignedDimension
 13
12.0
 23
12.0
 33
0.0
 14
12.0
 24
-2.2999999999999998
 34
0.0
 50
90.0
100
AcDbRotatedDimension
1001
ACAD
1000
DSTYLE
1002
{
1070
144
1040
1.0
1070
40
1040
0.1
1002
}
  0
DIMENSION
  5
177
100
AcDbEntity
  8
mjere
 62
256
370
-1
 48
1.0
  6
BYLAYER
100
AcDbDimension
 10
52.0
 20
12.0
 30
0.0
 11
50.875
 21
8.6875
 31
0.0
 70
0
 71
8
 72
2
 74
0
 75
0
 41
1.0
 42
0.0
  1
80
  3
Standard
100
AcDbAlignedDimension
 13
48.0
 23
12.0
 33
0.0
 14
47.7500000000000071
 24
5.375
 34
0.0
 50
90.0
100
AcDbRotatedDimension
1001
ACAD
1000
DSTYLE
1002
{
1070
144
1040
1.0
1070
40
1040
0.1
1002
}
  0
DIMENSION
  5
178
100
AcDbEntity
  8
mjere
 62
256
370
-1
 48
1.0
  6
BYLAYER
100
AcDbDimension
 10
89.0
 20
10.0
 30
0.0
 11
87.875
 21
16.0
 31
0.0
 70
0
 71
8
 72
2
 74
0
 75
0
 41
1.0
 42
0.0
  1
300
  3
Standard
100
AcDbAlignedDimension
 13
79.0
 23
10.0
 33
0.0
 14
79.0
 24
22.0
 34
0.0
 50
90.0
100
AcDbRotatedDimension
1001
ACAD
1000
DSTYLE
1002
{
1070
144
1040
1.0
1070
40
1040
0.1
1002
}
  0
DIMENSION
  5
179
100
AcDbEntity
  8
mjere
 62
256
370
-1
 48
1.0
  6
BYLAYER
100
AcDbDimension
 10
33.2457944773340586
 20
8.0
 30
0.0
 11
33.2457944773340586
 21
9.125
 31
0.0
 70
0
 71
8
 72
2
 74
0
 75
0
 41
1.0
 42
0.0
  1
370
  3
Standard
100
AcDbAlignedDimension
 13
5.0
 23
8.0
 33
0.0
 14
61.49158895466811
 24
6.9715048983954482
 34
0.0
 50
0.0
100
AcDbRotatedDimension
1001
ACAD
1000
DSTYLE
1002
{
1070
144
1040
1.0
1070
40
1040
0.1
1002
}
  0
DIMENSION
  5
17A
100
AcDbEntity
  8
mjere
 62
256
370
-1
 48
1.0
  6
BYLAYER
100
AcDbDimension
 10
75.7457944773340586
 20
8.0
 30
0.0
 11
75.7457944773340586
 21
9.125
 31
0.0
 70
0
 71
8
 72
2
 74
0
 75
0
 41
1.0
 42
0.0
  1
200
  3
Standard
100
AcDbAlignedDimension
 13
61.49158895466811
 23
8.0
 33
0.0
 14
90.0000000000000142
 24
8.0
 34
0.0
 50
0.0
100
AcDbRotatedDimension
1001
ACAD
1000
DSTYLE
1002
{
1070
144
1040
1.0
1070
40
1040
0.1
1002
}
  0
DIMENSION
  5
17B
100
AcDbEntity
  8
mjere
 62
256
370
-1
 48
1.0
  6
BYLAYER
100
AcDbDimension
 10
98.5407853174043566
 20
8.0
 30
0.0
 11
98.5407853174043566
 21
9.125
 31
0.0
 70
0
 71
8
 72
2
 74
0
 75
0
 41
1.0
 42
0.0
  1
200
  3
Standard
100
AcDbAlignedDimension
 13
90.0
 23
8.0
 33
0.0
 14
107.0815706348087275
 24
4.6949766217155116
 34
0.0
 50
0.0
100
AcDbRotatedDimension
1001
ACAD
1000
DSTYLE
1002
{
1070
144
1040
1.0
1070
40
1040
0.1
1002
}
  0
DIMENSION
  5
17C
100
AcDbEntity
  8
mjere
 62
256
370
-1
 48
1.0
  6
BYLAYER
100
AcDbDimension
 10
80.12818696883852
 20
18.8661473087818763
 30
0.0
 11
92.2471275670316828
 21
24.4246456471341951
 31
0.0
 70
1
 71
8
 72
2
 74
0
 75
0
 41
1.0
 42
0.0
  1
100
  3
Standard
100
AcDbAlignedDimension
 13
79.0
 23
22.0
 33
0.0
 14
104.0
 24
31.0
 34
0.0
1001
ACAD
1000
DSTYLE
1002
{
1070
144
1040
1.0
1070
40
1040
0.1
1002
}
  0
DIMENSION
  5
17D
100
AcDbEntity
  8
mjere
 62
256
370
-1
 48
1.0
  6
BYLAYER
100
AcDbDimension
 10
110.0
 20
38.0
 30
0.0
 11
108.875
 21
34.5
 31
0.0
 70
0
 71
8
 72
2
 74
0
 75
0
 41
1.0
 42
0.0
  1
120
  3
Standard
100
AcDbAlignedDimension
 13
104.0
 23
38.0
 33
0.0
 14
104.0
 24
31.0
 34
0.0
 50
90.0
100
AcDbRotatedDimension
1001
ACAD
1000
DSTYLE
1002
{
1070
144
1040
1.0
1070
40
1040
0.1
1002
}
  0
DIMENSION
  5
17E
100
AcDbEntity
  8
mjere
 62
256
370
-1
 48
1.0
  6
BYLAYER
100
AcDbDimension
 10
108.0
 20
46.5190087966496151
 30
0.0
 11
116.5
 21
47.6440087966496151
 31
0.0
 70
0
 71
8
 72
2
 74
0
 75
0
 41
1.0
 42
0.0
  1
200
  3
Standard
100
AcDbAlignedDimension
 13
108.0
 23
40.0
 33
0.0
 14
125.0
 24
40.0
 34
0.0
 50
0.0
100
AcDbRotatedDimension
1001
ACAD
1000
DSTYLE
1002
{
1070
144
1040
1.0
1070
40
1040
0.1
1002
}
  0
DIMENSION
  5
17F
100
AcDbEntity
  8
mjere
 62
256
370
-1
 48
1.0
  6
BYLAYER
100
AcDbDimension
 10
125.0
 20
46.2826825480172488
 30
0.0
 11
128.5
 21
47.4076825480172488
 31
0.0
 70
0
 71
8
 72
2
 74
0
 75
0
 41
1.0
 42
0.0
  1
200
  3
Standard
100
AcDbAlignedDimension
 13
125.0
 23
40.0
 33
0.0
 14
132.0
 24
39.0
 34
0.0
 50
0.0
100
AcDbRotatedDimension
1001
ACAD
1000
DSTYLE
1002
{
1070
144
1040
1.0
1070
40
1040
0.1
1002
}
  0
DIMENSION
  5
180
100
AcDbEntity
  8
mjere
 62
256
370
-1
 48
1.0
  6
BYLAYER
100
AcDbDimension
 10
108.0
 20
46.2680902739451057
 30
0.0
 11
97.9686354802708195
 21
47.3930902739451057
 31
0.0
 70
0
 71
8
 72
2
 74
0
 75
0
 41
1.0
 42
0.0
  1
200
  3
Standard
100
AcDbAlignedDimension
 13
108.0
 23
38.0
 33
0.0
 14
87.9372709605416247
 24
39.7705466542887862
 34
0.0
 50
0.0
100
AcDbRotatedDimension
1001
ACAD
1000
DSTYLE
1002
{
1070
144
1040
1.0
1070
40
1040
0.1
1002
}
  0
MTEXT
  5
181
100
AcDbEntity
  8
ventili
 62
256
370
-1
 48
1.0
  6
BYLAYER
100
AcDbMText
 10
10.1496412724452867
 20
13.4673071580862427
 30
0.0
 40
1.0
 41
0.0
 71
1
 72
1
  1
\H2;x
  7
textstyle7
 50
0.0
 73
2
 44
1.0
  0
MTEXT
  5
182
100
AcDbEntity
  8
ventili
 62
256
370
-1
 48
1.0
  6
BYLAYER
100
AcDbMText
 10
10.4345639294576795
 20
11.2354130114891717
 30
0.0
 40
1.0
 41
0.0
 71
1
 72
1
  1
\H2;x
  7
textstyle10
 50
0.0
 73
2
 44
1.0
  0
MTEXT
  5
183
100
AcDbEntity
  8
ventili
 62
256
370
-1
 48
1.0
  6
BYLAYER
100
AcDbMText
 10
71.8552144693270805
 20
21.3766904689896471
 30
0.0
 40
1.0
 41
0.0
 71
1
 72
1
  1
\H2;x
  7
textstyle11
 50
0.0
 73
2
 44
1.0
  0
MTEXT
  5
184
100
AcDbEntity
  8
ventili
 62
256
370
-1
 48
1.0
  6
BYLAYER
100
AcDbMText
 10
100.7367952461560492
 20
33.1008033482074495
 30
0.0
 40
1.0
 41
0.0
 71
1
 72
1
  1
\H2;x
  7
textstyle8
 50
0.0
 73
2
 44
1.0
  0
MTEXT
  5
185
100
AcDbEntity
  8
ventili
 62
256
370
-1
 48
1.0
  6
BYLAYER
100
AcDbMText
 10
112.2828031336332515
 20
39.819022444670594
 30
0.0
 40
1.0
 41
0.0
 71
1
 72
1
  1
\H2;x
  7
textstyle9
 50
0.0
 73
2
 44
1.0
  0
MTEXT
  5
186
100
AcDbEntity
  8
ventili
 62
256
370
-1
 48
1.0
  6
BYLAYER
100
AcDbMText
 10
114.3677339412240741
 20
39.9453818875548876
 30
0.0
 40
1.0
 41
0.0
 71
1
 72
1
  1
\H2;x
  7
textstyle14
 50
0.0
 73
2
 44
1.0
  0
MTEXT
  5
187
100
AcDbEntity
  8
ventili
 62
256
370
-1
 48
1.0
  6
BYLAYER
100
AcDbMText
 10
114.3677339412240741
 20
39.9453818875548876
 30
0.0
 40
1.0
 41
0.0
 71
1
 72
1
  1
\H2;x
  7
textstyle15
 50
0.0
 73
2
 44
1.0
  0
MTEXT
  5
188
100
AcDbEntity
  8
ventili
 62
256
370
-1
 48
1.0
  6
BYLAYER
100
AcDbMText
 10
102.6601589169304418
 20
31.9359492940764795
 30
0.0
 40
1.0
 41
0.0
 71
1
 72
1
  1
\H2;x
  7
textstyle12
 50
0.0
 73
2
 44
1.0
  0
MTEXT
  5
189
100
AcDbEntity
  8
ventili
 62
256
370
-1
 48
1.0
  6
BYLAYER
100
AcDbMText
 10
57.2874920656355471
 20
41.3744629839668008
 30
0.0
 40
1.0
 41
0.0
 71
1
 72
1
  1
\H2;x
  7
textstyle13
 50
0.0
 73
2
 44
1.0
  0
MTEXT
  5
18A
100
AcDbEntity
  8
ventili
 62
256
370
-1
 48
1.0
  6
BYLAYER
100
AcDbMText
 10
59.3320759469744701
 20
41.275531505837499
 30
0.0
 40
1.0
 41
0.0
 71
1
 72
1
  1
\H2;x
  7
textstyle18
 50
0.0
 73
2
 44
1.0
  0
MTEXT
  5
18B
100
AcDbEntity
  8
ventili
 62
256
370
-1
 48
1.0
  6
BYLAYER
100
AcDbMText
 10
56.0343600093310386
 20
39.3958334213807433
 30
0.0
 40
1.0
 41
0.0
 71
1
 72
1
  1
\H2;x
  7
textstyle19
 50
0.0
 73
2
 44
1.0
  0
MTEXT
  5
18C
100
AcDbEntity
  8
ventili
 62
256
370
-1
 48
1.0
  6
BYLAYER
100
AcDbMText
 10
56.067337168707482
 20
37.3512495400418203
 30
0.0
 40
1.0
 41
0.0
 71
1
 72
1
  1
\H2;x
  7
textstyle16
 50
0.0
 73
2
 44
1.0
  0
MTEXT
  5
18D
100
AcDbEntity
  8
ventili
 62
256
370
-1
 48
1.0
  6
BYLAYER
100
AcDbMText
 10
59.3635207516447991
 20
21.376899113124459
 30
0.0
 40
1.0
 41
0.0
 71
1
 72
1
  1
\H2;x
  7
textstyle17
 50
0.0
 73
2
 44
1.0
  0
MTEXT
  5
18E
100
AcDbEntity
  8
ventili
 62
256
370
-1
 48
1.0
  6
BYLAYER
100
AcDbMText
 10
54.3243520800168014
 20
8.7475323952948632
 30
0.0
 40
1.0
 41
0.0
 71
1
 72
1
  1
\H2;x
  7
textstyle20
 50
0.0
 73
2
 44
1.0
  0
LINE
  5
18F
100
AcDbEntity
  8
instalacija
 62
256
370
-1
 48
1.0
  6
BYLAYER
100
AcDbLine
 10
102.0
 20
36.0
 30
0.0
 11
88.0
 21
36.0
 31
0.0
  0
LINE
  5
190
100
AcDbEntity
  8
instalacija
 62
256
370
-1
 48
1.0
  6
BYLAYER
100
AcDbLine
 10
115.0
 20
36.0
 30
0.0
 11
115.0
 21
41.0
 31
0.0
  0
LINE
  5
191
100
AcDbEntity
  8
instalacija toplo
 62
256
370
-1
 48
1.0
  6
BYLAYER
100
AcDbLine
 10
104.0
 20
38.0
 30
0.0
 11
113.0
 21
38.0
 31
0.0
  0
LINE
  5
192
100
AcDbEntity
  8
instalacija toplo
 62
256
370
-1
 48
1.0
  6
BYLAYER
100
AcDbLine
 10
113.0
 20
38.0
 30
0.0
 11
113.0
 21
41.0
 31
0.0
  0
LINE
  5
193
100
AcDbEntity
  8
instalacija
 62
256
370
-1
 48
1.0
  6
BYLAYER
100
AcDbLine
 10
77.0468867530931192
 20
15.923636401187629
 30
0.0
 11
83.3696922205410829
 21
15.9262547579288274
 31
0.0
  0
LINE
  5
194
100
AcDbEntity
  8
instalacija
 62
256
370
-1
 48
1.0
  6
BYLAYER
100
AcDbLine
 10
83.3696922205410829
 20
15.9262547579288274
 30
0.0
 11
83.3696922205410829
 21
19.1331937840803619
 31
0.0
  0
LINE
  5
195
100
AcDbEntity
  8
instalacija
 62
256
370
-1
 48
1.0
  6
BYLAYER
100
AcDbLine
 10
83.3696922205410829
 20
19.1331937840803619
 30
0.0
 11
83.3696922205410829
 21
19.1331937840803619
 31
0.0
  0
LINE
  5
196
100
AcDbEntity
  8
instalacija toplo
 62
256
370
-1
 48
1.0
  6
BYLAYER
100
AcDbLine
 10
79.0
 20
14.0
 30
0.0
 11
86.0
 21
14.0
 31
0.0
  0
LINE
  5
197
100
AcDbEntity
  8
instalacija toplo
 62
256
370
-1
 48
1.0
  6
BYLAYER
100
AcDbLine
 10
86.0
 20
14.0
 30
0.0
 11
86.0
 21
19.0
 31
0.0
  0
LINE
  5
198
100
AcDbEntity
  8
instalacija toplo
 62
256
370
-1
 48
1.0
  6
BYLAYER
100
AcDbLine
 10
86.0
 20
19.0
 30
0.0
 11
86.0
 21
19.0
 31
0.0
  0
LINE
  5
199
100
AcDbEntity
  8
instalacija
 62
256
370
-1
 48
1.0
  6
BYLAYER
100
AcDbLine
 10
5.0
 20
12.0
 30
0.0
 11
55.0
 21
12.0
 31
0.0
  0
LINE
  5
19A
100
AcDbEntity
  8
instalacija
 62
256
370
-1
 48
1.0
  6
BYLAYER
100
AcDbLine
 10
55.0
 20
12.0
 30
0.0
 11
55.0
 21
7.0
 31
0.0
  0
LINE
  5
19B
100
AcDbEntity
  8
instalacija
 62
256
370
-1
 48
1.0
  6
BYLAYER
100
AcDbLine
 10
55.0
 20
4.0
 30
0.0
 11
58.0
 21
4.0
 31
0.0
  0
LINE
  5
19C
100
AcDbEntity
  8
instalacija
 62
256
370
-1
 48
1.0
  6
BYLAYER
100
AcDbLine
 10
58.0
 20
4.0
 30
0.0
 11
58.0
 21
12.0
 31
0.0
  0
LINE
  5
19D
100
AcDbEntity
  8
instalacija
 62
256
370
-1
 48
1.0
  6
BYLAYER
100
AcDbLine
 10
55.0
 20
12.0
 30
0.0
 11
70.0
 21
12.0
 31
0.0
  0
LINE
  5
19E
100
AcDbEntity
  8
instalacija
 62
256
370
-1
 48
1.0
  6
BYLAYER
100
AcDbLine
 10
70.0
 20
7.0
 30
0.0
 11
69.997777037578544
 21
5.2128802082841617
 31
0.0
  0
LINE
  5
19F
100
AcDbEntity
  8
instalacija
 62
256
370
-1
 48
1.0
  6
BYLAYER
100
AcDbLine
 10
77.0
 20
14.0
 30
0.0
 11
77.0
 21
23.0
 31
0.0
  0
LINE
  5
1A0
100
AcDbEntity
  8
instalacija
 62
256
370
-1
 48
1.0
  6
BYLAYER
100
AcDbLine
 10
70.0
 20
12.0
 30
0.0
 11
105.0
 21
12.0
 31
0.0
  0
LINE
  5
1A1
100
AcDbEntity
  8
instalacija
 62
256
370
-1
 48
1.0
  6
BYLAYER
100
AcDbLine
 10
70.0000000000000142
 20
7.0
 30
0.0
 11
70.0
 21
12.0
 31
0.0
  0
LINE
  5
1A2
100
AcDbEntity
  8
0
 62
256
370
-1
 48
1.0
  6
BYLAYER
100
AcDbLine
 10
124.0
 20
26.0
 30
0.0
 11
124.0
 21
6.0
 31
0.0
  0
MTEXT
  5
1A3
100
AcDbEntity
  8
ventili
 62
256
370
-1
 48
1.0
  6
BYLAYER
100
AcDbMText
 10
81.0
 20
16.0
 30
0.0
 40
1.0
 41
0.0
 71
5
 72
1
  1
\H2;x
  7
textstyle5
 50
0.0
 73
2
 44
1.0
  0
LINE
  5
1A4
100
AcDbEntity
  8
0
 62
256
370
-1
 48
1.0
  6
BYLAYER
100
AcDbLine
 10
124.0
 20
6.0
 30
0.0
 11
127.0
 21
6.0
 31
0.0
  0
MTEXT
  5
1A5
100
AcDbEntity
  8
ventili
 62
256
370
-1
 48
1.0
  6
BYLAYER
100
AcDbMText
 10
82.5090610774713866
 20
15.188369388790667
 30
0.0
 40
1.0
 41
0.0
 71
1
 72
1
  1
\H2;x
  7
textstyle4
 50
0.0
 73
2
 44
1.0
  0
LINE
  5
1A6
100
AcDbEntity
  8
0
 62
256
370
-1
 48
1.0
  6
BYLAYER
100
AcDbLine
 10
127.0
 20
6.0
 30
0.0
 11
127.0
 21
26.0
 31
0.0
  0
LINE
  5
1A7
100
AcDbEntity
  8
0
 62
256
370
-1
 48
1.0
  6
BYLAYER
100
AcDbLine
 10
127.0
 20
26.0
 30
0.0
 11
139.0
 21
26.0
 31
0.0
  0
HATCH
  5
1A8
100
AcDbEntity
  8
0
 62
256
370
-1
 48
1.0
  6
BYLAYER
100
AcDbHatch
 10
0.0
 20
0.0
 30
0.0
210
0.0
220
0.0
230
1.0
  2
ANSI31
 70
0
 71
0
 91
2
 92
1
 93
24
 72
1
 10
2.0
 20
-8.0
 11
2.0
 21
0.0
 72
1
 10
2.0
 20
-0.0
 11
27.0
 21
-0.0
 72
1
 10
27.0
 20
0.0
 11
27.0
 21
2.0
 72
1
 10
27.0
 20
2.0
 11
2.0
 21
2.0
 72
1
 10
2.0
 20
2.0
 11
2.0
 21
26.0
 72
1
 10
2.0
 20
26.0
 11
3.0
 21
26.0
 72
1
 10
3.0
 20
26.0
 11
124.0
 21
26.0
 72
1
 10
124.0
 20
26.0
 11
124.0
 21
6.0
 72
1
 10
124.0
 20
6.0
 11
127.0
 21
6.0
 72
1
 10
127.0
 20
6.0
 11
127.0
 21
26.0
 72
1
 10
127.0
 20
26.0
 11
139.0
 21
26.0
 72
1
 10
139.0
 20
26.0
 11
139.0
 21
28.0
 72
1
 10
139.0
 20
28.0
 11
138.0
 21
28.0
 72
1
 10
138.0
 20
28.0
 11
73.0
 21
28.0
 72
1
 10
73.0
 20
28.0
 11
73.0
 21
49.0
 72
1
 10
73.0
 20
49.0
 11
104.0
 21
49.0
 72
1
 10
104.0
 20
49.0
 11
139.0
 21
49.0
 72
1
 10
139.0
 20
49.0
 11
139.0
 21
51.0
 72
1
 10
139.0
 20
51.0
 11
2.0
 21
51.0
 72
1
 10
2.0
 20
51.0
 11
2.0
 21
60.0
 72
1
 10
2.0
 20
60.0
 11
0.0
 21
60.0
 72
1
 10
0.0
 20
60.0
 11
0.0
 21
0.0
 72
1
 10
0.0
 20
0.0
 11
0.0
 21
-8.0
 72
1
 10
0.0
 20
-8.0
 11
2.0
 21
-8.0
 97
0
 92
1
 93
4
 72
1
 10
71.0
 20
28.0
 11
71.0
 21
49.0
 72
1
 10
71.0
 20
49.0
 11
2.0
 21
49.0
 72
1
 10
2.0
 20
49.0
 11
2.0
 21
28.0
 72
1
 10
2.0
 20
28.0
 11
71.0
 21
28.0
 97
0
 75
0
 76
1
 52
0.0
 41
0.4
 77
0
 78
1
 53
45.0
 43
0.0
 44
0.0
 45
-0.0883883476483184
 46
0.0883883476483185
 79
0
 98
0
1001
ACAD
1010
0.0
1020
0.0
1030
0
  0
LINE
  5
1A9
100
AcDbEntity
  8
instalacija
 62
256
370
-1
 48
1.0
  6
BYLAYER
100
AcDbLine
 10
110.0
 20
36.0
 30
0.0
 11
110.0
 21
34.0
 31
0.0
  0
LINE
  5
1AA
100
AcDbEntity
  8
instalacija
 62
256
370
-1
 48
1.0
  6
BYLAYER
100
AcDbLine
 10
110.0
 20
34.0
 30
0.0
 11
135.0
 21
34.0
 31
0.0
  0
LINE
  5
1AB
100
AcDbEntity
  8
instalacija
 62
256
370
-1
 48
1.0
  6
BYLAYER
100
AcDbLine
 10
135.0
 20
34.0
 30
0.0
 11
134.9815535374158912
 21
54.3957123673965981
 31
0.0
  0
LINE
  5
1AC
100
AcDbEntity
  8
instalacija
 62
256
370
-1
 48
1.0
  6
BYLAYER
100
AcDbLine
 10
134.9815535374158912
 20
54.3957123673965981
 30
0.0
 11
134.9815535374158912
 21
54.3957123673965981
 31
0.0
  0
LINE
  5
1AD
100
AcDbEntity
  8
instalacija
 62
256
370
-1
 48
1.0
  6
BYLAYER
100
AcDbLine
 10
135.0
 20
34.0
 30
0.0
 11
135.0
 21
11.0
 31
0.0
  0
LINE
  5
1AE
100
AcDbEntity
  8
instalacija toplo
 62
256
370
-1
 48
1.0
  6
BYLAYER
100
AcDbLine
 10
104.0
 20
32.0
 30
0.0
 11
137.0
 21
32.0
 31
0.0
  0
LINE
  5
1AF
100
AcDbEntity
  8
instalacija toplo
 62
256
370
-1
 48
1.0
  6
BYLAYER
100
AcDbLine
 10
137.0
 20
32.0
 30
0.0
 11
137.0
 21
11.0
 31
0.0
  0
LINE
  5
1B0
100
AcDbEntity
  8
instalacija toplo
 62
256
370
-1
 48
1.0
  6
BYLAYER
100
AcDbLine
 10
137.0
 20
32.0
 30
0.0
 11
137.0
 21
54.0
 31
0.0
  0
MTEXT
  5
1B1
100
AcDbEntity
  8
text
 62
256
370
-1
 48
1.0
  6
BYLAYER
100
AcDbMText
 10
79.2685628650390015
 20
54.3845732784433622
 30
0.0
 40
1.0
 41
0.0
 71
5
 72
1
  1
\H2;TAVAN
  7
textstyle6
 50
0.0
 73
2
 44
1.0
  0
MTEXT
  5
1B2
100
AcDbEntity
  8
text
 62
256
370
-1
 48
1.0
  6
BYLAYER
100
AcDbMText
 10
135.0621114217100285
 20
8.3756644191051564
 30
0.0
 40
1.0
 41
0.0
 71
5
 72
1
  1
\H1.5;PROSTORIJA 6\PPODRUM
  7
textstyle2
 50
0.0
 73
2
 44
1.0
  0
DIMENSION
  5
1B3
100
AcDbEntity
  8
mjere
 62
256
370
-1
 48
1.0
  6
BYLAYER
100
AcDbDimension
 10
140.2371386535123747
 20
52.554842539610938
 30
0.0
 11
139.1121386535123747
 21
32.4632301617607766
 31
0.0
 70
0
 71
8
 72
2
 74
0
 75
0
 41
1.0
 42
0.0
  1
450
  3
Standard
100
AcDbAlignedDimension
 13
136.841373181199657
 23
52.554842539610938
 33
0.0
 14
136.841373181199657
 24
12.3716177839106223
 34
0.0
 50
90.0
100
AcDbRotatedDimension
1001
ACAD
1000
DSTYLE
1002
{
1070
144
1040
1.0
1070
40
1040
0.1
1002
}
  0
LINE
  5
1B4
100
AcDbEntity
  8
instalacija
 62
256
370
-1
 48
1.0
  6
BYLAYER
100
AcDbLine
 10
77.0
 20
14.0
 30
0.0
 11
77.0
 21
12.0
 31
0.0
  0
MTEXT
  5
1B5
100
AcDbEntity
  8
ventili
 62
256
370
-1
 48
1.0
  6
BYLAYER
100
AcDbMText
 10
132.3937011568342541
 20
35.3615137676058282
 30
0.0
 40
1.0
 41
0.0
 71
1
 72
1
  1
\H2;x
  7
textstyle1
 50
0.0
 73
2
 44
1.0
  0
MTEXT
  5
1B6
100
AcDbEntity
  8
ventili
 62
256
370
-1
 48
1.0
  6
BYLAYER
100
AcDbMText
 10
132.530169355149269
 20
33.3144907928802922
 30
0.0
 40
1.0
 41
0.0
 71
1
 72
1
  1
\H2;x
  7
textstyle3
 50
0.0
 73
2
 44
1.0
  0
ENDSEC
  0
SECTION
  2
OBJECTS
  0
DICTIONARY
  5
C
100
AcDbDictionary
280
0
281
1
  3
ACAD_GROUP
350
D
  3
ACAD_LAYOUT
350
1A
  3
ACAD_MLINESTYLE
350
17
  3
ACAD_PLOTSETTINGS
350
19
  3
ACAD_PLOTSTYLENAME
350
E
  3
AcDbVariableDictionary
350
1B7
  3
QCAD_OBJECTS
350
1B8
  0
DICTIONARY
  5
D
100
AcDbDictionary
280
0
281
1
  0
ACDBDICTIONARYWDFLT
  5
E
100
AcDbDictionary
281
1
  3
Normal
350
F
100
AcDbDictionaryWithDefault
340
F
  0
ACDBPLACEHOLDER
  5
F
  0
DICTIONARY
  5
17
100
AcDbDictionary
280
0
281
1
  3
Standard
350
18
  0
MLINESTYLE
  5
18
100
AcDbMlineStyle
  2
STANDARD
 70
0
  3

 62
256
 51
90.0
 52
90.0
 71
2
 49
0.5
 62
256
  6
BYLAYER
 49
-0.5
 62
256
  6
BYLAYER
  0
DICTIONARY
  5
19
100
AcDbDictionary
280
0
281
1
  0
DICTIONARY
  5
1A
100
AcDbDictionary
281
1
  3
Layout1
350
1E
  3
Layout2
350
26
  3
Model
350
22
  0
LAYOUT
  5
1E
100
AcDbPlotSettings
  1

  2
none_device
  4

  6

 40
0.0
 41
0.0
 42
0.0
 43
0.0
 44
0.0
 45
0.0
 46
0.0
 47
0.0
 48
0.0
 49
0.0
140
0.0
141
0.0
142
1.0
143
1.0
 70
688
 72
0
 73
0
 74
5
  7

 75
16
147
1.0
148
0.0
149
0.0
100
AcDbLayout
  1
Layout1
 70
1
 71
1
 10
0.0
 20
0.0
 11
420.0
 21
297.0
 12
0.0
 22
0.0
 32
0.0
 14
100000000000000000000.0
 24
100000000000000000000.0
 34
100000000000000000000.0
 15
-100000000000000000000.0
 25
-100000000000000000000.0
 35
-100000000000000000000.0
146
0.0
 13
0.0
 23
0.0
 33
0.0
 16
1.0
 26
0.0
 36
0.0
 17
0.0
 27
1.0
 37
0.0
 76
0
330
1B
  0
LAYOUT
  5
22
100
AcDbPlotSettings
  1

  2
none_device
  4

  6

 40
0.0
 41
0.0
 42
0.0
 43
0.0
 44
0.0
 45
0.0
 46
0.0
 47
0.0
 48
0.0
 49
0.0
140
0.0
141
0.0
142
1.0
143
1.0
 70
1712
 72
0
 73
0
 74
0
  7

 75
0
147
1.0
148
0.0
149
0.0
100
AcDbLayout
  1
Model
 70
1
 71
0
 10
0.0
 20
0.0
 11
12.0
 21
9.0
 12
0.0
 22
0.0
 32
0.0
 14
0.0
 24
0.0
 34
0.0
 15
0.0
 25
0.0
 35
0.0
146
0.0
 13
0.0
 23
0.0
 33
0.0
 16
1.0
 26
0.0
 36
0.0
 17
0.0
 27
1.0
 37
0.0
 76
0
330
1F
  0
LAYOUT
  5
26
100
AcDbPlotSettings
  1

  2
none_device
  4

  6

 40
0.0
 41
0.0
 42
0.0
 43
0.0
 44
0.0
 45
0.0
 46
0.0
 47
0.0
 48
0.0
 49
0.0
140
0.0
141
0.0
142
1.0
143
1.0
 70
688
 72
0
 73
0
 74
5
  7

 75
16
147
1.0
148
0.0
149
0.0
100
AcDbLayout
  1
Layout2
 70
1
 71
2
 10
0.0
 20
0.0
 11
12.0
 21
9.0
 12
0.0
 22
0.0
 32
0.0
 14
0.0
 24
0.0
 34
0.0
 15
0.0
 25
0.0
 35
0.0
146
0.0
 13
0.0
 23
0.0
 33
0.0
 16
1.0
 26
0.0
 36
0.0
 17
0.0
 27
1.0
 37
0.0
 76
0
330
23
  0
DICTIONARY
  5
1B7
100
AcDbDictionary
281
1
  3
DIMASSOC
350
1BA
  3
HIDETEXT
350
1B9
  0
DICTIONARYVAR
  5
1B9
100
DictionaryVariables
280
0
  1
2
  0
DICTIONARYVAR
  5
1BA
100
DictionaryVariables
280
0
  1
1
  0
DICTIONARY
  5
1B8
100
AcDbDictionary
281
1
  3
ColorSettings/BackgroundColor
350
1BB
  3
ColorSettings/ColorMode
350
1BC
  3
DimensionSettings/AngularFormat
350
1BD
  3
DimensionSettings/AngularPrecision
350
1BE
  3
DimensionSettings/DecimalPoint
350
1BF
  3
DimensionSettings/DimensionFont
350
1C0
  3
DimensionSettings/DimensionTextColor
350
1C1
  3
DimensionSettings/KeepProportions
350
1C2
  3
DimensionSettings/LinearFormat
350
1C3
  3
DimensionSettings/LinearPrecision
350
1C4
  3
Grid/DisplayGrid00
350
1C5
  3
Grid/DisplayGrid01
350
1C6
  3
Grid/DisplayGrid02
350
1C7
  3
Grid/DisplayGrid03
350
1C8
  3
Grid/GridSpacingX00
350
1C9
  3
Grid/GridSpacingX01
350
1CA
  3
Grid/GridSpacingX02
350
1CB
  3
Grid/GridSpacingX03
350
1CC
  3
Grid/GridSpacingY00
350
1CD
  3
Grid/GridSpacingY01
350
1CE
  3
Grid/GridSpacingY02
350
1CF
  3
Grid/GridSpacingY03
350
1D0
  3
Grid/IsometricGrid00
350
1D1
  3
Grid/IsometricGrid01
350
1D2
  3
Grid/IsometricGrid02
350
1D3
  3
Grid/IsometricGrid03
350
1D4
  3
Grid/IsometricProjection00
350
1D5
  3
Grid/IsometricProjection01
350
1D6
  3
Grid/IsometricProjection02
350
1D7
  3
Grid/IsometricProjection03
350
1D8
  3
Grid/MetaGridSpacingX00
350
1D9
  3
Grid/MetaGridSpacingX01
350
1DA
  3
Grid/MetaGridSpacingX02
350
1DB
  3
Grid/MetaGridSpacingX03
350
1DC
  3
Grid/MetaGridSpacingY00
350
1DD
  3
Grid/MetaGridSpacingY01
350
1DE
  3
Grid/MetaGridSpacingY02
350
1DF
  3
Grid/MetaGridSpacingY03
350
1E0
  3
LinetypeSettings/PSLTSCALE
350
1E1
  3
MultiPageSettings/Columns
350
1E2
  3
MultiPageSettings/GlueMarginsBottom
350
1E3
  3
MultiPageSettings/GlueMarginsLeft
350
1E4
  3
MultiPageSettings/GlueMarginsRight
350
1E5
  3
MultiPageSettings/GlueMarginsTop
350
1E6
  3
MultiPageSettings/PrintCropMarks
350
1E7
  3
MultiPageSettings/Rows
350
1E8
  3
PageSettings/OffsetX
350
1E9
  3
PageSettings/OffsetY
350
1EA
  3
PageSettings/PageOrientation
350
1EB
  3
PageSettings/PaperHeight
350
1EC
  3
PageSettings/PaperSizeName
350
1ED
  3
PageSettings/PaperWidth
350
1EE
  3
PageSettings/PointSize
350
1EF
  3
PageSettings/Scale
350
1F0
  3
PageSettings/ShowPaperBorders
350
1F1
  3
PageTagSettings/EnablePageTags
350
1F2
  3
PageTagSettings/TagAlignment
350
1F3
  3
PageTagSettings/TagFont
350
1F4
  3
PageTagSettings/TagPosition
350
1F5
  3
QCADVersion
350
1F6
  3
UnitSettings/PaperUnit
350
1F7
  3
Viewport/ViewportList.data
350
1F8
  3
ViewportCenter
350
1F9
  3
ViewportHeight
350
1FA
  3
ViewportWidth
350
1FB
  0
XRECORD
  5
1BB
330
1B8
100
AcDbXrecord
280
1
1000
White
  0
XRECORD
  5
1BC
330
1B8
100
AcDbXrecord
280
1
1000
FullColor
  0
XRECORD
  5
1BD
330
1B8
100
AcDbXrecord
280
1
 90
0
  0
XRECORD
  5
1BE
330
1B8
100
AcDbXrecord
280
1
 90
0
  0
XRECORD
  5
1BF
330
1B8
100
AcDbXrecord
280
1
 90
46
  0
XRECORD
  5
1C0
330
1B8
100
AcDbXrecord
280
1
1000
DejaVu Sans
  0
XRECORD
  5
1C1
330
1B8
100
AcDbXrecord
280
1
1000
By Layer
  0
XRECORD
  5
1C2
330
1B8
100
AcDbXrecord
280
1
290
1
  0
XRECORD
  5
1C3
330
1B8
100
AcDbXrecord
280
1
 90
2
  0
XRECORD
  5
1C4
330
1B8
100
AcDbXrecord
280
1
 90
4
  0
XRECORD
  5
1C5
330
1B8
100
AcDbXrecord
280
1
290
1
  0
XRECORD
  5
1C6
330
1B8
100
AcDbXrecord
280
1
290
1
  0
XRECORD
  5
1C7
330
1B8
100
AcDbXrecord
280
1
290
1
  0
XRECORD
  5
1C8
330
1B8
100
AcDbXrecord
280
1
290
1
  0
XRECORD
  5
1C9
330
1B8
100
AcDbXrecord
280
1
1000
auto
  0
XRECORD
  5
1CA
330
1B8
100
AcDbXrecord
280
1
1000
auto
  0
XRECORD
  5
1CB
330
1B8
100
AcDbXrecord
280
1
1000
auto
  0
XRECORD
  5
1CC
330
1B8
100
AcDbXrecord
280
1
1000
auto
  0
XRECORD
  5
1CD
330
1B8
100
AcDbXrecord
280
1
1000
auto
  0
XRECORD
  5
1CE
330
1B8
100
AcDbXrecord
280
1
1000
auto
  0
XRECORD
  5
1CF
330
1B8
100
AcDbXrecord
280
1
1000
auto
  0
XRECORD
  5
1D0
330
1B8
100
AcDbXrecord
280
1
1000
auto
  0
XRECORD
  5
1D1
330
1B8
100
AcDbXrecord
280
1
290
0
  0
XRECORD
  5
1D2
330
1B8
100
AcDbXrecord
280
1
290
0
  0
XRECORD
  5
1D3
330
1B8
100
AcDbXrecord
280
1
290
0
  0
XRECORD
  5
1D4
330
1B8
100
AcDbXrecord
280
1
290
0
  0
XRECORD
  5
1D5
330
1B8
100
AcDbXrecord
280
1
 90
65537
  0
XRECORD
  5
1D6
330
1B8
100
AcDbXrecord
280
1
 90
65537
  0
XRECORD
  5
1D7
330
1B8
100
AcDbXrecord
280
1
 90
65537
  0
XRECORD
  5
1D8
330
1B8
100
AcDbXrecord
280
1
 90
65537
  0
XRECORD
  5
1D9
330
1B8
100
AcDbXrecord
280
1
1000
auto
  0
XRECORD
  5
1DA
330
1B8
100
AcDbXrecord
280
1
1000
auto
  0
XRECORD
  5
1DB
330
1B8
100
AcDbXrecord
280
1
1000
auto
  0
XRECORD
  5
1DC
330
1B8
100
AcDbXrecord
280
1
1000
auto
  0
XRECORD
  5
1DD
330
1B8
100
AcDbXrecord
280
1
1000
auto
  0
XRECORD
  5
1DE
330
1B8
100
AcDbXrecord
280
1
1000
auto
  0
XRECORD
  5
1DF
330
1B8
100
AcDbXrecord
280
1
1000
auto
  0
XRECORD
  5
1E0
330
1B8
100
AcDbXrecord
280
1
1000
auto
  0
XRECORD
  5
1E1
330
1B8
100
AcDbXrecord
280
1
290
0
  0
XRECORD
  5
1E2
330
1B8
100
AcDbXrecord
280
1
 90
1
  0
XRECORD
  5
1E3
330
1B8
100
AcDbXrecord
280
1
 40
10.0
  0
XRECORD
  5
1E4
330
1B8
100
AcDbXrecord
280
1
 40
10.0
  0
XRECORD
  5
1E5
330
1B8
100
AcDbXrecord
280
1
 40
10.0
  0
XRECORD
  5
1E6
330
1B8
100
AcDbXrecord
280
1
 40
10.0
  0
XRECORD
  5
1E7
330
1B8
100
AcDbXrecord
280
1
290
0
  0
XRECORD
  5
1E8
330
1B8
100
AcDbXrecord
280
1
 90
1
  0
XRECORD
  5
1E9
330
1B8
100
AcDbXrecord
280
1
 90
-13
  0
XRECORD
  5
1EA
330
1B8
100
AcDbXrecord
280
1
1000
-33.3353
  0
XRECORD
  5
1EB
330
1B8
100
AcDbXrecord
280
1
1000
Landscape
  0
XRECORD
  5
1EC
330
1B8
100
AcDbXrecord
280
1
 40
297.0
  0
XRECORD
  5
1ED
330
1B8
100
AcDbXrecord
280
1
1000
ISO A4
  0
XRECORD
  5
1EE
330
1B8
100
AcDbXrecord
280
1
 40
210.0
  0
XRECORD
  5
1EF
330
1B8
100
AcDbXrecord
280
1
1000
0.5
  0
XRECORD
  5
1F0
330
1B8
100
AcDbXrecord
280
1
 40
1.8
  0
XRECORD
  5
1F1
330
1B8
100
AcDbXrecord
280
1
290
1
  0
XRECORD
  5
1F2
330
1B8
100
AcDbXrecord
280
1
290
0
  0
XRECORD
  5
1F3
330
1B8
100
AcDbXrecord
280
1
1000
Inside
  0
XRECORD
  5
1F4
330
1B8
100
AcDbXrecord
280
1
1000
Arial,10,-1,5,50,0,0,0,0,0
  0
XRECORD
  5
1F5
330
1B8
100
AcDbXrecord
280
1
1000
TopLeft
  0
XRECORD
  5
1F6
330
1B8
100
AcDbXrecord
280
1
1000
3.26.1.1
  0
XRECORD
  5
1F7
330
1B8
100
AcDbXrecord
280
1
 90
4
  0
XRECORD
  5
1F8
330
1B8
100
AcDbXrecord
280
1
1000
00_Single.ui
  0
XRECORD
  5
1FA
330
1B8
100
AcDbXrecord
280
1
 40
91.2947463046427856
  0
XRECORD
  5
1FB
330
1B8
100
AcDbXrecord
280
1
 40
177.8221429328029046
  0
ENDSEC
  0
EOF
